<svg xmlns="http://www.w3.org/2000/svg" viewBox="0 0 318.71 575.35"><defs><style>.cls-1{fill:red;}</style></defs><title>Asset 1</title><g id="Layer_2" data-name="Layer 2"><g id="svg2"><path class="cls-1" d="M318.45,111.94l-4-15.67C308,70.9,276.66,35.17,246.23,18.46,221.24,4.73,212.29-.23,169.8,0c-40.62.22-52.62,5.71-76.94,18.07-34.35,17.44-61.21,46-79.45,84.35C2.66,125.06,0,139.85,0,178.23c-.09,78.63,26.53,136.62,89.21,194.34,34,31.31,45.4,40.46,129.15,103.7,28.26,21.35,62.66,51.44,76.43,66.88,19,21.27,21.2,32.24,23.27,32.2l.65-464Z"/></g></g></svg>