<svg xmlns="http://www.w3.org/2000/svg" viewBox="0 0 348.97 148.51">
  <defs>
    <style>
      .cls-1 {
        fill: #fbb03b;
        stroke: #a67c52;
        stroke-miterlimit: 10;
        stroke-width: 7px;
      }
    </style>
  </defs>
  <title>1000</title>
  <g id="Layer_2" data-name="Layer 2">
    <g id="Layer_2-2" data-name="Layer 2">
      <g id="_1000" data-name="1000">
        <path class="cls-1" d="M3.5,126.64c0-22.81,21.4-62.78,21.4-76.71,0-2.83-.81-4.64-2.63-5C13.8,43.07,10.57,39,10.57,34.39c0-11.91,22-29.07,35.12-30.49l6.06-.4c16.15,0,21,8.48,21,19.58,0,11.31-5.25,25.24-8.48,35.33-5.65,17-14.33,42.39-20,57.53-6.66,17.57-9.69,25.44-20.39,26.85L19,143.2C7.54,143.2,3.5,136.54,3.5,126.64Z"/>
        <path class="cls-1" d="M105,145c-25.43-.4-36.34-25.84-36.34-54.91,0-39.56,20.19-86.2,50.88-86.2h.8c26.05.81,36.54,24.63,36.54,52.49,0,40.17-22,88.62-51.47,88.62Zm12.52-81.55c0-4.65-.61-8.08-2-8.48h-.61c-5.25,0-10.29,16.35-10.29,27.65,0,5.66,1.21,10.1,4.44,10.7h.2C113.72,93.33,117.56,74.76,117.56,63.46Z"/>
        <path class="cls-1" d="M199.31,145C173.88,144.61,163,119.17,163,90.1c0-39.56,20.19-86.2,50.87-86.2h.81c26,.81,36.54,24.63,36.54,52.49,0,40.17-22,88.62-51.48,88.62Zm12.52-81.55c0-4.65-.6-8.08-2-8.48h-.6c-5.25,0-10.3,16.35-10.3,27.65,0,5.66,1.21,10.1,4.44,10.7h.2C208,93.33,211.83,74.76,211.83,63.46Z"/>
        <path class="cls-1" d="M293.59,145c-25.44-.4-36.34-25.84-36.34-54.91,0-39.56,20.19-86.2,50.87-86.2h.81c26,.81,36.54,24.63,36.54,52.49,0,40.17-22,88.62-51.48,88.62ZM306.1,63.46c0-4.65-.6-8.08-2-8.48h-.61c-5.25,0-10.3,16.35-10.3,27.65,0,5.66,1.22,10.1,4.45,10.7h.2C302.27,93.33,306.1,74.76,306.1,63.46Z"/>
      </g>
    </g>
  </g>
</svg>
