<svg xmlns="http://www.w3.org/2000/svg" viewBox="0 0 304.35 151.34">
  <defs>
    <style>
      .cls-1 {
        fill: #fbb03b;
        stroke: #a67c52;
        stroke-miterlimit: 10;
        stroke-width: 7px;
      }
    </style>
  </defs>
  <title>500</title>
  <g id="Layer_2" data-name="Layer 2">
    <g id="Layer_2-2" data-name="Layer 2">
      <g id="_500" data-name="500">
        <path class="cls-1" d="M42.06,146.63C13.39,142.19,3.5,127.45,3.5,114.93A23.16,23.16,0,0,1,7.34,102c3.63-5.45,7.26-7.26,10.9-7.26,10.49,0,21.19,16.15,33.1,16.15a9.9,9.9,0,0,0,3.44-.41c7.06-2,9.89-8.27,9.89-14.94a24.89,24.89,0,0,0-.81-6.66c-6.46-24-40.17-15.74-47-21.19-.8-.61-1.21-2-1.21-4,0-10.7,11.11-37.95,13.93-43.61,4.85-11.91,23-16.55,41-16.55a105.22,105.22,0,0,1,20,1.82c8.68,1.61,15.14,5.65,15.14,15.54a38.56,38.56,0,0,1-1,7.67C102,38.63,94.14,41.45,85.06,41.45c-5.86,0-12.32-1.21-18-2.42l-3.43-.4c-5.65,0-8.08,3.23-8.08,5.65a2.65,2.65,0,0,0,2.83,2.82H61c31.29,0,49.26,26.25,49.26,52.09,0,24.63-16.35,48.65-53.09,48.65A103.45,103.45,0,0,1,42.06,146.63Z"/>
        <path class="cls-1" d="M154.7,146.22c-25.44-.4-36.34-25.84-36.34-54.91,0-39.56,20.19-86.2,50.87-86.2H170c26,.81,36.54,24.63,36.54,52.49,0,40.17-22,88.62-51.48,88.62Zm12.52-81.55c0-4.65-.61-8.08-2-8.48h-.61c-5.25,0-10.29,16.35-10.29,27.66,0,5.65,1.21,10.09,4.44,10.69h.2C163.38,94.54,167.22,76,167.22,64.67Z"/>
        <path class="cls-1" d="M249,146.22c-25.43-.4-36.33-25.84-36.33-54.91,0-39.56,20.18-86.2,50.87-86.2h.81c26,.81,36.53,24.63,36.53,52.49,0,40.17-22,88.62-51.47,88.62Zm12.52-81.55c0-4.65-.61-8.08-2-8.48h-.6c-5.25,0-10.3,16.35-10.3,27.66,0,5.65,1.21,10.09,4.44,10.69h.2C257.65,94.54,261.49,76,261.49,64.67Z"/>
      </g>
    </g>
  </g>
</svg>
