<?xml version="1.0" encoding="iso-8859-1"?>
<!-- Generator: Adobe Illustrator 19.0.0, SVG Export Plug-In . SVG Version: 6.00 Build 0)  -->
<svg version="1.1" id="Layer_1" xmlns="http://www.w3.org/2000/svg" xmlns:xlink="http://www.w3.org/1999/xlink" x="0px" y="0px"
	 viewBox="0 0 512 512" style="enable-background:new 0 0 512 512;" xml:space="preserve">
<path style="fill:#E09B2D;" d="M302.38,454.443c0.015,0.566,0.029,1.131,0.029,1.697c0,25.627-20.782,46.409-46.409,46.409
	s-46.409-20.782-46.409-46.409c0-0.566,0.015-1.131,0.029-1.697"/>
<path style="fill:#F7B239;" d="M422.228,306.204v-65.297c-13.542,0-24.519-10.978-24.519-24.519v-38.285
	c0-78.264-63.446-141.71-141.71-141.71l0,0c-78.264,0-141.71,63.446-141.71,141.71v38.285c0,13.542-10.978,24.519-24.519,24.519
	v65.297c0,31.545-25.571,57.116-57.116,57.116l0,0v91.119h446.691V363.32l0,0C447.801,363.322,422.228,337.749,422.228,306.204z"/>
<path style="fill:#E09B2D;" d="M89.351,363.322c31.545,0,57.116-25.571,57.116-57.116v-65.298c13.542,0,24.519-10.978,24.519-24.519
	v-38.285c0-68.555,48.682-125.738,113.362-138.871c-9.16-1.861-18.639-2.839-28.348-2.839l0,0
	c-78.264,0-141.71,63.445-141.71,141.71v38.285c0,13.542-10.978,24.519-24.519,24.519v65.298c0,31.545-25.573,57.116-57.116,57.116
	l0,0v91.12h56.697L89.351,363.322L89.351,363.322z"/>
<g>
	<path style="fill:#FFFFFF;" d="M368.732,214.131c-5.219,0-9.449-4.231-9.449-9.449v-26.579c0-44.041-28.004-83.292-69.685-97.673
		c-4.934-1.702-7.553-7.082-5.851-12.015c1.702-4.934,7.081-7.556,12.015-5.851c49.297,17.009,82.419,63.441,82.419,115.539v26.579
		C378.181,209.901,373.95,214.131,368.732,214.131z"/>
	<path style="fill:#FFFFFF;" d="M450.367,434.912c-5.219,0-9.449-4.231-9.449-9.449v-31.881c0-5.219,4.231-9.449,9.449-9.449
		s9.449,4.231,9.449,9.449v31.881C459.816,430.682,455.586,434.912,450.367,434.912z"/>
	<path style="fill:#FFFFFF;" d="M396.568,339.377c-4.109,0-7.89-2.7-9.079-6.845c-2.448-8.53-3.689-17.387-3.689-26.327v-36.009
		c0-5.219,4.231-9.449,9.449-9.449c5.219,0,9.449,4.231,9.449,9.449v36.009c0,7.175,0.994,14.279,2.956,21.114
		c1.44,5.016-1.46,10.249-6.476,11.69C398.308,339.258,397.43,339.377,396.568,339.377z"/>
</g>
<g>
	<path style="fill:#333333;" d="M479.345,353.872c-26.283,0-47.667-21.383-47.667-47.667v-65.298c0-5.219-4.231-9.449-9.449-9.449
		c-8.309,0-15.07-6.761-15.07-15.07v-38.285c0-70.935-49.119-130.604-115.128-146.808C289.542,13.634,274.337,0,256,0
		s-33.542,13.634-36.031,31.294c-66.009,16.205-115.128,75.874-115.128,146.809v38.285c0,8.309-6.761,15.07-15.07,15.07
		c-5.219,0-9.449,4.231-9.449,9.449v65.298c0,26.283-21.383,47.667-47.667,47.667c-5.219,0-9.449,4.231-9.449,9.449v91.12
		c0,5.219,4.231,9.449,9.449,9.449h168.036C204.477,491.035,227.829,512,256,512s51.523-20.965,55.309-48.109h168.036
		c5.219,0,9.449-4.231,9.449-9.449v-91.12C488.795,358.103,484.564,353.872,479.345,353.872z M256,18.899
		c6.482,0,12.139,3.552,15.163,8.803c-4.988-0.499-10.045-0.758-15.163-0.758c-5.117,0-10.175,0.258-15.162,0.758
		C243.861,22.451,249.518,18.899,256,18.899z M256,493.101c-17.721,0-32.564-12.539-36.136-29.21h72.272
		C288.564,480.561,273.721,493.101,256,493.101z M42.103,444.991V372.77H301.36c5.219,0,9.449-4.231,9.449-9.449
		s-4.231-9.449-9.449-9.449H79.06c12.425-12.1,20.16-28.995,20.16-47.667v-55.849h214.79c5.219,0,9.449-4.231,9.449-9.449
		s-4.231-9.449-9.449-9.449H120.182c2.263-4.547,3.558-9.656,3.558-15.07v-38.284c0-72.928,59.332-132.26,132.26-132.26
		s132.26,59.332,132.26,132.26v38.285c0,5.414,1.295,10.523,3.558,15.07h-38.75c-5.219,0-9.449,4.231-9.449,9.449
		s4.231,9.449,9.449,9.449h59.71v55.849c0,18.672,7.735,35.566,20.16,47.667h-47.744c-5.219,0-9.449,4.231-9.449,9.449
		s4.231,9.449,9.449,9.449h84.701v72.221H42.103V444.991z"/>
	<circle style="fill:#333333;" cx="345.509" cy="363.324" r="9.449"/>
</g>
<circle style="fill:#FFFFFF;" cx="266.738" cy="64.773" r="9.449"/>
<g>
</g>
<g>
</g>
<g>
</g>
<g>
</g>
<g>
</g>
<g>
</g>
<g>
</g>
<g>
</g>
<g>
</g>
<g>
</g>
<g>
</g>
<g>
</g>
<g>
</g>
<g>
</g>
<g>
</g>
</svg>
