<svg width="308" height="44" viewBox="0 0 308 44" fill="none" xmlns="http://www.w3.org/2000/svg">
<path d="M302.62 8.58999L301.29 6.51999H300.62V8.58999H299.49V3.04999H301.47C302.73 3.04999 303.54 3.50999 303.54 4.75999C303.54 5.45999 303.17 5.98999 302.45 6.25999L302.43 6.30999L304.04 8.58999H302.62ZM301.33 3.84999H300.62V5.69999H301.33C302 5.69999 302.35 5.47999 302.35 4.76999C302.35 4.05999 302.01 3.84999 301.33 3.84999Z" fill="white"/>
<path d="M295.48 6.08C295.48 9.36 298.15 12.03 301.43 12.03C304.71 12.03 307.38 9.36 307.38 6.08C307.38 2.8 304.71 0.130005 301.43 0.130005C298.15 0.130005 295.48 2.8 295.48 6.08ZM296.64 6.08C296.64 3.44 298.79 1.29 301.43 1.29C304.07 1.29 306.22 3.43 306.22 6.08C306.22 8.72 304.07 10.87 301.43 10.87C298.79 10.87 296.64 8.72 296.64 6.08Z" fill="white"/>
<path d="M302.62 8.58999L301.29 6.51999H300.62V8.58999H299.49V3.04999H301.47C302.73 3.04999 303.54 3.50999 303.54 4.75999C303.54 5.45999 303.17 5.98999 302.45 6.25999L302.43 6.30999L304.04 8.58999H302.62ZM301.33 3.84999H300.62V5.69999H301.33C302 5.69999 302.35 5.47999 302.35 4.76999C302.35 4.05999 302.01 3.84999 301.33 3.84999Z" fill="white"/>
<path d="M295.48 6.08C295.48 9.36 298.15 12.03 301.43 12.03C304.71 12.03 307.38 9.36 307.38 6.08C307.38 2.8 304.71 0.130005 301.43 0.130005C298.15 0.130005 295.48 2.8 295.48 6.08ZM296.64 6.08C296.64 3.44 298.79 1.29 301.43 1.29C304.07 1.29 306.22 3.43 306.22 6.08C306.22 8.72 304.07 10.87 301.43 10.87C298.79 10.87 296.64 8.72 296.64 6.08Z" fill="white"/>
<path d="M163.46 5.57001C163.46 2.95001 165.59 0.820007 168.21 0.820007C170.83 0.820007 172.96 2.95001 172.96 5.57001C172.96 8.19001 170.84 10.32 168.21 10.32C165.59 10.32 163.46 8.20001 163.46 5.57001Z" fill="white"/>
<path d="M209.82 30.2C209.82 27.58 211.95 25.45 214.58 25.45C217.2 25.45 219.33 27.58 219.33 30.2C219.33 32.82 217.21 34.95 214.58 34.95C211.96 34.95 209.82 32.82 209.82 30.2Z" fill="white"/>
<path d="M163.46 38.49C163.46 35.87 165.59 33.74 168.21 33.74C170.83 33.74 172.96 35.87 172.96 38.49C172.96 41.11 170.84 43.24 168.21 43.24C165.59 43.24 163.46 41.11 163.46 38.49Z" fill="white"/>
<path d="M163.46 27.51C163.46 24.89 165.59 22.76 168.21 22.76C170.83 22.76 172.96 24.88 172.96 27.51C172.96 30.13 170.84 32.26 168.21 32.26C165.59 32.27 163.46 30.14 163.46 27.51Z" fill="white"/>
<path d="M163.46 16.55C163.46 13.92 165.59 11.8 168.21 11.8C170.83 11.8 172.96 13.93 172.96 16.55C172.96 19.17 170.83 21.3 168.21 21.3C165.59 21.3 163.46 19.17 163.46 16.55Z" fill="white"/>
<path d="M220.09 5.57001C220.09 2.95001 222.22 0.820007 224.85 0.820007C227.47 0.820007 229.6 2.95001 229.6 5.57001C229.6 8.19001 227.48 10.32 224.85 10.32C222.22 10.32 220.09 8.20001 220.09 5.57001Z" fill="white"/>
<path d="M220.09 38.49C220.09 35.87 222.22 33.74 224.85 33.74C227.47 33.74 229.6 35.87 229.6 38.49C229.6 41.11 227.48 43.24 224.85 43.24C222.22 43.24 220.09 41.11 220.09 38.49Z" fill="white"/>
<path d="M220.09 27.51C220.09 24.89 222.22 22.76 224.85 22.76C227.47 22.76 229.6 24.88 229.6 27.51C229.6 30.13 227.48 32.26 224.85 32.26C222.22 32.27 220.09 30.14 220.09 27.51Z" fill="white"/>
<path d="M220.09 16.55C220.09 13.92 222.22 11.8 224.85 11.8C227.47 11.8 229.6 13.93 229.6 16.55C229.6 19.17 227.47 21.3 224.85 21.3C222.22 21.3 220.09 19.17 220.09 16.55Z" fill="white"/>
<path d="M184.77 5.58002C184.77 2.96002 186.9 0.830017 189.53 0.830017C192.15 0.830017 194.28 2.96002 194.28 5.58002C194.28 8.20002 192.16 10.33 189.53 10.33C186.9 10.33 184.77 8.20002 184.77 5.58002Z" fill="white"/>
<path d="M184.77 38.49C184.77 35.87 186.9 33.74 189.53 33.74C192.15 33.74 194.28 35.87 194.28 38.49C194.28 41.11 192.16 43.24 189.53 43.24C186.9 43.24 184.77 41.12 184.77 38.49Z" fill="white"/>
<path d="M184.77 27.52C184.77 24.9 186.9 22.77 189.53 22.77C192.15 22.77 194.28 24.89 194.28 27.52C194.28 30.14 192.16 32.27 189.53 32.27C186.9 32.27 184.77 30.15 184.77 27.52Z" fill="white"/>
<path d="M184.77 16.55C184.77 13.92 186.9 11.8 189.53 11.8C192.15 11.8 194.28 13.93 194.28 16.55C194.28 19.17 192.15 21.3 189.53 21.3C186.9 21.3 184.77 19.18 184.77 16.55Z" fill="white"/>
<path d="M119.53 4.89001C119.53 2.27001 121.65 0.140015 124.28 0.140015C126.9 0.140015 129.03 2.27001 129.03 4.89001C129.03 7.52001 126.9 9.64001 124.28 9.64001C121.65 9.64001 119.53 7.51001 119.53 4.89001Z" fill="white"/>
<path d="M108.16 7.95001C108.16 5.33001 110.29 3.20001 112.91 3.20001C115.53 3.20001 117.66 5.33001 117.66 7.95001C117.66 10.57 115.54 12.7 112.91 12.7C110.28 12.7 108.16 10.57 108.16 7.95001Z" fill="white"/>
<path d="M130.73 4.89001C130.73 2.27001 132.85 0.140015 135.48 0.140015C138.1 0.140015 140.23 2.27001 140.23 4.89001C140.23 7.51001 138.1 9.64001 135.48 9.64001C132.85 9.64001 130.73 7.51001 130.73 4.89001Z" fill="white"/>
<path d="M141.47 7.63C141.47 5.01 143.6 2.88 146.22 2.88C148.84 2.88 150.97 5.01 150.97 7.63C150.97 10.25 148.85 12.38 146.22 12.38C143.6 12.38 141.47 10.26 141.47 7.63Z" fill="white"/>
<path d="M108.23 18.38C108.28 15.75 110.45 13.67 113.08 13.73C115.7 13.78 117.78 15.95 117.73 18.58C117.68 21.21 115.51 23.29 112.89 23.23C110.26 23.17 108.17 21 108.23 18.38Z" fill="white"/>
<path d="M130.79 39.17C130.79 36.55 132.91 34.42 135.54 34.42C138.16 34.42 140.29 36.55 140.29 39.17C140.29 41.79 138.16 43.92 135.54 43.92C132.92 43.93 130.79 41.8 130.79 39.17Z" fill="white"/>
<path d="M142.16 36.12C142.16 33.49 144.29 31.37 146.91 31.37C149.53 31.37 151.66 33.5 151.66 36.12C151.66 38.74 149.53 40.87 146.91 40.87C144.29 40.87 142.16 38.74 142.16 36.12Z" fill="white"/>
<path d="M142.09 25.49C142.14 22.87 144.31 20.78 146.94 20.83C149.56 20.89 151.65 23.06 151.59 25.68C151.54 28.3 149.36 30.38 146.74 30.33C144.12 30.28 142.03 28.11 142.09 25.49Z" fill="white"/>
<path d="M130.79 23.04C130.84 20.42 133.01 18.33 135.64 18.39C138.26 18.44 140.35 20.61 140.29 23.24C140.24 25.87 138.06 27.95 135.44 27.89C132.82 27.83 130.73 25.66 130.79 23.04Z" fill="white"/>
<path d="M119.51 21.01C119.57 18.39 121.74 16.3 124.36 16.35C126.99 16.4 129.06 18.58 129.01 21.2C128.96 23.82 126.79 25.9 124.16 25.85C121.54 25.8 119.46 23.63 119.51 21.01Z" fill="white"/>
<path d="M119.59 39.18C119.59 36.55 121.72 34.43 124.34 34.43C126.96 34.43 129.09 36.56 129.09 39.18C129.09 41.8 126.97 43.93 124.34 43.93C121.72 43.93 119.59 41.8 119.59 39.18Z" fill="white"/>
<path d="M108.84 36.43C108.84 33.81 110.96 31.68 113.59 31.68C116.22 31.68 118.34 33.81 118.34 36.43C118.34 39.06 116.21 41.18 113.59 41.18C110.97 41.18 108.84 39.06 108.84 36.43Z" fill="white"/>
<path d="M13.23 5.57001C13.23 2.95001 15.36 0.820007 17.99 0.820007C20.61 0.820007 22.74 2.95001 22.74 5.57001C22.74 8.20001 20.61 10.32 17.99 10.32C15.36 10.32 13.23 8.20001 13.23 5.57001Z" fill="white"/>
<path d="M3.97 11.75C3.97 9.12 6.1 7 8.72 7C11.34 7 13.47 9.13 13.47 11.75C13.47 14.37 11.34 16.5 8.72 16.5C6.1 16.5 3.97 14.37 3.97 11.75Z" fill="white"/>
<path d="M0.199997 22.03C0.199997 19.4 2.33 17.28 4.95 17.28C7.57 17.28 9.7 19.4 9.7 22.03C9.7 24.65 7.57 26.78 4.95 26.78C2.33 26.78 0.199997 24.66 0.199997 22.03Z" fill="white"/>
<path d="M24.44 4.89001C24.44 2.27001 26.57 0.140015 29.19 0.140015C31.82 0.140015 33.94 2.27001 33.94 4.89001C33.94 7.51001 31.81 9.64001 29.19 9.64001C26.56 9.64001 24.44 7.51001 24.44 4.89001Z" fill="white"/>
<path d="M35.19 7.63C35.19 5.01 37.31 2.88 39.94 2.88C42.56 2.88 44.69 5 44.7 7.63C44.7 10.26 42.57 12.38 39.94 12.38C37.31 12.38 35.19 10.25 35.19 7.63Z" fill="white"/>
<path d="M13.23 38.49C13.23 35.86 15.36 33.74 17.98 33.74C20.6 33.74 22.73 35.87 22.73 38.49C22.73 41.11 20.61 43.24 17.98 43.24C15.36 43.24 13.23 41.11 13.23 38.49Z" fill="white"/>
<path d="M3.97 32.31C3.97 29.69 6.1 27.56 8.72 27.56C11.34 27.56 13.47 29.69 13.47 32.31C13.47 34.93 11.34 37.06 8.72 37.06C6.1 37.06 3.97 34.94 3.97 32.31Z" fill="white"/>
<path d="M24.44 39.17C24.44 36.54 26.57 34.42 29.19 34.42C31.81 34.42 33.94 36.55 33.94 39.17C33.94 41.79 31.82 43.92 29.19 43.92C26.56 43.93 24.44 41.8 24.44 39.17Z" fill="white"/>
<path d="M35.19 36.43C35.19 33.81 37.31 31.68 39.94 31.68C42.56 31.68 44.7 33.81 44.7 36.43C44.7 39.05 42.57 41.18 39.94 41.18C37.31 41.18 35.19 39.05 35.19 36.43Z" fill="white"/>
<path d="M56.16 27.28C56.16 24.66 58.29 22.53 60.91 22.53C63.53 22.53 65.67 24.66 65.67 27.28C65.67 29.9 63.54 32.03 60.91 32.03C58.29 32.03 56.16 29.91 56.16 27.28Z" fill="white"/>
<path d="M60.78 16.26C60.78 13.64 62.91 11.51 65.53 11.51C68.15 11.51 70.29 13.64 70.29 16.26C70.29 18.88 68.16 21.01 65.53 21.01C62.91 21.01 60.78 18.88 60.78 16.26Z" fill="white"/>
<path d="M66.61 5.57001C66.61 2.95001 68.74 0.820007 71.36 0.820007C73.98 0.820007 76.11 2.95001 76.11 5.57001C76.11 8.19001 73.98 10.32 71.36 10.32C68.74 10.32 66.61 8.20001 66.61 5.57001Z" fill="white"/>
<path d="M77.1 5.58002C77.1 2.96002 79.23 0.830017 81.85 0.830017C84.47 0.830017 86.6 2.96002 86.6 5.58002C86.6 8.21002 84.47 10.33 81.85 10.33C79.23 10.33 77.1 8.20002 77.1 5.58002Z" fill="white"/>
<path d="M66.62 27.28C66.62 24.66 68.75 22.53 71.37 22.53C73.99 22.53 76.12 24.66 76.12 27.28C76.12 29.9 73.99 32.03 71.37 32.03C68.75 32.03 66.62 29.91 66.62 27.28Z" fill="white"/>
<path d="M77.08 27.28C77.08 24.66 79.21 22.53 81.83 22.53C84.45 22.53 86.58 24.66 86.58 27.28C86.58 29.9 84.45 32.03 81.83 32.03C79.21 32.03 77.08 29.91 77.08 27.28Z" fill="white"/>
<path d="M87.56 27.28C87.56 24.66 89.69 22.53 92.31 22.53C94.93 22.53 97.06 24.66 97.06 27.28C97.06 29.9 94.93 32.03 92.31 32.03C89.69 32.03 87.56 29.91 87.56 27.28Z" fill="white"/>
<path d="M91.32 38.49C91.32 35.87 93.45 33.74 96.07 33.74C98.69 33.74 100.82 35.87 100.82 38.49C100.82 41.11 98.69 43.24 96.07 43.24C93.45 43.24 91.32 41.11 91.32 38.49Z" fill="white"/>
<path d="M82.95 16.26C82.95 13.64 85.08 11.51 87.7 11.51C90.32 11.51 92.45 13.64 92.45 16.26C92.45 18.88 90.32 21.01 87.7 21.01C85.07 21.01 82.95 18.88 82.95 16.26Z" fill="white"/>
<path d="M52.4 38.49C52.4 35.87 54.53 33.74 57.15 33.74C59.77 33.74 61.9 35.87 61.9 38.49C61.9 41.11 59.77 43.24 57.15 43.24C54.53 43.24 52.4 41.11 52.4 38.49Z" fill="white"/>
<path d="M263.93 39.17C263.93 36.55 266.05 34.42 268.69 34.42C271.31 34.42 273.44 36.55 273.44 39.17C273.44 41.79 271.32 43.92 268.69 43.92C266.05 43.93 263.93 41.8 263.93 39.17Z" fill="white"/>
<path d="M274.49 33.09C274.49 30.46 276.62 28.34 279.25 28.34C281.87 28.34 284 30.47 284 33.09C284 35.71 281.88 37.84 279.25 37.85C276.62 37.84 274.49 35.71 274.49 33.09Z" fill="white"/>
<path d="M278.25 22.03C278.25 19.4 280.38 17.28 283 17.28C285.62 17.28 287.75 19.4 287.75 22.03C287.75 24.66 285.62 26.78 283 26.78C280.37 26.78 278.25 24.65 278.25 22.03Z" fill="white"/>
<path d="M251.99 39.17C251.99 36.54 254.11 34.42 256.74 34.42C259.36 34.42 261.49 36.54 261.49 39.17C261.49 41.79 259.36 43.92 256.74 43.92C254.12 43.93 251.99 41.8 251.99 39.17Z" fill="white"/>
<path d="M241.43 33.09C241.43 30.47 243.56 28.34 246.18 28.34C248.8 28.34 250.93 30.47 250.93 33.09C250.93 35.71 248.8 37.84 246.18 37.84C243.56 37.84 241.43 35.71 241.43 33.09Z" fill="white"/>
<path d="M237.67 22.03C237.67 19.4 239.8 17.28 242.42 17.28C245.04 17.28 247.17 19.4 247.17 22.03C247.17 24.66 245.04 26.78 242.42 26.78C239.8 26.78 237.67 24.65 237.67 22.03Z" fill="white"/>
<path d="M263.93 4.89001C263.93 2.27001 266.05 0.140015 268.69 0.140015C271.31 0.140015 273.44 2.27001 273.44 4.89001C273.44 7.51001 271.31 9.64001 268.69 9.64001C266.05 9.64001 263.93 7.51001 263.93 4.89001Z" fill="white"/>
<path d="M274.49 10.97C274.49 8.35003 276.62 6.22003 279.25 6.22003C281.87 6.22003 284 8.35003 284 10.97C284 13.59 281.88 15.72 279.25 15.72C276.62 15.72 274.49 13.59 274.49 10.97Z" fill="white"/>
<path d="M251.99 4.89001C251.99 2.27001 254.11 0.140015 256.74 0.140015C259.36 0.140015 261.49 2.27001 261.49 4.89001C261.49 7.51001 259.36 9.64001 256.74 9.64001C254.12 9.64001 251.99 7.51001 251.99 4.89001Z" fill="white"/>
<path d="M241.43 10.97C241.43 8.35003 243.56 6.22003 246.18 6.22003C248.8 6.22003 250.93 8.35003 250.93 10.97C250.93 13.59 248.8 15.72 246.18 15.72C243.56 15.72 241.43 13.59 241.43 10.97Z" fill="white"/>
<path d="M195.08 13.89C195.08 11.27 197.2 9.14001 199.83 9.14001C202.45 9.14001 204.58 11.27 204.58 13.89C204.58 16.51 202.46 18.64 199.83 18.64C197.2 18.64 195.08 16.51 195.08 13.89Z" fill="white"/>
<path d="M202.38 22.02C202.38 19.4 204.51 17.27 207.13 17.27C209.75 17.27 211.88 19.4 211.88 22.02C211.88 24.64 209.75 26.77 207.13 26.77C204.51 26.77 202.38 24.64 202.38 22.02Z" fill="white"/>
</svg>
