<?xml version="1.0" encoding="iso-8859-1"?>
<!-- Generator: Adobe Illustrator 19.0.0, SVG Export Plug-In . SVG Version: 6.00 Build 0)  -->
<svg version="1.1" id="Layer_1" xmlns="http://www.w3.org/2000/svg" xmlns:xlink="http://www.w3.org/1999/xlink" x="0px" y="0px"
	 viewBox="0 0 512 512" style="enable-background:new 0 0 512 512;" xml:space="preserve">
<path style="fill:#F95428;" d="M454.055,390.337c0,62.395-50.593,112.988-112.988,112.988c-33.925,0-64.36-14.946-85.062-38.618
	c17.396-19.87,27.938-45.889,27.938-74.37c0-43.103-11.883-67.331-27.938-80.404c33.463-27.256,85.062-6.011,85.062-6.011
	S454.055,257.397,454.055,390.337z"/>
<path style="fill:#E54728;" d="M266.532,390.337c0-63.27,25.597-85.884,52.425-92.211c-32.611-6.219-92.301-4.405-92.301,92.211
	c0,62.407,50.582,112.988,112.988,112.988c6.795,0,13.446-0.609,19.911-1.758C306.673,492.139,266.532,445.93,266.532,390.337z"/>
<path style="fill:#F95428;" d="M283.942,390.337c0,28.481-10.542,54.5-27.938,74.37c-20.702,23.673-51.137,38.618-85.062,38.618
	c-62.407,0-112.988-50.582-112.988-112.988c0-132.928,112.988-86.403,112.988-86.403s51.599-21.245,85.062,5.999
	C272.059,323.006,283.942,347.233,283.942,390.337z"/>
<path style="fill:#E54728;" d="M97.829,390.337c0-63.27,25.597-85.884,52.425-92.211c-32.611-6.219-92.301-4.405-92.301,92.211
	c0,62.407,50.582,112.988,112.988,112.988c6.795,0,13.446-0.609,19.911-1.758C137.971,492.139,97.829,445.93,97.829,390.337z"/>
<path style="fill:#9AD14B;" d="M399.706,8.669v8.903c0,77.431-62.77,140.2-140.2,140.2h-8.903v-8.903
	c0-77.431,62.77-140.2,140.2-140.2H399.706z"/>
<g>
	<path style="fill:#FFFFFF;" d="M253.451,364.357c4.624-1.247,7.36-6.005,6.114-10.627c-2.953-10.952-7.496-19.552-13.503-25.558
		c-8.008-8.008-18.939-11.901-33.418-11.901c-4.788,0-8.669,3.882-8.669,8.669c0,4.788,3.882,8.669,8.669,8.669
		c9.646,0,16.567,2.232,21.157,6.822c3.834,3.834,6.869,9.826,9.023,17.812c1.043,3.868,4.543,6.414,8.365,6.414
		C251.935,364.658,252.695,364.561,253.451,364.357z"/>
	<path style="fill:#FFFFFF;" d="M145.801,317.866c-5.736-1.059-11.306-1.594-16.554-1.594c-4.788,0-8.669,3.882-8.669,8.669
		c0,4.788,3.881,8.669,8.669,8.669c4.196,0,8.707,0.439,13.408,1.306c0.532,0.098,1.06,0.146,1.582,0.146
		c4.1,0,7.744-2.922,8.515-7.098C153.623,323.254,150.509,318.734,145.801,317.866z"/>
	<path style="fill:#FFFFFF;" d="M427.003,364.357c4.622-1.247,7.358-6.005,6.112-10.627c-2.953-10.953-7.496-19.552-13.503-25.558
		c-8.008-8.008-18.939-11.901-33.418-11.901c-4.789,0-8.669,3.882-8.669,8.669c0,4.788,3.88,8.669,8.669,8.669
		c9.647,0,16.567,2.232,21.157,6.822c3.834,3.834,6.869,9.826,9.024,17.812c1.043,3.868,4.543,6.414,8.364,6.414
		C425.487,364.658,426.246,364.561,427.003,364.357z"/>
	<path style="fill:#FFFFFF;" d="M319.354,317.866c-5.736-1.059-11.305-1.594-16.554-1.594c-4.789,0-8.669,3.882-8.669,8.669
		c0,4.788,3.88,8.669,8.669,8.669c4.197,0,8.707,0.439,13.41,1.306c0.532,0.098,1.06,0.146,1.582,0.146
		c4.1,0,7.744-2.922,8.515-7.098C327.175,323.254,324.062,318.734,319.354,317.866z"/>
</g>
<path style="fill:#333333;" d="M426.68,299.574c-28.37-18.998-64.542-11.413-80.623-6.532
	c-14.935-36.393-35.793-68.576-56.876-95.239c-0.336-0.539-0.729-1.03-1.167-1.475c-8.734-10.958-17.482-20.96-25.847-29.921
	c80.863-1.426,146.208-67.638,146.208-148.835V8.669c0-4.788-3.88-8.669-8.669-8.669h-8.902c-81.1,0-147.251,65.187-148.833,145.915
	c-33.108-31.849-59.667-49.554-60.838-50.329c-3.995-2.644-9.372-1.548-12.014,2.445c-2.642,3.994-1.548,9.372,2.445,12.014
	c0.747,0.494,48.936,32.823,95.182,87.732c-29.063,10.011-55.411,29.569-76.821,57.174c-11.962,15.424-19.655,29.773-23.673,38.186
	c-15.928-4.877-52.383-12.681-80.933,6.44c-23.912,16.014-36.036,46.549-36.036,90.761C49.282,457.423,103.86,512,170.944,512
	c33.055,0,63.067-13.257,85.016-34.724C278.609,499.447,309.124,512,341.06,512c67.082,0,121.658-54.575,121.658-121.658
	C462.718,346.127,450.593,315.589,426.68,299.574z M259.272,148.87c0-72.526,59.005-131.531,131.531-131.531h0.232v0.233
	c0,72.526-59.005,131.531-131.531,131.531h-0.232V148.87z M278.464,212.258c17.789,22.913,34.643,49.147,47.62,78.16
	c-18.223-4.062-46.73-6.518-70.076,8.804c-22.723-14.887-50.303-12.975-68.558-9.127
	C200.602,266.819,229.702,226.287,278.464,212.258z M170.945,494.662c-57.524,0-104.324-46.8-104.324-104.324
	c0-38.027,9.516-63.702,28.285-76.313c10.478-7.042,22.795-9.298,34.287-9.298c20.27,0,37.969,7.027,38.457,7.223
	c1.448,0.595,3.016,0.771,4.54,0.55c0.028-0.003,0.055-0.008,0.083-0.013c0.672-0.104,1.334-0.277,1.972-0.54
	c0.109-0.045,10.968-4.467,25.693-6.383c13.147-1.708,31.971-1.637,46.985,8.42c18.809,12.596,28.346,38.285,28.346,76.354
	C275.269,447.862,228.47,494.662,170.945,494.662z M341.06,494.662c-27.67,0-54.092-10.994-73.575-30.378
	c15.746-20.509,25.122-46.151,25.122-73.946c0-35.162-7.679-61.665-22.849-79.101c28.822-14.939,67.584,0.537,68,0.707
	c2.106,0.867,4.48,0.867,6.589,0.005c0.435-0.177,43.673-17.461,72.745,2.073c18.769,12.612,28.287,38.289,28.287,76.32
	C445.38,447.864,398.582,494.662,341.06,494.662z"/>
<g>
	<circle style="fill:#FFFFFF;" cx="255.626" cy="382.242" r="8.669"/>
	<circle style="fill:#FFFFFF;" cx="429.172" cy="382.242" r="8.669"/>
</g>
<g>
</g>
<g>
</g>
<g>
</g>
<g>
</g>
<g>
</g>
<g>
</g>
<g>
</g>
<g>
</g>
<g>
</g>
<g>
</g>
<g>
</g>
<g>
</g>
<g>
</g>
<g>
</g>
<g>
</g>
</svg>
