<?xml version="1.0" encoding="iso-8859-1"?>
<!-- Generator: Adobe Illustrator 19.0.0, SVG Export Plug-In . SVG Version: 6.00 Build 0)  -->
<svg version="1.1" id="Layer_1" xmlns="http://www.w3.org/2000/svg" xmlns:xlink="http://www.w3.org/1999/xlink" x="0px" y="0px"
	 viewBox="0 0 512 512" style="enable-background:new 0 0 512 512;" xml:space="preserve">
<path style="fill:#E09B2D;" d="M432.1,255.999c0-97.261-78.833-176.108-176.094-176.108s-176.11,78.846-176.11,176.108
	s78.847,176.108,176.108,176.108S432.1,353.261,432.1,255.999z"/>
<path style="fill:#F7B239;" d="M459.759,195.23c5.743,19.255,8.817,39.655,8.817,60.769s-3.074,41.514-8.817,60.769l-0.036-0.012
	l-36.032-14.93l-16.706,40.346l36.032,14.918l0.024,0.012c-19.672,36.318-49.604,66.262-85.934,85.934l-0.012-0.024l-14.93-36.032
	l-40.334,16.706l14.93,36.032l0.012,0.048c-19.255,5.743-39.655,8.817-60.769,8.817s-41.514-3.074-60.769-8.817l0.012-0.048
	l14.93-36.032l-40.346-16.706l-14.918,36.032l-0.024,0.036c-36.318-19.684-66.25-49.616-85.934-85.934l0.036-0.024l36.032-14.918
	l-16.706-40.346l-36.032,14.93l-0.048,0.012c-5.743-19.255-8.817-39.655-8.817-60.769s3.074-41.514,8.817-60.769l0.048,0.012
	l36.032,14.93l16.706-40.334l-36.032-14.93l-0.036-0.024c19.684-36.318,49.628-66.25,85.946-85.923l0.012,0.024l14.918,36.032
	l40.346-16.706l-14.93-36.032l-0.012-0.036c19.255-5.743,39.655-8.817,60.769-8.817s41.514,3.074,60.769,8.817l-0.012,0.036
	l-14.93,36.032l40.334,16.706l14.93-36.032l0.012-0.024c36.33,19.672,66.262,49.616,85.934,85.934l-0.024,0.012l-36.032,14.93
	l16.705,40.334l36.032-14.93L459.759,195.23z M400.372,255.999c0-79.738-64.63-144.38-144.368-144.38s-144.38,64.641-144.38,144.38
	s64.642,144.38,144.38,144.38S400.372,335.738,400.372,255.999z"/>
<g>
	<path style="fill:#B27214;" d="M459.759,195.23l-0.036,0.012l-36.032,14.93l-16.706-40.334l36.032-14.93l0.024-0.012
		C449.929,167.61,455.565,181.111,459.759,195.23z"/>
	<path style="fill:#B27214;" d="M459.723,316.756l0.036,0.012c-4.194,14.12-9.83,27.62-16.717,40.334l-0.024-0.012l-36.032-14.918
		l16.706-40.346L459.723,316.756z"/>
</g>
<path style="fill:#E29924;" d="M256.004,8.932c136.444,0,247.056,110.623,247.056,247.068
	c0,136.456-110.611,247.068-247.056,247.068c-136.456,0-247.068-110.611-247.068-247.068C8.937,119.555,119.548,8.932,256.004,8.932
	z M468.576,255.999c0-21.114-3.074-41.514-8.817-60.769c-4.194-14.12-9.83-27.62-16.717-40.334
	c-19.672-36.318-49.604-66.262-85.934-85.934c-12.714-6.887-26.214-12.511-40.334-16.717c-19.255-5.743-39.655-8.817-60.769-8.817
	s-41.514,3.074-60.769,8.817c-14.12,4.194-27.62,9.83-40.334,16.717c-36.318,19.672-66.262,49.604-85.946,85.923
	c-6.887,12.714-12.511,26.226-16.717,40.346c-5.743,19.255-8.817,39.655-8.817,60.769s3.074,41.514,8.817,60.769
	c4.206,14.12,9.83,27.632,16.717,40.346c19.684,36.318,49.616,66.25,85.934,85.934c12.726,6.887,26.226,12.511,40.346,16.717
	c19.255,5.743,39.655,8.817,60.769,8.817s41.514-3.074,60.769-8.817c14.12-4.206,27.62-9.83,40.334-16.729
	c36.33-19.672,66.262-49.616,85.934-85.934c6.887-12.714,12.523-26.214,16.717-40.334
	C465.502,297.513,468.576,277.114,468.576,255.999z"/>
<g>
	<path style="fill:#B27214;" d="M357.095,443.013l0.012,0.024c-12.714,6.899-26.214,12.523-40.334,16.729l-0.012-0.048
		l-14.93-36.032l40.334-16.706L357.095,443.013z"/>
	<path style="fill:#B27214;" d="M357.107,68.962l-0.012,0.024l-14.93,36.032l-40.334-16.706l14.93-36.032l0.012-0.036
		C330.893,56.451,344.393,62.075,357.107,68.962z"/>
	<path style="fill:#B27214;" d="M195.247,52.28l14.93,36.032l-40.346,16.706l-14.918-36.032l-0.012-0.024
		c12.714-6.887,26.214-12.523,40.334-16.717L195.247,52.28z"/>
	<path style="fill:#B27214;" d="M210.177,423.686l-14.93,36.032l-0.012,0.048c-14.12-4.206-27.62-9.83-40.346-16.717l0.024-0.036
		l14.918-36.032L210.177,423.686z"/>
	<path style="fill:#B27214;" d="M105.023,169.839l-16.706,40.334l-36.032-14.93l-0.048-0.012c4.206-14.12,9.83-27.632,16.717-40.346
		l0.036,0.024L105.023,169.839z"/>
	<path style="fill:#B27214;" d="M88.318,301.826l16.706,40.346L68.991,357.09l-0.036,0.024
		c-6.887-12.714-12.511-26.226-16.717-40.346l0.048-0.012L88.318,301.826z"/>
</g>
<path style="fill:#FFFFFF;" d="M370.583,264.936c-4.937,0-8.937-4.001-8.937-8.937c0-58.258-47.39-105.655-105.643-105.655
	c-4.935,0-8.937-4.001-8.937-8.937s4.001-8.937,8.937-8.937c68.107,0,123.516,55.414,123.516,123.528
	C379.52,260.935,375.519,264.936,370.583,264.936z"/>
<g>
	<path style="fill:#333333;" d="M279.493,223.565c0,4.935,4,8.937,8.937,8.937s8.937-4.001,8.937-8.937
		c0-19.744-13.907-36.291-32.438-40.385v-9.698c0-4.935-4-8.937-8.937-8.937c-4.935,0-8.937,4.001-8.937,8.937v9.702
		c-18.524,4.1-32.424,20.644-32.424,40.383s13.901,36.283,32.424,40.383v46.195c-8.53-3.526-14.551-11.927-14.551-21.716
		c0-4.935-4.001-8.937-8.937-8.937s-8.937,4.001-8.937,8.937c0,19.739,13.901,36.283,32.424,40.383v9.708
		c0,4.935,4.001,8.937,8.937,8.937c4.937,0,8.937-4.001,8.937-8.937v-9.705c18.53-4.095,32.438-20.642,32.438-40.386
		c0-19.744-13.907-36.291-32.438-40.386v-46.196C273.466,205.368,279.493,213.772,279.493,223.565z M232.506,223.565
		c0-9.789,6.021-18.19,14.551-21.716v43.432C238.527,241.756,232.506,233.354,232.506,223.565z M279.493,288.427
		c0,9.793-6.027,18.199-14.564,21.721v-43.441C273.466,270.23,279.493,278.634,279.493,288.427z"/>
	<path style="fill:#333333;" d="M255.999,102.689c-84.537,0-153.312,68.775-153.312,153.312s68.775,153.312,153.312,153.312
		s153.313-68.775,153.313-153.312S340.536,102.689,255.999,102.689z M255.999,391.439c-74.681,0-135.439-60.757-135.439-135.439
		s60.757-135.439,135.439-135.439s135.44,60.757,135.44,135.439C391.439,330.681,330.681,391.439,255.999,391.439z"/>
	<path style="fill:#333333;" d="M255.999,34.486c-122.143,0-221.515,99.372-221.515,221.515
		c0,122.144,99.37,221.515,221.515,221.515s221.516-99.372,221.516-221.515C477.515,133.856,378.144,34.486,255.999,34.486z
		 M448.705,190.135l-20.179,8.359l-9.868-23.825l20.143-8.343C442.583,174.005,445.9,181.952,448.705,190.135z M321.867,63.296
		c8.184,2.805,16.131,6.123,23.81,9.905l-8.343,20.142l-23.825-9.868L321.867,63.296z M198.498,83.475l-23.825,9.868l-8.344-20.146
		c7.68-3.782,15.626-7.099,23.81-9.904L198.498,83.475z M73.2,166.323l20.147,8.346l-9.868,23.825l-20.184-8.36
		C66.1,181.949,69.418,174.003,73.2,166.323z M63.295,321.866l20.184-8.36l9.868,23.825l-20.148,8.346
		C69.417,337.996,66.1,330.049,63.295,321.866z M190.138,448.706c-8.184-2.805-16.131-6.122-23.81-9.904l8.346-20.147l23.825,9.868
		L190.138,448.706z M313.508,428.524l23.825-9.868l8.344,20.144c-7.68,3.782-15.626,7.1-23.81,9.905L313.508,428.524z
		 M361.444,430.161l-11.018-26.601c-0.907-2.19-2.646-3.93-4.836-4.836c-2.19-0.907-4.649-0.907-6.839,0l-40.337,16.708
		c-4.56,1.889-6.726,7.116-4.836,11.676l11.041,26.655c-15.587,3.832-31.867,5.88-48.618,5.88c-16.75,0-33.027-2.047-48.61-5.879
		l11.041-26.656c1.889-4.56-0.276-9.787-4.837-11.676l-40.337-16.708c-2.19-0.907-4.649-0.907-6.839,0s-3.93,2.646-4.837,4.836
		l-11.019,26.605c-28.049-17.045-51.676-40.671-68.721-68.72l26.605-11.021c4.56-1.889,6.725-7.116,4.836-11.676L96.573,298.41
		c-1.889-4.56-7.117-6.725-11.676-4.836l-26.657,11.042c-3.832-15.584-5.879-31.863-5.879-48.614c0-16.751,2.048-33.03,5.88-48.615
		l26.657,11.042c1.095,0.454,2.258,0.68,3.42,0.68s2.325-0.226,3.42-0.68c2.19-0.907,3.93-2.646,4.836-4.837l16.708-40.337
		c0.907-2.19,0.907-4.651,0-6.839c-0.907-2.189-2.646-3.93-4.836-4.837l-26.604-11.019c17.045-28.049,40.672-51.675,68.721-68.719
		l11.019,26.603c0.907,2.19,2.646,3.93,4.837,4.836c1.095,0.454,2.258,0.68,3.42,0.68s2.325-0.226,3.42-0.68l40.337-16.708
		c4.56-1.889,6.725-7.116,4.837-11.676L207.391,58.24c15.583-3.831,31.861-5.878,48.61-5.878c16.752,0,33.031,2.048,48.618,5.88
		l-11.04,26.653c-1.89,4.56,0.275,9.787,4.837,11.676l40.337,16.708c1.095,0.454,2.258,0.68,3.42,0.68
		c1.162,0,2.325-0.226,3.42-0.68c2.19-0.907,3.93-2.646,4.836-4.836l11.018-26.6c28.048,17.045,51.674,40.671,68.718,68.719
		l-26.599,11.018c-2.19,0.907-3.93,2.646-4.836,4.837c-0.908,2.19-0.908,4.651,0,6.839l16.708,40.337
		c0.907,2.19,2.646,3.93,4.836,4.837c1.095,0.454,2.258,0.68,3.42,0.68s2.325-0.226,3.42-0.68l26.653-11.04
		c3.832,15.584,5.879,31.863,5.879,48.614c0,16.75-2.047,33.027-5.879,48.612l-26.653-11.04c-2.19-0.908-4.649-0.907-6.839,0
		s-3.93,2.646-4.836,4.837L398.73,338.75c-1.89,4.56,0.275,9.787,4.836,11.676l26.6,11.018
		C413.118,389.49,389.492,413.116,361.444,430.161z M448.706,321.863c-2.805,8.184-6.122,16.131-9.905,23.81l-20.143-8.343
		l9.868-23.825L448.706,321.863z"/>
	<path style="fill:#333333;" d="M437.019,74.981C388.668,26.629,324.379,0,255.999,0C187.619,0,123.332,26.629,74.981,74.981
		C26.629,123.334,0,187.62,0,256.001s26.629,132.667,74.981,181.019S187.62,512,255.999,512s132.667-26.629,181.019-74.981
		C485.371,388.668,512,324.38,512,256.001S485.372,123.334,437.019,74.981z M255.999,494.127
		c-131.304,0-238.126-106.824-238.126-238.126S124.696,17.873,255.999,17.873s238.127,106.824,238.127,238.126
		S387.303,494.127,255.999,494.127z"/>
	<path style="fill:#333333;" d="M255.999,91.567c4.935,0,8.937-4.001,8.937-8.937V69.523c0-4.935-4-8.937-8.937-8.937
		c-4.937,0-8.937,4.001-8.937,8.937V82.63C247.063,87.566,251.064,91.567,255.999,91.567z"/>
	<path style="fill:#333333;" d="M255.999,420.434c-4.935,0-8.937,4.001-8.937,8.937v13.107c0,4.935,4.001,8.937,8.937,8.937
		s8.937-4.001,8.937-8.937v-13.107C264.936,424.435,260.935,420.434,255.999,420.434z"/>
	<path style="fill:#333333;" d="M378.591,142.346c2.287,0,4.574-0.872,6.319-2.618l9.268-9.268c3.491-3.49,3.491-9.149,0.001-12.639
		c-3.49-3.489-9.149-3.49-12.638,0l-9.268,9.268c-3.491,3.49-3.491,9.149-0.001,12.639
		C374.017,141.473,376.304,142.346,378.591,142.346z"/>
	<path style="fill:#333333;" d="M127.089,372.272l-9.268,9.268c-3.49,3.49-3.49,9.148,0,12.638c1.744,1.746,4.032,2.618,6.319,2.618
		c2.287,0,4.574-0.872,6.319-2.618l9.268-9.268c3.49-3.49,3.49-9.148,0-12.638C136.238,368.782,130.579,368.782,127.089,372.272z"/>
	<path style="fill:#333333;" d="M429.371,264.937h13.107c4.937,0,8.937-4.001,8.937-8.937s-4-8.937-8.937-8.937h-13.107
		c-4.937,0-8.937,4.001-8.937,8.937S424.434,264.937,429.371,264.937z"/>
	<path style="fill:#333333;" d="M82.629,247.064H69.522c-4.935,0-8.937,4.001-8.937,8.937s4.001,8.937,8.937,8.937h13.107
		c4.935,0,8.937-4.001,8.937-8.937S87.565,247.064,82.629,247.064z"/>
	<path style="fill:#333333;" d="M384.911,372.272c-3.491-3.49-9.149-3.49-12.639,0c-3.49,3.49-3.49,9.148,0,12.638l9.268,9.268
		c1.746,1.746,4.033,2.618,6.32,2.618s4.574-0.872,6.32-2.618c3.49-3.49,3.49-9.148,0-12.638L384.911,372.272z"/>
	<path style="fill:#333333;" d="M127.089,139.728c1.744,1.744,4.032,2.618,6.319,2.618c2.287,0,4.574-0.872,6.319-2.618
		c3.49-3.49,3.49-9.149,0-12.639l-9.268-9.268c-3.49-3.49-9.149-3.49-12.638,0c-3.49,3.49-3.49,9.149,0,12.639L127.089,139.728z"/>
</g>
<g>
</g>
<g>
</g>
<g>
</g>
<g>
</g>
<g>
</g>
<g>
</g>
<g>
</g>
<g>
</g>
<g>
</g>
<g>
</g>
<g>
</g>
<g>
</g>
<g>
</g>
<g>
</g>
<g>
</g>
</svg>
