<?xml version="1.0" encoding="iso-8859-1"?>
<!-- Generator: Adobe Illustrator 19.0.0, SVG Export Plug-In . SVG Version: 6.00 Build 0)  -->
<svg version="1.1" id="Layer_1" xmlns="http://www.w3.org/2000/svg" xmlns:xlink="http://www.w3.org/1999/xlink" x="0px" y="0px"
	 viewBox="0 0 512 512" style="enable-background:new 0 0 512 512;" xml:space="preserve">
<path style="fill:#9AD14B;" d="M425.846,86.154v-1.415c0-41.399-33.561-74.961-74.961-74.961l0,0
	c-41.399,0-74.961,33.561-74.961,74.961v1.415v78.169c0,11.005-8.92,19.925-19.925,19.925l0,0c-11.005,0-19.925-8.92-19.925-19.925
	V86.154v-1.415c0-41.399-33.561-74.961-74.961-74.961l0,0c-41.399,0-74.961,33.561-74.961,74.961v1.415h-1.415
	c-41.399,0-74.961,33.561-74.961,74.961l0,0c0,41.399,33.561,74.961,74.961,74.961h1.415h78.169c11.005,0,19.925,8.92,19.925,19.925
	l0,0c0,11.005-8.92,19.925-19.925,19.925H86.153h-1.415c-41.399,0-74.961,33.561-74.961,74.961l0,0
	c0,41.399,33.561,74.961,74.961,74.961h1.415v1.415c0,41.399,33.561,74.961,74.961,74.961l0,0c41.399,0,74.961-33.561,74.961-74.961
	v-1.414v-78.169c0-11.005,8.92-19.925,19.925-19.925l0,0c11.005,0,19.925,8.92,19.925,19.925v78.169v1.409
	c-0.003,41.402,33.559,74.965,74.961,74.965l0,0c41.399,0,74.961-33.561,74.961-74.961v-1.415h1.415
	c41.399,0,74.961-33.561,74.961-74.961l0,0c0-41.402-33.564-74.963-74.965-74.961h-1.409h-78.169
	c-11.005,0-19.925-8.92-19.925-19.925l0,0c0-11.005,8.92-19.925,19.925-19.925h78.169h1.415c41.399,0,74.961-33.561,74.961-74.961
	l0,0c0-41.399-33.561-74.961-74.961-74.961h-1.416V86.154z"/>
<path style="fill:#333333;" d="M350.886,511.999c-22.635,0-43.917-8.816-59.921-24.821c-16.004-16.006-24.819-37.287-24.817-59.923
	v-79.579c0-5.596-4.551-10.147-10.147-10.147c-5.596,0-10.147,4.553-10.147,10.147v79.582c0,46.725-38.014,84.739-84.739,84.739
	c-44.03,0-80.324-33.758-84.364-76.749C33.758,431.211,0,394.916,0,350.885c0-46.725,38.014-84.739,84.739-84.739h79.582
	c5.596,0,10.147-4.553,10.147-10.147s-4.553-10.147-10.147-10.147H84.739C38.014,245.853,0,207.84,0,161.115
	c0-44.03,33.758-80.326,76.749-84.366c4.04-42.991,40.334-76.748,84.364-76.748c46.725,0,84.739,38.014,84.739,84.739v79.584
	c0,5.596,4.551,10.147,10.147,10.147c5.596,0,10.148-4.553,10.148-10.147V84.739c0-46.725,38.014-84.739,84.739-84.739
	c44.029,0,80.324,33.757,84.366,76.748C478.243,80.789,512,117.083,512,161.113c0,46.725-38.014,84.739-84.739,84.739h-79.584
	c-5.596,0-10.147,4.553-10.147,10.147c0,5.594,4.551,10.147,10.147,10.147h79.579c22.635-0.001,43.917,8.812,59.922,24.817
	C503.184,306.967,512,328.249,512,350.884c0,44.03-33.758,80.324-76.748,84.364C431.21,478.242,394.915,511.999,350.886,511.999z
	 M255.999,317.976c16.379,0,29.702,13.325,29.702,29.702v79.579c-0.001,17.412,6.778,33.782,19.09,46.094
	c12.312,12.312,28.682,19.093,46.093,19.093c35.942,0,65.183-29.241,65.183-65.183v-1.415c0-5.4,4.377-9.778,9.778-9.778h1.415
	c35.942,0,65.183-29.241,65.183-65.183c0-17.411-6.781-33.782-19.094-46.093c-12.314-12.311-28.682-19.092-46.094-19.09h-79.579
	c-16.379,0-29.702-13.325-29.702-29.702s13.325-29.702,29.702-29.702h79.584c35.942,0,65.183-29.241,65.183-65.183
	S463.202,95.93,427.26,95.93h-1.415c-5.401,0-9.778-4.378-9.778-9.778v-1.415c0-35.942-29.241-65.183-65.183-65.183
	s-65.183,29.241-65.183,65.183v79.584c0,16.379-13.325,29.702-29.702,29.702s-29.702-13.325-29.702-29.702V84.739
	c0-35.942-29.241-65.183-65.183-65.183S95.931,48.797,95.931,84.739v1.415c0,5.4-4.378,9.778-9.778,9.778h-1.415
	c-35.942,0-65.183,29.241-65.183,65.183s29.241,65.183,65.183,65.183h79.582c16.379,0,29.702,13.325,29.702,29.702
	c0,16.377-13.325,29.702-29.702,29.702H84.739c-35.942,0-65.183,29.241-65.183,65.183s29.241,65.183,65.183,65.183h1.415
	c5.4,0,9.778,4.378,9.778,9.778v1.415c0,35.942,29.241,65.183,65.183,65.183s65.183-29.241,65.183-65.183v-79.582
	C226.297,331.3,239.622,317.976,255.999,317.976z"/>
<g>
	<path style="fill:#FFFFFF;" d="M472.237,170.892c-5.401,0-9.778-4.378-9.778-9.778c0-19.408-15.789-35.198-35.198-35.198
		c-5.401,0-9.778-4.378-9.778-9.778c0-5.4,4.377-9.778,9.778-9.778c30.191,0,54.753,24.562,54.753,54.753
		C482.015,166.515,477.637,170.892,472.237,170.892z"/>
	<path style="fill:#FFFFFF;" d="M395.861,94.517c-5.401,0-9.778-4.378-9.778-9.778c0-19.408-15.791-35.198-35.198-35.198
		c-5.401,0-9.778-4.378-9.778-9.778s4.377-9.778,9.778-9.778c30.191,0,54.753,24.562,54.753,54.753
		C405.639,90.139,401.261,94.517,395.861,94.517z"/>
	<path style="fill:#FFFFFF;" d="M206.089,94.517c-5.4,0-9.778-4.378-9.778-9.778c0-19.408-15.789-35.198-35.198-35.198
		c-5.4,0-9.778-4.378-9.778-9.778s4.378-9.778,9.778-9.778c30.191,0,54.753,24.562,54.753,54.753
		C215.867,90.139,211.489,94.517,206.089,94.517z"/>
	<path style="fill:#FFFFFF;" d="M472.237,360.663c-5.401,0-9.778-4.378-9.778-9.778c0-9.402-3.662-18.242-10.31-24.889
		c-6.649-6.649-15.488-10.31-24.893-10.308c-5.4,0-9.778-4.377-9.778-9.778s4.377-9.778,9.778-9.778
		c14.628,0,28.379,5.695,38.72,16.036c10.342,10.341,16.038,24.091,16.038,38.718C482.015,356.285,477.637,360.663,472.237,360.663z
		"/>
</g>
<g>
	<path style="fill:#333333;" d="M380.655,391.659c-2.51,0-5.018-0.96-6.928-2.879L124.416,138.433
		c-3.811-3.826-3.798-10.018,0.029-13.828c3.826-3.809,10.016-3.798,13.828,0.029l249.31,250.348
		c3.811,3.826,3.798,10.018-0.029,13.828C385.647,390.71,383.15,391.659,380.655,391.659z"/>
	<path style="fill:#333333;" d="M130.825,391.14c-2.51,0-5.018-0.96-6.928-2.879c-3.811-3.826-3.798-10.018,0.029-13.828
		l250.349-249.31c3.825-3.811,10.016-3.798,13.827,0.029c3.811,3.826,3.798,10.018-0.029,13.828L137.725,388.291
		C135.817,390.191,133.32,391.14,130.825,391.14z"/>
</g>
<g>
</g>
<g>
</g>
<g>
</g>
<g>
</g>
<g>
</g>
<g>
</g>
<g>
</g>
<g>
</g>
<g>
</g>
<g>
</g>
<g>
</g>
<g>
</g>
<g>
</g>
<g>
</g>
<g>
</g>
</svg>
