<svg width="116" height="116" viewBox="0 0 116 116" fill="none" xmlns="http://www.w3.org/2000/svg">
<path d="M64.1203 115.635C35.6763 115.635 12.6143 89.7411 12.6143 57.8176C12.6143 25.894 35.6763 0 64.1203 0C92.5642 0 115.626 25.894 115.626 57.8176C115.626 89.7411 92.5642 115.635 64.1203 115.635Z" fill="#FFD949"/>
<path d="M12.6137 57.8176C12.6137 28.2893 32.3542 3.94398 57.8129 0.454281C55.7238 0.159942 53.6165 0.00815196 51.506 0C23.0621 0 0 25.894 0 57.8176C0 89.7411 23.1252 115.635 51.506 115.635C53.6165 115.627 55.7238 115.475 57.8129 115.181C32.3542 111.691 12.6137 87.3458 12.6137 57.8176Z" fill="#F4BF1A"/>
<path d="M64.2911 104.319H64.1229C62.6546 104.321 61.1875 104.239 59.7291 104.071C59.1716 104.006 58.6634 103.725 58.3165 103.291C57.9695 102.858 57.8122 102.306 57.8791 101.759C57.946 101.211 58.2317 100.712 58.6733 100.371C59.1148 100.03 59.6761 99.8759 60.2337 99.9416C61.5314 100.093 62.8371 100.169 64.1439 100.169C64.7015 100.169 65.2362 100.386 65.6305 100.774C66.0247 101.161 66.2462 101.686 66.2462 102.234C66.2462 102.781 66.0247 103.307 65.6305 103.694C65.2362 104.081 64.7015 104.299 64.1439 104.299L64.2911 104.319ZM76.3793 102.068C75.8832 102.073 75.4016 101.905 75.0195 101.594C74.6375 101.283 74.3797 100.85 74.2916 100.37C74.2035 99.8908 74.2909 99.3962 74.5383 98.9738C74.7857 98.5515 75.1771 98.2287 75.6434 98.0626C76.8711 97.6069 78.0714 97.083 79.2384 96.4932C79.4849 96.3602 79.7562 96.2772 80.036 96.249C80.3159 96.2209 80.5986 96.2482 80.8675 96.3293C81.1365 96.4104 81.3861 96.5437 81.6016 96.7213C81.8171 96.8989 81.9941 97.1172 82.1221 97.3632C82.2502 97.6093 82.3267 97.878 82.347 98.1536C82.3674 98.4292 82.3313 98.706 82.2408 98.9676C82.1502 99.2292 82.0072 99.4703 81.8201 99.6767C81.633 99.883 81.4056 100.05 81.1514 100.169C79.8476 100.827 78.507 101.413 77.1361 101.924C76.9003 102.008 76.6511 102.05 76.4003 102.048L76.3793 102.068ZM47.9353 100.479C47.6062 100.477 47.2822 100.399 46.9893 100.251C45.6838 99.6312 44.4136 98.9418 43.1841 98.1865C42.9486 98.0395 42.7452 97.848 42.5858 97.6231C42.4264 97.3982 42.3142 97.1443 42.2557 96.8764C42.1972 96.6084 42.1936 96.3317 42.2451 96.0623C42.2966 95.793 42.4022 95.5364 42.5556 95.3076C42.7091 95.0787 42.9074 94.8821 43.139 94.7293C43.3706 94.5765 43.6309 94.4705 43.9047 94.4175C44.1784 94.3645 44.4601 94.3655 44.7335 94.4206C45.0068 94.4756 45.2662 94.5835 45.4967 94.7381C46.5946 95.4463 47.7315 96.0943 48.9024 96.6791C49.3213 96.8899 49.6562 97.2327 49.8532 97.6527C50.0502 98.0726 50.098 98.5453 49.989 98.9952C49.88 99.445 49.6204 99.8458 49.2518 100.133C48.8833 100.421 48.4271 100.579 47.9563 100.582L47.9353 100.479ZM90.2333 93.2307C89.8201 93.229 89.4165 93.1077 89.073 92.882C88.7295 92.6563 88.4614 92.3361 88.3021 91.9616C88.1429 91.587 88.0995 91.1746 88.1775 90.776C88.2555 90.3774 88.4514 90.0102 88.7407 89.7203C89.6965 88.7688 90.6017 87.7694 91.4527 86.7262C91.6211 86.5005 91.8345 86.3109 92.0799 86.1687C92.3253 86.0266 92.5975 85.9349 92.8801 85.8993C93.1627 85.8636 93.4497 85.8848 93.7237 85.9614C93.9976 86.038 94.2529 86.1686 94.474 86.3451C94.695 86.5216 94.8773 86.7404 95.0096 86.9882C95.1419 87.236 95.2216 87.5076 95.2438 87.7866C95.266 88.0655 95.2302 88.346 95.1386 88.611C95.0471 88.876 94.9017 89.1199 94.7112 89.328C93.7862 90.443 92.7981 91.5168 91.789 92.5286C91.5943 92.7237 91.3621 92.8789 91.1059 92.9853C90.8497 93.0916 90.5745 93.1469 90.2964 93.1481L90.2333 93.2307ZM35.2375 90.2778C34.927 90.2758 34.6208 90.2063 34.3409 90.0742C34.061 89.9421 33.8144 89.7507 33.6187 89.5138C32.7148 88.4194 31.8318 87.2631 31.0119 86.0654C30.8573 85.8403 30.7493 85.5876 30.6942 85.3215C30.6391 85.0555 30.6378 84.7814 30.6905 84.5148C30.7432 84.2483 30.8489 83.9946 31.0014 83.7682C31.1539 83.5417 31.3504 83.347 31.5795 83.1952C31.8087 83.0433 32.066 82.9373 32.3369 82.8831C32.6077 82.829 32.8868 82.8277 33.1582 82.8795C33.4295 82.9313 33.6878 83.035 33.9183 83.1849C34.1489 83.3347 34.3471 83.5276 34.5017 83.7527C35.2375 84.8265 36.0364 85.8176 36.8773 86.8707C37.1268 87.1728 37.2844 87.538 37.3318 87.9242C37.3793 88.3104 37.3147 88.7019 37.1456 89.0537C36.9764 89.4054 36.7095 89.703 36.3757 89.9123C36.0418 90.1216 35.6546 90.234 35.2585 90.2365L35.2375 90.2778ZM99.6095 79.6229C99.2598 79.6241 98.9154 79.5396 98.6073 79.377C98.2993 79.2145 98.0373 78.979 97.8453 78.692C97.6532 78.4049 97.5371 78.0754 97.5075 77.7331C97.4778 77.3909 97.5355 77.0468 97.6754 76.732C98.201 75.555 98.6845 74.3161 99.105 73.0771C99.1933 72.8195 99.3325 72.5815 99.5144 72.3767C99.6964 72.1719 99.9177 72.0043 100.166 71.8835C100.414 71.7627 100.683 71.6911 100.959 71.6727C101.235 71.6543 101.513 71.6894 101.775 71.7762C102.037 71.863 102.279 71.9997 102.488 72.1784C102.696 72.3572 102.867 72.5745 102.99 72.818C103.113 73.0615 103.186 73.3265 103.205 73.5977C103.223 73.8689 103.188 74.141 103.099 74.3987C102.637 75.7408 102.111 77.083 101.544 78.3839C101.379 78.7533 101.109 79.0674 100.765 79.2876C100.422 79.5077 100.02 79.6243 99.6095 79.6229V79.6229ZM27.2068 76.0093C26.766 76.0104 26.3361 75.8754 25.9777 75.6235C25.6193 75.3715 25.3506 75.0153 25.2096 74.6051C24.7471 73.263 24.3266 71.9001 23.9903 70.4753C23.8803 69.9526 23.9806 69.4083 24.2703 68.9566C24.56 68.505 25.0166 68.1811 25.5441 68.0529C26.0717 67.9247 26.6293 68.0021 27.1 68.269C27.5706 68.5358 27.9178 68.9713 28.0687 69.4842C28.384 70.7438 28.7625 72.024 29.2039 73.2423C29.3847 73.7598 29.349 74.3267 29.1047 74.8184C28.8603 75.3101 28.4272 75.6864 27.9005 75.8647C27.6847 75.9419 27.4574 75.9837 27.2278 75.9886L27.2068 76.0093ZM103.562 63.8056H103.394C103.117 63.7848 102.848 63.7105 102.601 63.5869C102.354 63.4634 102.134 63.2931 101.954 63.0858C101.774 62.8786 101.638 62.6384 101.553 62.3792C101.468 62.12 101.437 61.8469 101.46 61.5755C101.46 60.3159 101.607 59.0357 101.607 57.7761C101.607 57.2285 101.828 56.7032 102.222 56.316C102.617 55.9287 103.151 55.7112 103.709 55.7112C104.267 55.7112 104.801 55.9287 105.196 56.316C105.59 56.7032 105.811 57.2285 105.811 57.7761V57.8174C105.811 59.2009 105.811 60.5637 105.643 61.9472C105.601 62.4658 105.361 62.9495 104.971 63.3017C104.581 63.6539 104.07 63.8486 103.541 63.8469L103.562 63.8056ZM24.5369 59.8823C23.9793 59.8823 23.4446 59.6648 23.0503 59.2775C22.6561 58.8903 22.4346 58.365 22.4346 57.8174C22.4346 56.4133 22.4346 54.9885 22.6028 53.6876C22.6248 53.4164 22.7011 53.1522 22.8271 52.9099C22.9532 52.6677 23.1266 52.4522 23.3374 52.2758C23.5483 52.0994 23.7924 51.9655 24.0559 51.8818C24.3194 51.7981 24.5971 51.7662 24.8732 51.7879C25.1493 51.8095 25.4183 51.8844 25.6649 52.0083C25.9115 52.1321 26.1309 52.3024 26.3105 52.5095C26.4901 52.7165 26.6264 52.9563 26.7117 53.2152C26.7969 53.474 26.8294 53.7468 26.8073 54.018C26.8073 55.2982 26.6602 56.5991 26.6602 57.9C26.6602 58.4476 26.4387 58.9729 26.0444 59.3601C25.6502 59.7474 25.1154 59.9649 24.5579 59.9649L24.5369 59.8823ZM102.174 47.4928C101.697 47.5077 101.229 47.3624 100.846 47.0809C100.464 46.7994 100.191 46.3985 100.072 45.9441C99.7567 44.6846 99.3572 43.4043 98.9368 42.186C98.7788 41.6745 98.829 41.1228 99.0766 40.6468C99.3243 40.1709 99.7503 39.8078 100.265 39.634C100.779 39.4602 101.343 39.4891 101.836 39.7147C102.329 39.9404 102.714 40.3451 102.91 40.8438C103.373 42.186 103.793 43.5489 104.15 44.9736C104.293 45.4965 104.221 46.0535 103.95 46.5246C103.678 46.9958 103.23 47.3435 102.7 47.4928C102.525 47.5161 102.349 47.5161 102.174 47.4928V47.4928ZM27.1857 43.8379C26.8515 43.8388 26.5218 43.7613 26.2241 43.612C25.9264 43.4626 25.6693 43.2457 25.474 42.9792C25.2787 42.7127 25.151 42.4044 25.1013 42.0797C25.0517 41.755 25.0816 41.4233 25.1886 41.1123C25.6511 39.7701 26.1766 38.4279 26.7653 37.127C26.8657 36.8646 27.0194 36.625 27.2171 36.4228C27.4148 36.2206 27.6524 36.0601 27.9153 35.9511C28.1782 35.842 28.461 35.7866 28.7464 35.7884C29.0318 35.7901 29.3138 35.849 29.5753 35.9612C29.8368 36.0735 30.0723 36.2369 30.2674 36.4415C30.4626 36.6461 30.6132 36.8876 30.7103 37.1512C30.8073 37.4148 30.8487 37.6951 30.8319 37.9749C30.8151 38.2548 30.7404 38.5283 30.6125 38.7789C30.0869 39.9766 29.6034 41.1948 29.1619 42.4338C29.0209 42.8439 28.7522 43.2002 28.3938 43.4521C28.0354 43.7041 27.6054 43.8391 27.1647 43.8379H27.1857ZM95.447 32.7081C95.1026 32.7086 94.7634 32.626 94.4592 32.4676C94.1549 32.3091 93.8949 32.0797 93.7021 31.7995C92.9663 30.7257 92.1674 29.7346 91.3265 28.6815C91.0125 28.2561 90.8754 27.7292 90.9432 27.208C91.0109 26.6868 91.2783 26.2106 91.691 25.8763C92.1037 25.5421 92.6305 25.3749 93.1643 25.4088C93.6981 25.4428 94.1987 25.6753 94.564 26.059C95.489 27.1534 96.351 28.3098 97.1709 29.4868C97.3847 29.7976 97.5084 30.1597 97.5285 30.5343C97.5486 30.909 97.4645 31.2819 97.2851 31.613C97.1057 31.9442 96.8378 32.2211 96.5103 32.4141C96.1828 32.607 95.8079 32.7086 95.426 32.7081H95.447ZM35.1744 29.5694C34.7784 29.5668 34.3911 29.4544 34.0573 29.2452C33.7234 29.0359 33.4566 28.7382 33.2874 28.3865C33.1182 28.0348 33.0537 27.6433 33.1011 27.2571C33.1486 26.8708 33.3061 26.5057 33.5557 26.2036C34.4807 25.0885 35.4687 24.0148 36.4778 23.003C36.8709 22.6141 37.4052 22.3946 37.963 22.3927C38.5209 22.3907 39.0567 22.6065 39.4526 22.9926C39.8484 23.3787 40.072 23.9035 40.0739 24.4514C40.0759 24.9994 39.8562 25.5257 39.4631 25.9145C38.5381 26.8231 37.6551 27.7936 36.8142 28.8054C36.6186 29.0422 36.372 29.2336 36.0921 29.3657C35.8122 29.4978 35.506 29.5674 35.1955 29.5694H35.1744ZM83.7162 21.3097C83.3134 21.3087 82.9194 21.194 82.581 20.9793C81.4824 20.2784 80.3455 19.6373 79.1753 19.059C78.6679 18.829 78.2743 18.4104 78.0812 17.8954C77.888 17.3803 77.911 16.811 78.1452 16.3126C78.3793 15.8143 78.8055 15.4277 79.3298 15.238C79.8542 15.0482 80.4338 15.0708 80.9412 15.3008C82.2473 15.9199 83.5176 16.6093 84.7464 17.3657C85.1287 17.6083 85.4206 17.9662 85.5781 18.3856C85.7357 18.805 85.7504 19.2634 85.62 19.6917C85.4896 20.12 85.2213 20.4953 84.8552 20.761C84.4892 21.0267 84.0452 21.1685 83.5901 21.1652L83.7162 21.3097ZM47.8512 19.2035C47.3805 19.2008 46.9243 19.0429 46.5557 18.7553C46.1872 18.4676 45.9276 18.0667 45.8186 17.6169C45.7095 17.1671 45.7573 16.6944 45.9544 16.2744C46.1514 15.8545 46.4862 15.5116 46.9052 15.3008C48.2162 14.6481 49.5638 14.069 50.9416 13.5663C51.2034 13.4528 51.4861 13.3931 51.7723 13.3907C52.0585 13.3884 52.3422 13.4434 52.606 13.5525C52.8698 13.6616 53.1081 13.8225 53.3063 14.0252C53.5046 14.228 53.6586 14.4684 53.7589 14.7317C53.8593 14.9949 53.9038 15.2756 53.8898 15.5564C53.8759 15.8371 53.8037 16.1122 53.6777 16.3646C53.5517 16.617 53.3745 16.8415 53.1571 17.0243C52.9397 17.2071 52.6865 17.3444 52.4132 17.4277C51.1858 17.8763 49.9856 18.3933 48.8183 18.9764C48.5254 19.1238 48.2013 19.2016 47.8722 19.2035H47.8512ZM68.0752 15.5899H67.8229C66.5933 15.4742 65.358 15.426 64.1229 15.4454C63.5654 15.4454 63.0306 15.2278 62.6364 14.8406C62.2421 14.4533 62.0206 13.9281 62.0206 13.3805C62.0206 12.8328 62.2421 12.3076 62.6364 11.9204C63.0306 11.5331 63.5654 11.3156 64.1229 11.3156V11.3156C65.5281 11.3205 66.9318 11.4032 68.3275 11.5633C68.8851 11.5935 69.4076 11.8399 69.7802 12.2484C70.1527 12.657 70.3448 13.1942 70.3142 13.7418C70.2835 14.2895 70.0326 14.8027 69.6166 15.1687C69.2007 15.5346 68.6538 15.7233 68.0962 15.6932" fill="#F4BF1A"/>
<path d="M12.6137 59.8824H0C0 61.2659 0.126137 62.6494 0.252274 64.0123H12.866C12.7399 62.6357 12.6558 61.2591 12.6137 59.8824Z" fill="#DCA815"/>
<path d="M13.0976 49.5574H0.48388C0.315697 50.9202 0.18956 52.3037 0.105469 53.6872H12.7192C12.7192 52.3037 12.9294 50.9202 13.0976 49.5574Z" fill="#DCA815"/>
<path d="M13.6674 70.2075H1.05371C1.32 71.5841 1.63534 72.9607 1.99974 74.3373H14.6135C14.3191 72.9607 14.0038 71.5841 13.6674 70.2075Z" fill="#DCA815"/>
<path d="M16.7133 80.5316H4.09961C4.62518 81.9358 5.23484 83.3192 5.86553 84.6614H18.4793C17.8486 83.2848 17.2669 81.9082 16.7344 80.5316" fill="#DCA815"/>
<path d="M15.2836 39.2334H2.66988C2.27044 40.5962 1.87101 41.9591 1.55566 43.3632H14.1694C14.4847 41.9591 14.8421 40.5962 15.2416 39.2334" fill="#DCA815"/>
<path d="M19.4658 28.9082H6.85207C6.15832 30.2504 5.50661 31.6339 4.91797 33.038H17.5317C18.1343 31.6614 18.7791 30.2848 19.4658 28.9082Z" fill="#DCA815"/>
<path d="M28.0639 16.519H15.4502C14.2589 17.8957 13.1166 19.2723 12.0234 20.6489H24.6372C25.7304 19.2723 26.8726 17.8957 28.0639 16.519Z" fill="#DCA815"/>
<path d="M40.9977 6.19495H28.384C26.1793 7.41428 24.071 8.79478 22.0771 10.3248H34.6909C36.6852 8.79535 38.7934 7.41488 40.9977 6.19495" fill="#DCA815"/>
<path d="M23.1626 92.9218H10.5488C11.5299 94.2984 12.56 95.675 13.6392 97.0516H26.2529C25.1597 95.675 24.1226 94.2984 23.1415 92.9218" fill="#DCA815"/>
<path d="M19.6152 103.246C21.2883 104.734 23.0579 106.113 24.913 107.376H37.5267C35.6565 106.115 33.8727 104.736 32.1869 103.246H19.6152Z" fill="#DCA815"/>
</svg>
