<svg id="Layer_1" data-name="Layer 1" xmlns="http://www.w3.org/2000/svg" viewBox="0 0 560.04 600"><defs><style>.cls-1{fill:#feb700;}.cls-2{fill:#a88852;}</style></defs><title>danskespil_light_brown</title><path class="cls-1" d="M577.62,339.91,522.05,26.79C517.64,4.87,499.55-2.3,485.31.62L157.27,58c-9.91,2-16.06,4.92-24.7,12.4,0,0-83.19,78.79-95.4,91.25s-19.89,28.84-16.31,53L84.2,573.29c4.54,22.24,24,28.39,37.68,26.34s336.92-58.88,353.8-62.4c17.23-3.57,34.31-15.07,46.55-38.19l49.85-107.4C581.18,371.15,581.6,366.45,577.62,339.91Z" transform="translate(-19.98 0)"/><path class="cls-2" d="M401.47,67.94c-9.15,7.44-35.1,16.11-58,19.37s-34.13-.13-25-7.56,35.12-16.13,58.06-19.37S410.63,60.5,401.47,67.94Z" transform="translate(-19.98 0)"/><polygon class="cls-2" points="328.71 54.19 255.77 76.7 203.22 76.42 275.73 53.98 328.71 54.19"/><polygon class="cls-2" points="133.17 71.39 205.25 58.7 183.22 81.7 110.07 93.47 133.17 71.39"/><polygon class="cls-2" points="103 562.13 88.99 482.66 168.48 468.6 182.5 548.12 103 562.13"/><polygon class="cls-2" points="166.83 445.34 114.92 383.49 142.35 307.81 194.33 369.66 166.83 445.34"/><path class="cls-2" d="M261.4,317a46,46,0,1,1,37.36-53.31A46,46,0,0,1,261.4,317Z" transform="translate(-19.98 0)"/><polygon class="cls-2" points="344.65 262.18 282.25 188.03 377.62 171.22 344.65 262.18"/><polygon class="cls-2" points="378.7 108.74 307.67 110.09 399.23 82.53 378.7 108.74"/><polygon class="cls-2" points="492.39 62.2 496.14 145.06 473.64 88.81 492.39 62.2"/><path class="cls-2" d="M487.28,134.12c4.64-7.12,11.66,5.53,15.6,28.18s3.53,46.82-1.12,54-11.62-5.49-15.62-28.12S482.66,141.25,487.28,134.12Z" transform="translate(-19.98 0)"/><polygon class="cls-2" points="466.9 227.15 486.38 280.73 490.13 358.89 470.57 305.82 466.9 227.15"/><polygon class="cls-2" points="491.02 478.14 477.65 402.29 492.03 373.42 505.2 448.19 491.02 478.14"/></svg>