<?xml version="1.0" encoding="utf-8"?>
<!-- Generator: Adobe Illustrator 12.0.0, SVG Export Plug-In . SVG Version: 6.00 Build 51448)  -->
<!DOCTYPE svg PUBLIC "-//W3C//DTD SVG 1.0//EN" "http://www.w3.org/TR/2001/REC-SVG-20010904/DTD/svg10.dtd" [
	<!ENTITY ns_svg "http://www.w3.org/2000/svg">
	<!ENTITY ns_xlink "http://www.w3.org/1999/xlink">
]>
<svg  version="1.0" id="Layer_1" xmlns="&ns_svg;" xmlns:xlink="&ns_xlink;" width="600" height="600" viewBox="0 0 600 600"
	 overflow="visible" enable-background="new 0 0 600 600" xml:space="preserve">
<g>
	<path fill="#FEB700" d="M577.62,339.91L522.05,26.79c-4.41-21.92-22.5-29.09-36.74-26.17L157.27,57.97
		c-9.91,2.03-16.06,4.92-24.7,12.4c0,0-83.19,78.79-95.4,91.25s-19.89,28.84-16.31,53L84.2,573.29
		c4.54,22.24,24.03,28.39,37.68,26.34c13.63-2.05,336.92-58.88,353.8-62.4c17.23-3.57,34.31-15.07,46.55-38.19l49.85-107.4
		C581.18,371.15,581.6,366.45,577.62,339.91z"/>
	<g>
		<path fill="#004B32" d="M401.47,67.94c-9.15,7.44-35.1,16.11-58,19.37c-22.96,3.25-34.13-0.13-25.03-7.56
			c9.16-7.43,35.12-16.13,58.06-19.37C399.42,57.13,410.63,60.5,401.47,67.94z"/>
		<polygon fill="#004B32" points="348.69,54.19 275.75,76.7 223.2,76.42 295.71,53.98 		"/>
		<polygon fill="#004B32" points="153.15,71.39 225.23,58.7 203.2,81.7 130.05,93.47 		"/>
		<polygon fill="#004B32" points="122.98,562.13 108.97,482.66 188.46,468.6 202.48,548.12 		"/>
		<polygon fill="#004B32" points="186.81,445.34 134.9,383.49 162.33,307.81 214.31,369.66 		"/>
		<path fill="#004B32" d="M261.4,317.04c-24.99,4.36-48.85-12.31-53.27-37.36c-4.4-25.01,12.3-48.88,37.34-53.3
			c25.01-4.42,48.9,12.3,53.29,37.35C303.16,288.74,286.44,312.62,261.4,317.04z"/>
		<polygon fill="#004B32" points="364.63,262.18 302.23,188.03 397.6,171.22 		"/>
		<polygon fill="#004B32" points="398.68,108.74 327.65,110.09 419.21,82.53 		"/>
		<polygon fill="#004B32" points="512.37,62.2 516.12,145.06 493.62,88.81 		"/>
		<path fill="#004B32" d="M487.28,134.12c4.64-7.12,11.66,5.53,15.6,28.18c4.02,22.66,3.53,46.82-1.12,53.97
			c-4.6,7.15-11.62-5.49-15.62-28.12C482.15,165.46,482.66,141.25,487.28,134.12z"/>
		<polygon fill="#004B32" points="486.88,227.15 506.36,280.73 510.11,358.89 490.55,305.82 		"/>
		<polygon fill="#004B32" points="511,478.14 497.63,402.29 512.01,373.42 525.18,448.19 		"/>
	</g>
</g>
</svg>
