<svg xmlns="http://www.w3.org/2000/svg" viewBox="0 0 390.31 56.7"><defs><style>.cls-1{fill:#fff;}.cls-2{fill:#fdb913;}</style></defs><title>Asset 1</title><g id="Layer_2" data-name="Layer 2"><g id="full-logo"><path id="_Path_" data-name="&lt;Path&gt;" class="cls-1" d="M385.55,15l-1.33-2.07h-.67V15h-1.13V9.42h2c1.25,0,2.07.46,2.07,1.71a1.49,1.49,0,0,1-.29.93,1.57,1.57,0,0,1-.81.57h0L387,15Zm-1.29-4.74h-.71v1.86h.71c.68,0,1-.22,1-.93s-.28-1-1-1Z"/><path id="_Path_2" data-name="&lt;Path&gt;" class="cls-1" d="M378.41,12.45a6,6,0,1,0,11.45-2.28,5.94,5.94,0,0,0-5.5-3.67,6,6,0,0,0-4.19,1.75A6.06,6.06,0,0,0,378.41,12.45Zm1.16,0a4.79,4.79,0,0,1,5.73-4.7,4.79,4.79,0,0,1,3.76,3.76A4.78,4.78,0,0,1,381,15.83a4.78,4.78,0,0,1-1.41-3.38Z"/><path class="cls-1" d="M246.39,11.94a4.76,4.76,0,1,1,9.51,0h0a4.76,4.76,0,0,1-4.75,4.75h0a5,5,0,0,1-1.82-.36,4.73,4.73,0,0,1-1.54-1,4.68,4.68,0,0,1-1-1.54,4.77,4.77,0,0,1-.37-1.82Z"/><path class="cls-1" d="M292.75,36.57a4.76,4.76,0,0,1,4.76-4.76h0a4.75,4.75,0,0,1,4.75,4.76h0a4.76,4.76,0,0,1-4.75,4.75h0a4.72,4.72,0,0,1-3.36-1.4A4.78,4.78,0,0,1,292.75,36.57Z"/><path class="cls-1" d="M246.39,44.86a4.7,4.7,0,0,1,.37-1.82,4.62,4.62,0,0,1,1-1.55,4.67,4.67,0,0,1,3.36-1.38h0a4.75,4.75,0,0,1,4.75,4.75h0a4.76,4.76,0,0,1-4.75,4.75h0a4.72,4.72,0,0,1-3.36-1.4,4.78,4.78,0,0,1-1.4-3.35Z"/><path class="cls-1" d="M246.39,33.88a4.8,4.8,0,0,1,1.4-3.36,4.84,4.84,0,0,1,1.54-1,4.75,4.75,0,0,1,1.82-.35h0a4.73,4.73,0,0,1,4.75,4.74h0a4.75,4.75,0,0,1-1.39,3.36,4.81,4.81,0,0,1-3.36,1.4h0a4.78,4.78,0,0,1-4.76-4.76Z"/><path class="cls-1" d="M246.39,22.92a4.76,4.76,0,0,1,8.12-3.37,4.78,4.78,0,0,1,1.39,3.37h0a4.76,4.76,0,0,1-4.75,4.75h0a4.72,4.72,0,0,1-3.36-1.4,4.78,4.78,0,0,1-1.4-3.35Z"/><path class="cls-1" d="M303,11.94a4.75,4.75,0,0,1,4.75-4.75h0a4.75,4.75,0,0,1,4.75,4.75h0a4.68,4.68,0,0,1-.36,1.81,4.48,4.48,0,0,1-1,1.55,4.73,4.73,0,0,1-1.54,1,4.92,4.92,0,0,1-1.82.36h0A4.76,4.76,0,0,1,303,11.94Z"/><path class="cls-1" d="M303,44.86a4.75,4.75,0,0,1,4.75-4.75h0a4.67,4.67,0,0,1,3.36,1.38,4.57,4.57,0,0,1,1,1.55,4.69,4.69,0,0,1,.36,1.82h0a4.76,4.76,0,0,1-4.75,4.75h0A4.76,4.76,0,0,1,303,44.86Z"/><path class="cls-1" d="M303,33.88a4.81,4.81,0,0,1,1.4-3.36,4.72,4.72,0,0,1,3.35-1.38h0a4.73,4.73,0,0,1,4.75,4.74h0a4.76,4.76,0,0,1-.36,1.82,4.53,4.53,0,0,1-1,1.54,4.8,4.8,0,0,1-3.36,1.4h0a4.81,4.81,0,0,1-3.36-1.4A4.75,4.75,0,0,1,303,33.88Z"/><path class="cls-1" d="M303,22.92a4.75,4.75,0,0,1,4.75-4.76h0a4.73,4.73,0,0,1,3.36,1.39,4.53,4.53,0,0,1,1,1.54,4.78,4.78,0,0,1,.36,1.83h0a4.76,4.76,0,0,1-4.75,4.75h0A4.76,4.76,0,0,1,303,22.92Z"/><path class="cls-1" d="M267.7,12a4.75,4.75,0,0,1,4.75-4.75h0a4.67,4.67,0,0,1,3.36,1.38,4.57,4.57,0,0,1,1,1.55,4.76,4.76,0,0,1-4.39,6.57h0A4.76,4.76,0,0,1,267.7,12Z"/><path class="cls-1" d="M267.7,44.86a4.75,4.75,0,0,1,4.75-4.75h0a4.75,4.75,0,0,1,4.75,4.75h0a4.76,4.76,0,0,1-.36,1.82,4.53,4.53,0,0,1-1,1.54,4.8,4.8,0,0,1-3.36,1.4h0a4.81,4.81,0,0,1-3.36-1.4A4.75,4.75,0,0,1,267.7,44.86Z"/><path class="cls-1" d="M267.7,33.89a4.75,4.75,0,0,1,4.75-4.75h0a4.75,4.75,0,0,1,4.75,4.75h0a4.76,4.76,0,0,1-4.75,4.75h0a4.76,4.76,0,0,1-4.75-4.75Z"/><path class="cls-1" d="M267.7,22.92a4.75,4.75,0,0,1,4.75-4.75h0a4.75,4.75,0,0,1,4.75,4.75h0a4.68,4.68,0,0,1-.36,1.81,4.48,4.48,0,0,1-1,1.55,4.73,4.73,0,0,1-1.54,1,4.92,4.92,0,0,1-1.82.36h0a4.76,4.76,0,0,1-4.75-4.75Z"/><path class="cls-1" d="M202.46,11.26a4.69,4.69,0,0,1,.36-1.82,4.73,4.73,0,0,1,2.57-2.58,4.75,4.75,0,0,1,1.82-.35,4.59,4.59,0,0,1,1.83.35,4.84,4.84,0,0,1,1.54,1,4.71,4.71,0,0,1,1,1.54,4.78,4.78,0,0,1,.36,1.83h0a4.68,4.68,0,0,1-.36,1.81,4.76,4.76,0,0,1-1,1.54,4.62,4.62,0,0,1-1.55,1,4.69,4.69,0,0,1-1.82.36h0a4.76,4.76,0,0,1-4.75-4.75Z"/><path class="cls-1" d="M191.09,14.32a4.78,4.78,0,0,1,.36-1.83A4.76,4.76,0,0,1,194,9.92a4.76,4.76,0,0,1,1.82-.36h0a4.76,4.76,0,0,1,0,9.51h0a4.76,4.76,0,0,1-4.75-4.75Z"/><path class="cls-1" d="M213.66,11.26A4.75,4.75,0,1,1,218.41,16h0a4.76,4.76,0,0,1-4.75-4.75Z"/><path class="cls-1" d="M224.4,14a4.76,4.76,0,1,1,9.51,0,4.76,4.76,0,0,1-4.75,4.75h0a5,5,0,0,1-1.82-.36,4.73,4.73,0,0,1-1.54-1,4.87,4.87,0,0,1-1-1.54A5,5,0,0,1,224.4,14Z"/><path class="cls-1" d="M191.16,24.75A4.75,4.75,0,0,1,196,20.09h0a4.75,4.75,0,0,1,4.65,4.85h0a4.71,4.71,0,0,1-.39,1.81,4.76,4.76,0,0,1-1.07,1.52,4.84,4.84,0,0,1-1.56,1,4.75,4.75,0,0,1-1.83.33h0a4.78,4.78,0,0,1-4.65-4.85Z"/><path class="cls-1" d="M213.72,45.54a4.75,4.75,0,0,1,4.75-4.75h0a4.75,4.75,0,0,1,3.36,1.39,4.7,4.7,0,0,1,1.4,3.36,4.76,4.76,0,0,1-4.76,4.76h0a4.81,4.81,0,0,1-3.36-1.4,4.75,4.75,0,0,1-1.39-3.36Z"/><path class="cls-1" d="M225.09,42.49a4.78,4.78,0,0,1,.36-1.83A4.76,4.76,0,0,1,228,38.09a4.76,4.76,0,0,1,1.82-.36h0a4.76,4.76,0,0,1,0,9.51h0a4.76,4.76,0,0,1-4.75-4.75Z"/><path class="cls-1" d="M225,31.86a4.76,4.76,0,0,1,1.46-3.34,4.84,4.84,0,0,1,1.56-1,4.62,4.62,0,0,1,1.83-.32h0A4.74,4.74,0,0,1,233,35.38a4.84,4.84,0,0,1-1.56,1,4.94,4.94,0,0,1-1.83.32h0a4.91,4.91,0,0,1-1.81-.4,4.85,4.85,0,0,1-1.52-1.06,4.65,4.65,0,0,1-1-1.56,4.73,4.73,0,0,1-.33-1.82Z"/><path class="cls-1" d="M213.72,29.41a4.76,4.76,0,0,1,1.46-3.34,4.6,4.6,0,0,1,1.57-1,4.54,4.54,0,0,1,1.82-.32h0a4.67,4.67,0,0,1,1.81.39,4.73,4.73,0,0,1,1.52,1.06,4.84,4.84,0,0,1,1,1.56,4.56,4.56,0,0,1,.32,1.83,4.74,4.74,0,0,1-1.46,3.33,4.8,4.8,0,0,1-3.39,1.33h0a4.78,4.78,0,0,1-4.65-4.85Z"/><path class="cls-1" d="M202.44,27.38a4.76,4.76,0,0,1,4.85-4.65h0a4.62,4.62,0,0,1,1.83.38,4.89,4.89,0,0,1,1.53,1.06A4.71,4.71,0,0,1,212,27.58h0a4.71,4.71,0,0,1-1.46,3.32,4.76,4.76,0,0,1-3.38,1.33h0a4.78,4.78,0,0,1-4.66-4.85Z"/><path class="cls-1" d="M202.52,45.55a4.73,4.73,0,1,1,9.46,0h0a4.76,4.76,0,0,1-4.75,4.75h0a4.76,4.76,0,0,1-4.75-4.75Z"/><path class="cls-1" d="M191.77,42.8a4.75,4.75,0,0,1,4.75-4.75h0a4.75,4.75,0,0,1,3.36,1.39,4.7,4.7,0,0,1,1.4,3.36,4.76,4.76,0,0,1-.36,1.82,4.84,4.84,0,0,1-1,1.54,4.78,4.78,0,0,1-1.55,1,4.88,4.88,0,0,1-1.82.36h0a4.76,4.76,0,0,1-4.75-4.75Z"/><path class="cls-1" d="M96.16,11.94a4.76,4.76,0,0,1,4.76-4.75h0a4.75,4.75,0,0,1,4.75,4.75h0a4.75,4.75,0,0,1-1.39,3.36,4.81,4.81,0,0,1-3.36,1.4h0a4.78,4.78,0,0,1-4.76-4.76Z"/><path class="cls-1" d="M86.9,18.12a4.75,4.75,0,0,1,4.75-4.75h0a4.68,4.68,0,0,1,1.82.35,4.73,4.73,0,0,1,1.54,1,4.57,4.57,0,0,1,1,1.55,4.69,4.69,0,0,1,.36,1.82h0a4.76,4.76,0,0,1-4.75,4.75h0a4.76,4.76,0,0,1-4.75-4.75Z"/><path class="cls-1" d="M83.13,28.4a4.75,4.75,0,0,1,4.75-4.75h0a4.75,4.75,0,0,1,4.75,4.75h0a4.76,4.76,0,0,1-4.75,4.75h0a4.76,4.76,0,0,1-4.75-4.75Z"/><path class="cls-1" d="M107.37,11.26a4.78,4.78,0,0,1,.36-1.83,4.76,4.76,0,0,1,2.57-2.57,4.76,4.76,0,0,1,1.82-.36h0a4.75,4.75,0,0,1,4.75,4.76h0A4.75,4.75,0,0,1,112.12,16h0a4.76,4.76,0,0,1-4.75-4.75Z"/><path class="cls-1" d="M118.12,14a4.75,4.75,0,0,1,4.74-4.75h0a4.68,4.68,0,0,1,1.82.35,4.71,4.71,0,0,1,2.58,2.58,4.69,4.69,0,0,1,.36,1.82h0a4.76,4.76,0,0,1-.36,1.82,4.84,4.84,0,0,1-1,1.54,4.78,4.78,0,0,1-1.55,1,4.88,4.88,0,0,1-1.82.36h0A4.76,4.76,0,0,1,118.12,14Z"/><path class="cls-1" d="M96.16,44.86a4.76,4.76,0,0,1,4.76-4.76h0a4.75,4.75,0,0,1,4.75,4.76h0a4.76,4.76,0,0,1-4.75,4.75h0a4.72,4.72,0,0,1-3.36-1.4,4.78,4.78,0,0,1-1.4-3.35Z"/><path class="cls-1" d="M86.9,38.68a4.75,4.75,0,0,1,4.75-4.75h0a4.75,4.75,0,0,1,4.75,4.75h0A4.68,4.68,0,0,1,96,40.49,4.48,4.48,0,0,1,95,42a4.73,4.73,0,0,1-1.54,1,4.88,4.88,0,0,1-1.82.36h0a4.76,4.76,0,0,1-4.75-4.75Z"/><path class="cls-1" d="M107.37,45.54a4.75,4.75,0,0,1,4.75-4.75h0a4.75,4.75,0,0,1,4.75,4.75h0a4.75,4.75,0,0,1-1.39,3.36,4.81,4.81,0,0,1-3.36,1.4h0a4.77,4.77,0,0,1-1.82-.37,4.76,4.76,0,0,1-2.57-2.57,4.76,4.76,0,0,1-.36-1.82Z"/><path class="cls-1" d="M118.12,42.8a4.75,4.75,0,0,1,4.74-4.75h0a4.68,4.68,0,0,1,1.82.35A4.71,4.71,0,0,1,127.26,41a4.69,4.69,0,0,1,.36,1.82h0a4.78,4.78,0,0,1-4.76,4.75h0a4.76,4.76,0,0,1-4.74-4.75Z"/><path class="cls-1" d="M139.09,33.65a4.75,4.75,0,0,1,4.75-4.75h0a4.75,4.75,0,0,1,3.36,1.39,4.7,4.7,0,0,1,1.4,3.36,4.76,4.76,0,0,1-.36,1.82,4.84,4.84,0,0,1-1,1.54,4.78,4.78,0,0,1-1.55,1,4.88,4.88,0,0,1-1.82.36h0a4.76,4.76,0,0,1-4.75-4.75Z"/><path class="cls-1" d="M143.71,22.63a4.75,4.75,0,0,1,4.75-4.75,4.68,4.68,0,0,1,1.82.35,4.71,4.71,0,0,1,2.58,2.58,4.69,4.69,0,0,1,.36,1.82h0a4.78,4.78,0,0,1-4.76,4.75h0a4.76,4.76,0,0,1-4.75-4.75Z"/><path class="cls-1" d="M149.54,11.94a4.75,4.75,0,0,1,4.75-4.75h0A4.75,4.75,0,0,1,159,11.94h0a4.76,4.76,0,0,1-4.75,4.75h0a4.76,4.76,0,0,1-4.75-4.75Z"/><path class="cls-1" d="M160,12a4.74,4.74,0,1,1,4.75,4.75h0A4.76,4.76,0,0,1,160,12Z"/><path class="cls-1" d="M149.55,33.65a4.75,4.75,0,0,1,4.75-4.75h0a4.75,4.75,0,0,1,3.36,1.39,4.7,4.7,0,0,1,1.4,3.36,4.76,4.76,0,0,1-.36,1.82,4.84,4.84,0,0,1-1,1.54,4.78,4.78,0,0,1-1.55,1,4.88,4.88,0,0,1-1.82.36,4.76,4.76,0,0,1-4.75-4.75Z"/><path class="cls-1" d="M160,33.65a4.75,4.75,0,0,1,4.75-4.75h0a4.75,4.75,0,0,1,4.75,4.75h0a4.76,4.76,0,0,1-4.75,4.75h0A4.76,4.76,0,0,1,160,33.65Z"/><path class="cls-1" d="M170.49,33.65a4.75,4.75,0,0,1,4.75-4.75h0A4.75,4.75,0,0,1,180,33.65h0a4.76,4.76,0,0,1-4.75,4.75h0a4.76,4.76,0,0,1-4.75-4.75Z"/><path class="cls-1" d="M174.25,44.86A4.75,4.75,0,0,1,179,40.11h0a4.68,4.68,0,0,1,1.82.35A4.71,4.71,0,0,1,183.38,43a4.69,4.69,0,0,1,.36,1.82h0A4.78,4.78,0,0,1,179,49.61h0a4.76,4.76,0,0,1-4.75-4.75Z"/><path class="cls-1" d="M165.88,22.63a4.69,4.69,0,0,1,.36-1.82,4.73,4.73,0,0,1,2.57-2.58,4.75,4.75,0,0,1,1.82-.35h0a4.75,4.75,0,0,1,4.75,4.75h0a4.76,4.76,0,0,1-4.75,4.75h0a4.76,4.76,0,0,1-4.75-4.75Z"/><path class="cls-1" d="M135.33,44.86a4.75,4.75,0,0,1,4.75-4.75h0a4.68,4.68,0,0,1,1.82.35A4.71,4.71,0,0,1,144.48,43a4.69,4.69,0,0,1,.36,1.82h0a4.78,4.78,0,0,1-4.76,4.75h0a4.76,4.76,0,0,1-4.75-4.75Z"/><path class="cls-1" d="M346.86,45.54a4.88,4.88,0,0,1,.36-1.82,4.8,4.8,0,0,1,1-1.55,4.67,4.67,0,0,1,3.36-1.38h0a4.75,4.75,0,0,1,4.74,4.75h0a4.68,4.68,0,0,1-.36,1.81,4.59,4.59,0,0,1-1,1.55,4.73,4.73,0,0,1-1.54,1,4.93,4.93,0,0,1-1.82.37h0a5,5,0,0,1-1.82-.36,4.75,4.75,0,0,1-2.94-4.4Z"/><path class="cls-1" d="M357.42,39.46a4.75,4.75,0,0,1,4.75-4.75h0a4.75,4.75,0,0,1,4.75,4.75h0a4.75,4.75,0,0,1-1.39,3.36,4.81,4.81,0,0,1-3.36,1.4h0a4.8,4.8,0,0,1-4.75-4.76Z"/><path class="cls-1" d="M361.18,28.4A4.8,4.8,0,0,1,362.59,25a4.93,4.93,0,0,1,1.56-1,4.76,4.76,0,0,1,1.83-.34h0a4.75,4.75,0,0,1,4.75,4.75h0A4.76,4.76,0,0,1,366,33.15h0a4.76,4.76,0,0,1-4.75-4.75Z"/><path class="cls-1" d="M334.92,45.54a4.75,4.75,0,0,1,4.75-4.75h0a4.75,4.75,0,0,1,4.75,4.75h0A4.75,4.75,0,0,1,343,48.9a4.81,4.81,0,0,1-3.36,1.4h0a4.81,4.81,0,0,1-3.36-1.4A4.75,4.75,0,0,1,334.92,45.54Z"/><path class="cls-1" d="M324.36,39.46a4.76,4.76,0,0,1,4.76-4.75h0a4.75,4.75,0,0,1,4.75,4.75h0a4.76,4.76,0,0,1-4.75,4.75h0a4.72,4.72,0,0,1-3.36-1.4A4.78,4.78,0,0,1,324.36,39.46Z"/><path class="cls-1" d="M320.6,28.4a4.75,4.75,0,0,1,4.75-4.75h0A4.75,4.75,0,0,1,328.71,25a4.7,4.7,0,0,1,1.4,3.36h0a4.78,4.78,0,0,1-4.76,4.75h0a4.76,4.76,0,0,1-4.75-4.75Z"/><path class="cls-1" d="M346.86,11.26a4.73,4.73,0,0,1,1.39-3.37,4.78,4.78,0,0,1,3.37-1.39h0a4.75,4.75,0,0,1,4.74,4.76h0A4.71,4.71,0,0,1,355,14.6a4.78,4.78,0,0,1-3.35,1.4h0a5,5,0,0,1-1.82-.36,4.73,4.73,0,0,1-1.54-1,4.87,4.87,0,0,1-1-1.54,5,5,0,0,1-.36-1.82Z"/><path class="cls-1" d="M357.42,17.34a4.75,4.75,0,0,1,4.75-4.75h0a4.75,4.75,0,0,1,4.75,4.75h0a4.76,4.76,0,0,1-4.75,4.75h0a4.76,4.76,0,0,1-4.75-4.75Z"/><path class="cls-1" d="M334.92,11.26a4.75,4.75,0,0,1,4.75-4.75h0a4.75,4.75,0,0,1,4.75,4.75h0a4.75,4.75,0,0,1-9.5,0Z"/><path class="cls-1" d="M324.36,17.34a4.76,4.76,0,0,1,4.76-4.75h0a4.75,4.75,0,0,1,4.75,4.75h0a4.76,4.76,0,0,1-4.75,4.75h0a4.72,4.72,0,0,1-3.36-1.4,4.78,4.78,0,0,1-1.4-3.35Z"/><path class="cls-1" d="M278,20.26a4.69,4.69,0,0,1,.36-1.82,4.73,4.73,0,0,1,2.57-2.58,4.75,4.75,0,0,1,1.82-.35h0a4.67,4.67,0,0,1,3.36,1.38,4.57,4.57,0,0,1,1,1.55,4.69,4.69,0,0,1,.36,1.82h0A4.75,4.75,0,0,1,282.76,25h0a4.76,4.76,0,0,1-1.82-.36,4.59,4.59,0,0,1-1.55-1,4.71,4.71,0,0,1-1-1.54,4.77,4.77,0,0,1-.37-1.82Z"/><path class="cls-1" d="M285.31,28.39a4.75,4.75,0,0,1,4.75-4.76h0A4.73,4.73,0,0,1,293.42,25a4.53,4.53,0,0,1,1,1.54,4.78,4.78,0,0,1,.36,1.83h0a4.76,4.76,0,0,1-4.75,4.75h0a4.76,4.76,0,0,1-4.75-4.75Z"/><path id="dice" class="cls-2" d="M52.69,32.13,47.43,2.53A2.78,2.78,0,0,0,47,1.41a2.88,2.88,0,0,0-.8-.87A2.83,2.83,0,0,0,45.16.07,2.76,2.76,0,0,0,44,.06L13,5.48a4.57,4.57,0,0,0-2.34,1.17s-7.86,7.45-9,8.63a5.4,5.4,0,0,0-1.39,2.3,5.61,5.61,0,0,0-.15,2.7l6,33.9a3,3,0,0,0,.44,1.11,3.12,3.12,0,0,0,.83.87,2.91,2.91,0,0,0,1.1.47,3,3,0,0,0,1.19,0C11,56.47,41.5,51.1,43.1,50.77a6.79,6.79,0,0,0,2.62-1.3,6.58,6.58,0,0,0,1.78-2.31L52.16,37C53,35.08,53.06,34.64,52.69,32.13ZM36,6.42a13.89,13.89,0,0,1-5.49,1.83c-2.16.31-3.22,0-2.36-.71a13.9,13.9,0,0,1,5.48-1.83C35.84,5.4,36.9,5.72,36,6.42Zm-5-1.3-6.9,2.13h-5L26,5.1ZM12.57,6.75l6.81-1.2L17.3,7.72,10.38,8.84ZM9.72,53.13,8.39,45.62l7.51-1.33,1.33,7.52Zm6-11-4.91-5.84,2.59-7.16L18.32,35ZM22.8,30a4.33,4.33,0,0,1-2.51-.31A4.28,4.28,0,0,1,18.37,28a4.35,4.35,0,1,1,7.22.18A4.41,4.41,0,0,1,22.8,30Zm9.75-5.19-5.89-7,9-1.59Zm3.22-14.5-6.71.13L37.71,7.8Zm10.75-4.4.35,7.83L44.75,8.4Zm-2.37,6.8c.43-.68,1.1.52,1.47,2.66s.33,4.43-.11,5.1S44.42,20,44,17.81s-.33-4.46.11-5.13Zm0,8.79,1.83,5,.35,7.39-1.84-5Zm2.28,23.72L45.12,38l1.36-2.7,1.25,7.06Z"/></g></g></svg>