<svg width="600" height="100" viewBox="0 0 600 100" fill="none" xmlns="http://www.w3.org/2000/svg">
<g clip-path="url(#clip0)">
<path d="M205 120.619C133 36.7432 38.6667 24.4248 0.5 28.7501H-4.5L-13.5 42.245L-20 110.239C85 148.647 277 204.495 205 120.619Z" fill="url(#paint0_linear)"/>
<path d="M361 51.7226C240.2 12.5226 144.667 88.7226 112 131.723L220.5 153.723C284.333 167.889 429.8 187.723 501 153.723C590 111.223 512 100.723 361 51.7226Z" fill="url(#paint1_linear)"/>
<line x1="3" y1="-3" x2="13.8501" y2="-3" transform="matrix(-0.987763 -0.155963 -0.155963 0.987763 273.494 73.3504)" stroke="#FEED6F" stroke-width="6" stroke-linecap="round"/>
<line x1="3" y1="-3" x2="13.8501" y2="-3" transform="matrix(-0.987763 -0.155963 -0.155963 0.987763 256.85 93.4982)" stroke="#FEED6F" stroke-width="6" stroke-linecap="round"/>
<line x1="3" y1="-3" x2="13.8501" y2="-3" transform="matrix(-0.979833 -0.19982 -0.19982 0.979833 227.975 93.5125)" stroke="#FEED6F" stroke-width="6" stroke-linecap="round"/>
<line x1="3" y1="-3" x2="13.8501" y2="-3" transform="matrix(-0.979833 -0.19982 -0.19982 0.979833 169.251 105.625)" stroke="#FEED6F" stroke-width="6" stroke-linecap="round"/>
<line x1="3" y1="-3" x2="13.8501" y2="-3" transform="matrix(-0.932881 0.360185 0.360185 0.932881 289.262 93.4982)" stroke="#FEED6F" stroke-width="6" stroke-linecap="round"/>
<line x1="3" y1="-3" x2="13.8501" y2="-3" transform="matrix(-0.988381 -0.151996 -0.151996 0.988381 240.674 75.9135)" stroke="#FEED6F" stroke-width="6" stroke-linecap="round"/>
<line x1="3" y1="-3" x2="13.8501" y2="-3" transform="matrix(-0.994071 -0.108733 -0.108733 0.994071 211.451 105.009)" stroke="#FEED6F" stroke-width="6" stroke-linecap="round"/>
<line x1="3" y1="-3" x2="13.8501" y2="-3" transform="matrix(-0.998483 -0.0550551 -0.0550551 0.998483 185.932 90.4982)" stroke="#FEED6F" stroke-width="6" stroke-linecap="round"/>
<line x1="3.5" y1="-3.5" x2="13.3501" y2="-3.5" transform="matrix(-0.987763 -0.155963 -0.155963 0.987763 282.254 65.5905)" stroke="#F8CD17" stroke-width="7" stroke-linecap="round"/>
<line x1="3.5" y1="-3.5" x2="13.3501" y2="-3.5" transform="matrix(-0.987763 -0.155963 -0.155963 0.987763 265.61 85.7383)" stroke="#F8CD17" stroke-width="7" stroke-linecap="round"/>
<line x1="3.5" y1="-3.5" x2="13.3501" y2="-3.5" transform="matrix(-0.979833 -0.19982 -0.19982 0.979833 236.735 85.7526)" stroke="#F8CD17" stroke-width="7" stroke-linecap="round"/>
<line x1="3.5" y1="-3.5" x2="13.3501" y2="-3.5" transform="matrix(-0.979833 -0.19982 -0.19982 0.979833 178.011 97.8652)" stroke="#F8CD17" stroke-width="7" stroke-linecap="round"/>
<line x1="3.5" y1="-3.5" x2="13.3501" y2="-3.5" transform="matrix(-0.932881 0.360185 0.360185 0.932881 298.022 85.7383)" stroke="#F8CD17" stroke-width="7" stroke-linecap="round"/>
<line x1="3.5" y1="-3.5" x2="13.3501" y2="-3.5" transform="matrix(-0.992533 0.121976 0.121976 0.992533 157.49 99.1331)" stroke="#F8CD17" stroke-width="7" stroke-linecap="round"/>
<line x1="3.5" y1="-3.5" x2="13.3501" y2="-3.5" transform="matrix(-0.988381 -0.151996 -0.151996 0.988381 249.434 68.1536)" stroke="#F8CD17" stroke-width="7" stroke-linecap="round"/>
<line x1="3.5" y1="-3.5" x2="13.3501" y2="-3.5" transform="matrix(-0.994071 -0.108733 -0.108733 0.994071 220.211 97.2491)" stroke="#F8CD17" stroke-width="7" stroke-linecap="round"/>
<line x1="3.5" y1="-3.5" x2="13.3501" y2="-3.5" transform="matrix(-0.998483 -0.0550551 -0.0550551 0.998483 194.692 82.7383)" stroke="#F8CD17" stroke-width="7" stroke-linecap="round"/>
<g opacity="0.2">
<line x1="3.5" y1="-3.5" x2="13.3501" y2="-3.5" transform="matrix(-0.999504 0.0314816 0.0314816 0.999504 320.105 63.9537)" stroke="#E8A20E" stroke-width="7" stroke-linecap="round"/>
<line x1="3.5" y1="-3.5" x2="13.3501" y2="-3.5" transform="matrix(-0.922959 0.384898 0.384898 0.922959 310.462 88.247)" stroke="#E8A20E" stroke-width="7" stroke-linecap="round"/>
<line x1="3.5" y1="-3.5" x2="13.3501" y2="-3.5" transform="matrix(-0.842909 -0.538055 -0.538055 0.842909 270.095 90.7575)" stroke="#E8A20E" stroke-width="7" stroke-linecap="round"/>
<line x1="3.5" y1="-3.5" x2="13.3501" y2="-3.5" transform="matrix(-0.98277 -0.184834 -0.184834 0.98277 216.287 99.2686)" stroke="#E8A20E" stroke-width="7" stroke-linecap="round"/>
<line x1="3.5" y1="-3.5" x2="13.3501" y2="-3.5" transform="matrix(-0.927272 0.37439 0.37439 0.927272 336.099 85.3104)" stroke="#E8A20E" stroke-width="7" stroke-linecap="round"/>
<line x1="3.5" y1="-3.5" x2="13.3501" y2="-3.5" transform="matrix(-0.954249 0.299013 0.299013 0.954249 286.942 64.7973)" stroke="#E8A20E" stroke-width="7" stroke-linecap="round"/>
<line x1="3.5" y1="-3.5" x2="13.3501" y2="-3.5" transform="matrix(-0.98277 -0.184834 -0.184834 0.98277 171.954 97.3098)" stroke="#F9C120" stroke-width="7" stroke-linecap="round"/>
<line x1="3.5" y1="-3.5" x2="13.3501" y2="-3.5" transform="matrix(-0.927272 0.37439 0.37439 0.927272 291.766 83.3516)" stroke="#F9C120" stroke-width="7" stroke-linecap="round"/>
<line x1="3.5" y1="-3.5" x2="13.3501" y2="-3.5" transform="matrix(-0.954249 0.299013 0.299013 0.954249 242.609 62.8385)" stroke="#F9C120" stroke-width="7" stroke-linecap="round"/>
<line x1="3.5" y1="-3.5" x2="13.3501" y2="-3.5" transform="matrix(-0.930708 0.365763 0.365763 0.930708 242.634 103.282)" stroke="#E8A20E" stroke-width="7" stroke-linecap="round"/>
<line x1="3.5" y1="-3.5" x2="13.3501" y2="-3.5" transform="matrix(-0.952505 0.304523 0.304523 0.952505 250.995 83.3272)" stroke="#E8A20E" stroke-width="7" stroke-linecap="round"/>
</g>
<line x1="1.5" y1="-1.5" x2="3.97339" y2="-1.5" transform="matrix(0.99262 -0.121265 -0.180896 -0.983502 261.109 73.6358)" stroke="#FFF5AB" stroke-width="3" stroke-linecap="round"/>
<line x1="1.5" y1="-1.5" x2="4.10216" y2="-1.5" transform="matrix(0.917268 0.398272 0.381931 -0.924191 237.549 53.8615)" stroke="#FFF5AB" stroke-width="3" stroke-linecap="round"/>
<line x1="1.5" y1="-1.5" x2="4.08549" y2="-1.5" transform="matrix(0.958199 0.286101 0.255444 -0.966824 214.548 97.3741)" stroke="#FFF5AB" stroke-width="3" stroke-linecap="round"/>
<line x1="2.5" y1="-2.5" x2="9.02189" y2="-2.5" transform="matrix(-0.99982 0.0189948 0.0189948 0.99982 285.7 82.0009)" stroke="#FAD26C" stroke-width="5" stroke-linecap="round"/>
<line x1="2.5" y1="-2.5" x2="9.02189" y2="-2.5" transform="matrix(-0.996815 0.0797543 0.0797543 0.996815 210.348 84.2789)" stroke="#FAD26C" stroke-width="5" stroke-linecap="round"/>
<line x1="2.5" y1="-2.5" x2="9.02189" y2="-2.5" transform="matrix(-0.948736 0.316069 0.316069 0.948736 200.435 68.0256)" stroke="#FAD26C" stroke-width="5" stroke-linecap="round"/>
<line x1="2.5" y1="-2.5" x2="9.02189" y2="-2.5" transform="matrix(-0.989268 0.14611 0.14611 0.989268 274.246 58.4585)" stroke="#FAD26C" stroke-width="5" stroke-linecap="round"/>
<line x1="2.5" y1="-2.5" x2="9.02189" y2="-2.5" transform="matrix(-0.989268 0.14611 0.14611 0.989268 265.486 102.258)" stroke="#FAD26C" stroke-width="5" stroke-linecap="round"/>
<line x1="1.5" y1="-1.5" x2="4.10909" y2="-1.5" transform="matrix(0.935335 -0.353763 -0.353763 -0.935335 219.036 60.0688)" stroke="#FEED6F" stroke-width="3" stroke-linecap="round"/>
<line x1="1.5" y1="-1.5" x2="4.04328" y2="-1.5" transform="matrix(0.974061 -0.226284 -0.322474 -0.946578 249.656 58.8369)" stroke="#FEED6F" stroke-width="3" stroke-linecap="round"/>
<line x1="2.5" y1="-2.5" x2="9.02189" y2="-2.5" transform="matrix(-0.974261 -0.225424 -0.225424 0.974261 285.634 74.649)" stroke="#FAD26C" stroke-width="5" stroke-linecap="round"/>
<line x1="2.5" y1="-2.5" x2="9.02189" y2="-2.5" transform="matrix(-0.988372 -0.152057 -0.152057 0.988372 261.188 86.4903)" stroke="#FAD26C" stroke-width="5" stroke-linecap="round"/>
<line x1="310.999" y1="61.9192" x2="321.716" y2="60.227" stroke="#FEED6F" stroke-width="6" stroke-linecap="round"/>
<line x1="327.643" y1="82.0671" x2="338.36" y2="80.3748" stroke="#FEED6F" stroke-width="6" stroke-linecap="round"/>
<line x1="356.363" y1="81.9736" x2="366.994" y2="79.8055" stroke="#FEED6F" stroke-width="6" stroke-linecap="round"/>
<line x1="415.087" y1="94.0862" x2="425.718" y2="91.9181" stroke="#FEED6F" stroke-width="6" stroke-linecap="round"/>
<line x1="296.615" y1="83.7801" x2="306.737" y2="87.6882" stroke="#FEED6F" stroke-width="6" stroke-linecap="round"/>
<line x1="436.612" y1="96.2814" x2="447.381" y2="97.6048" stroke="#FEED6F" stroke-width="6" stroke-linecap="round"/>
<line x1="343.833" y1="64.4924" x2="354.557" y2="62.8432" stroke="#FEED6F" stroke-width="6" stroke-linecap="round"/>
<line x1="373.203" y1="93.7006" x2="383.989" y2="92.5209" stroke="#FEED6F" stroke-width="6" stroke-linecap="round"/>
<line x1="398.896" y1="79.3376" x2="409.73" y2="78.7402" stroke="#FEED6F" stroke-width="6" stroke-linecap="round"/>
<line x1="302.655" y1="52.5874" x2="312.385" y2="51.0512" stroke="#F8CD17" stroke-width="7" stroke-linecap="round"/>
<line x1="319.299" y1="72.7353" x2="329.028" y2="71.199" stroke="#F8CD17" stroke-width="7" stroke-linecap="round"/>
<line x1="347.993" y1="72.6238" x2="357.645" y2="70.6556" stroke="#F8CD17" stroke-width="7" stroke-linecap="round"/>
<line x1="406.717" y1="84.7364" x2="416.368" y2="82.7682" stroke="#F8CD17" stroke-width="7" stroke-linecap="round"/>
<line x1="288.502" y1="74.7339" x2="297.69" y2="78.2817" stroke="#F8CD17" stroke-width="7" stroke-linecap="round"/>
<line x1="428.409" y1="87.0862" x2="438.185" y2="88.2877" stroke="#F8CD17" stroke-width="7" stroke-linecap="round"/>
<line x1="335.491" y1="55.1623" x2="345.227" y2="53.6651" stroke="#F8CD17" stroke-width="7" stroke-linecap="round"/>
<line x1="364.886" y1="84.3893" x2="374.677" y2="83.3182" stroke="#F8CD17" stroke-width="7" stroke-linecap="round"/>
<line x1="390.608" y1="70.0509" x2="400.443" y2="69.5086" stroke="#F8CD17" stroke-width="7" stroke-linecap="round"/>
<g opacity="0.5">
<line x1="244.502" y1="52.5656" x2="254.347" y2="52.8757" stroke="#E8A20E" stroke-width="7" stroke-linecap="round"/>
<line x1="255.113" y1="78.3638" x2="264.205" y2="82.1551" stroke="#E8A20E" stroke-width="7" stroke-linecap="round"/>
<line x1="291.97" y1="77.9242" x2="300.273" y2="72.6243" stroke="#E8A20E" stroke-width="7" stroke-linecap="round"/>
<line x1="347.504" y1="87.182" x2="357.184" y2="85.3614" stroke="#E8A20E" stroke-width="7" stroke-linecap="round"/>
<line x1="229.455" y1="75.3753" x2="238.589" y2="79.0631" stroke="#E8A20E" stroke-width="7" stroke-linecap="round"/>
<line x1="278.443" y1="54.504" x2="287.842" y2="57.4493" stroke="#E8A20E" stroke-width="7" stroke-linecap="round"/>
<line x1="391.836" y1="85.2232" x2="401.517" y2="83.4025" stroke="#F9C120" stroke-width="7" stroke-linecap="round"/>
<line x1="273.788" y1="73.4165" x2="282.921" y2="77.1042" stroke="#F9C120" stroke-width="7" stroke-linecap="round"/>
<line x1="322.775" y1="52.5451" x2="332.175" y2="55.4904" stroke="#F9C120" stroke-width="7" stroke-linecap="round"/>
<line x1="322.902" y1="93.3046" x2="332.069" y2="96.9073" stroke="#E8A20E" stroke-width="7" stroke-linecap="round"/>
<line x1="314.403" y1="73.0593" x2="323.785" y2="76.0589" stroke="#E8A20E" stroke-width="7" stroke-linecap="round"/>
</g>
<line x1="1.5" y1="-1.5" x2="3.97339" y2="-1.5" transform="matrix(-0.99262 -0.121265 0.180896 -0.983502 319.889 65.6358)" stroke="#FFF5AB" stroke-width="3" stroke-linecap="round"/>
<line x1="1.5" y1="-1.5" x2="4.06869" y2="-1.5" transform="matrix(-0.978641 0.205578 -0.165826 -0.986155 301.023 93.4964)" stroke="#FFF5AB" stroke-width="3" stroke-linecap="round"/>
<line x1="1.5" y1="-1.5" x2="4.10216" y2="-1.5" transform="matrix(-0.917268 0.398272 -0.381931 -0.924191 343.449 45.8615)" stroke="#FFF5AB" stroke-width="3" stroke-linecap="round"/>
<line x1="1.5" y1="-1.5" x2="4.08549" y2="-1.5" transform="matrix(-0.958199 0.286101 -0.255444 -0.966824 366.45 89.3741)" stroke="#FFF5AB" stroke-width="3" stroke-linecap="round"/>
<line x1="1.5" y1="-1.5" x2="4.0946" y2="-1.5" transform="matrix(-0.94038 0.340125 -0.316184 -0.948698 393.767 80.2475)" stroke="#FFF5AB" stroke-width="3" stroke-linecap="round"/>
<line x1="297.845" y1="74.5489" x2="304.366" y2="74.6727" stroke="#FAD26C" stroke-width="5" stroke-linecap="round"/>
<line x1="373.342" y1="76.9862" x2="379.843" y2="77.5064" stroke="#FAD26C" stroke-width="5" stroke-linecap="round"/>
<line x1="383.725" y1="61.4439" x2="389.913" y2="63.5053" stroke="#FAD26C" stroke-width="5" stroke-linecap="round"/>
<line x1="309.59" y1="51.3506" x2="316.042" y2="52.3035" stroke="#FAD26C" stroke-width="5" stroke-linecap="round"/>
<line x1="392.485" y1="102.244" x2="398.673" y2="104.305" stroke="#FAD26C" stroke-width="5" stroke-linecap="round"/>
<line x1="318.35" y1="92.1503" x2="324.802" y2="93.1032" stroke="#FAD26C" stroke-width="5" stroke-linecap="round"/>
<line x1="360.028" y1="52.9412" x2="357.588" y2="52.0182" stroke="#FEED6F" stroke-width="3" stroke-linecap="round"/>
<line x1="1.5" y1="-1.5" x2="4.04328" y2="-1.5" transform="matrix(-0.974061 -0.226284 0.322474 -0.946578 331.342 50.8369)" stroke="#FEED6F" stroke-width="3" stroke-linecap="round"/>
<line x1="297.236" y1="63.6498" x2="303.59" y2="62.1796" stroke="#FAD26C" stroke-width="5" stroke-linecap="round"/>
<line x1="321.901" y1="75.6392" x2="328.347" y2="74.6475" stroke="#FAD26C" stroke-width="5" stroke-linecap="round"/>
<path d="M443.766 119.445C515.766 38.6452 610.1 26.7785 648.266 30.9452H653.266L662.266 43.9452L668.766 109.445C563.766 146.445 371.766 200.245 443.766 119.445Z" fill="url(#paint2_linear)"/>
<line x1="3" y1="-3" x2="16.2449" y2="-3" transform="matrix(0.987273 -0.159037 0.152944 0.988235 18 60.178)" stroke="#FEED6F" stroke-width="6" stroke-linecap="round"/>
<line x1="3" y1="-3" x2="16.2449" y2="-3" transform="matrix(0.987273 -0.159037 0.152944 0.988235 37 83.6431)" stroke="#FEED6F" stroke-width="6" stroke-linecap="round"/>
<line x1="3" y1="-3" x2="16.2511" y2="-3" transform="matrix(0.979034 -0.203695 0.196013 0.980601 69.9631 83.6597)" stroke="#FEED6F" stroke-width="6" stroke-linecap="round"/>
<line x1="3" y1="-3" x2="16.2511" y2="-3" transform="matrix(0.979034 -0.203695 0.196013 0.980601 137 97.7667)" stroke="#FEED6F" stroke-width="6" stroke-linecap="round"/>
<line x1="3" y1="-3" x2="16.2863" y2="-3" transform="matrix(0.930419 0.366499 -0.353948 0.935265 0 83.6431)" stroke="#FEED6F" stroke-width="6" stroke-linecap="round"/>
<line x1="3" y1="-3" x2="16.2412" y2="-3" transform="matrix(0.992232 0.124405 -0.119593 0.992823 160.426 99.2433)" stroke="#FEED6F" stroke-width="6" stroke-linecap="round"/>
<line x1="3" y1="-3" x2="16.2445" y2="-3" transform="matrix(0.987915 -0.154996 0.149051 0.98883 55.4662 63.1632)" stroke="#FEED6F" stroke-width="6" stroke-linecap="round"/>
<line x1="3" y1="-3" x2="16.2354" y2="-3" transform="matrix(0.993831 -0.110905 0.106603 0.994302 88.8262 97.0491)" stroke="#FEED6F" stroke-width="6" stroke-linecap="round"/>
<line x1="3" y1="-3" x2="16.2354" y2="-3" transform="matrix(0.998422 -0.056165 0.0539671 0.998543 117.958 80.1491)" stroke="#FEED6F" stroke-width="6" stroke-linecap="round"/>
<line x1="3.5" y1="-3.5" x2="15.7449" y2="-3.5" transform="matrix(0.987273 -0.159037 0.152944 0.988235 8 49.9758)" stroke="#F8CD17" stroke-width="7" stroke-linecap="round"/>
<line x1="3.5" y1="-3.5" x2="15.7449" y2="-3.5" transform="matrix(0.987273 -0.159037 0.152944 0.988235 27 73.4409)" stroke="#F8CD17" stroke-width="7" stroke-linecap="round"/>
<line x1="3.5" y1="-3.5" x2="15.7511" y2="-3.5" transform="matrix(0.979034 -0.203695 0.196013 0.980601 59.9631 73.4576)" stroke="#F8CD17" stroke-width="7" stroke-linecap="round"/>
<line x1="3.5" y1="-3.5" x2="15.7511" y2="-3.5" transform="matrix(0.979034 -0.203695 0.196013 0.980601 127 87.5644)" stroke="#F8CD17" stroke-width="7" stroke-linecap="round"/>
<line x1="3.5" y1="-3.5" x2="15.7863" y2="-3.5" transform="matrix(0.930419 0.366499 -0.353948 0.935265 -10 73.4409)" stroke="#F8CD17" stroke-width="7" stroke-linecap="round"/>
<line x1="3.5" y1="-3.5" x2="15.7412" y2="-3.5" transform="matrix(0.992232 0.124405 -0.119593 0.992823 150.426 89.0411)" stroke="#F8CD17" stroke-width="7" stroke-linecap="round"/>
<line x1="3.5" y1="-3.5" x2="15.7445" y2="-3.5" transform="matrix(0.987915 -0.154996 0.149051 0.98883 45.4662 52.961)" stroke="#F8CD17" stroke-width="7" stroke-linecap="round"/>
<line x1="3.5" y1="-3.5" x2="15.7354" y2="-3.5" transform="matrix(0.993831 -0.110905 0.106603 0.994302 78.8262 86.8469)" stroke="#F8CD17" stroke-width="7" stroke-linecap="round"/>
<line x1="3.5" y1="-3.5" x2="15.7354" y2="-3.5" transform="matrix(0.998422 -0.056165 0.0539671 0.998543 107.958 69.9469)" stroke="#F8CD17" stroke-width="7" stroke-linecap="round"/>
<line x1="3.5" y1="-3.5" x2="15.8543" y2="-3.5" transform="matrix(0.837731 -0.545564 0.530561 0.847976 20.7388 80.4511)" stroke="#E8A20E" stroke-width="7" stroke-linecap="round"/>
<line x1="3.5" y1="-3.5" x2="15.7512" y2="-3.5" transform="matrix(0.981965 -0.188417 0.181313 0.983545 82.1642 90.3636)" stroke="#E8A20E" stroke-width="7" stroke-linecap="round"/>
<line x1="3.5" y1="-3.5" x2="15.7672" y2="-3.5" transform="matrix(0.952673 0.304556 -0.293554 0.955771 1.50745 50.2167)" stroke="#E8A20E" stroke-width="7" stroke-linecap="round"/>
<line x1="3.5" y1="-3.5" x2="15.7512" y2="-3.5" transform="matrix(0.981965 -0.188417 0.181313 0.983545 132.773 88.0822)" stroke="#F9C120" stroke-width="7" stroke-linecap="round"/>
<line x1="3.5" y1="-3.5" x2="15.7864" y2="-3.5" transform="matrix(0.924821 0.380951 -0.367908 0.929645 -4 71.8258)" stroke="#F9C120" stroke-width="7" stroke-linecap="round"/>
<line x1="3.5" y1="-3.5" x2="15.7672" y2="-3.5" transform="matrix(0.952673 0.304556 -0.293554 0.955771 52.1157 47.9354)" stroke="#F9C120" stroke-width="7" stroke-linecap="round"/>
<line x1="3.5" y1="-3.5" x2="15.7839" y2="-3.5" transform="matrix(0.928365 0.372219 -0.359387 0.932976 52.0876 95.0375)" stroke="#E8A20E" stroke-width="7" stroke-linecap="round"/>
<line x1="3.5" y1="-3.5" x2="15.7685" y2="-3.5" transform="matrix(0.95087 0.310148 -0.298982 0.954084 42.5432 71.7975)" stroke="#E8A20E" stroke-width="7" stroke-linecap="round"/>
<line x1="1.5" y1="-1.5" x2="4.80506" y2="-1.5" transform="matrix(-0.983671 -0.122602 0.178985 -0.992793 30.9966 60.5104)" stroke="#FFF5AB" stroke-width="3" stroke-linecap="round"/>
<line x1="1.5" y1="-1.5" x2="4.89872" y2="-1.5" transform="matrix(-0.972259 0.208367 -0.163618 -0.992696 9.46082 92.9582)" stroke="#FFF5AB" stroke-width="3" stroke-linecap="round"/>
<line x1="1.5" y1="-1.5" x2="4.93168" y2="-1.5" transform="matrix(-0.912066 0.404021 -0.376452 -0.929355 57.8927 37.4805)" stroke="#FFF5AB" stroke-width="3" stroke-linecap="round"/>
<line x1="1.5" y1="-1.5" x2="4.91527" y2="-1.5" transform="matrix(-0.952362 0.290109 -0.251911 -0.972733 84.1495 88.1572)" stroke="#FFF5AB" stroke-width="3" stroke-linecap="round"/>
<line x1="1.5" y1="-1.5" x2="4.92424" y2="-1.5" transform="matrix(-0.934868 0.344969 -0.311723 -0.954225 115.333 77.5279)" stroke="#FFF5AB" stroke-width="3" stroke-linecap="round"/>
<line x1="2.5" y1="-2.5" x2="10.6529" y2="-2.5" transform="matrix(0.999812 0.0193788 -0.0186185 0.999827 2.92468 70.2528)" stroke="#FAD26C" stroke-width="5" stroke-linecap="round"/>
<line x1="2.5" y1="-2.5" x2="10.6529" y2="-2.5" transform="matrix(0.996685 0.0813565 -0.0781832 0.996939 88.9445 72.9057)" stroke="#FAD26C" stroke-width="5" stroke-linecap="round"/>
<line x1="2.5" y1="-2.5" x2="10.6798" y2="-2.5" transform="matrix(0.946806 0.321805 -0.310414 0.950602 100.261 53.9765)" stroke="#FAD26C" stroke-width="5" stroke-linecap="round"/>
<line x1="18.8384" y1="40.7263" x2="26.9095" y2="41.9184" stroke="#FAD26C" stroke-width="5" stroke-linecap="round"/>
<line x1="1.5" y1="-1.5" x2="4.91938" y2="-1.5" transform="matrix(-0.932966 -0.360003 0.347601 -0.937628 79.0256 44.7097)" stroke="#FEED6F" stroke-width="3" stroke-linecap="round"/>
<line x1="1.5" y1="-1.5" x2="4.83461" y2="-1.5" transform="matrix(-0.973044 -0.230619 0.31673 -0.948516 44.071 43.2749)" stroke="#FEED6F" stroke-width="3" stroke-linecap="round"/>
<line x1="2.5" y1="-2.5" x2="10.6666" y2="-2.5" transform="matrix(0.973251 -0.229744 0.221177 0.975234 3 61.6905)" stroke="#FAD26C" stroke-width="5" stroke-linecap="round"/>
<line x1="2.5" y1="-2.5" x2="10.6592" y2="-2.5" transform="matrix(0.987905 -0.155059 0.149111 0.98882 30.9072 75.4814)" stroke="#FAD26C" stroke-width="5" stroke-linecap="round"/>
<line x1="3" y1="-3" x2="16.2354" y2="-3" transform="matrix(-0.987763 -0.155963 -0.155963 0.987763 612.756 82)" stroke="#FEED6F" stroke-width="6" stroke-linecap="round"/>
<line x1="3" y1="-3" x2="16.2354" y2="-3" transform="matrix(-0.979833 -0.19982 -0.19982 0.979833 579.793 82.0163)" stroke="#FEED6F" stroke-width="6" stroke-linecap="round"/>
<line x1="3" y1="-3" x2="16.2354" y2="-3" transform="matrix(-0.979833 -0.19982 -0.19982 0.979833 512.756 95.8437)" stroke="#FEED6F" stroke-width="6" stroke-linecap="round"/>
<line x1="3" y1="-3" x2="16.2354" y2="-3" transform="matrix(-0.992533 0.121976 0.121976 0.992533 489.329 97.291)" stroke="#FEED6F" stroke-width="6" stroke-linecap="round"/>
<line x1="3" y1="-3" x2="16.2354" y2="-3" transform="matrix(-0.988381 -0.151996 -0.151996 0.988381 594.29 61.926)" stroke="#FEED6F" stroke-width="6" stroke-linecap="round"/>
<line x1="3" y1="-3" x2="16.2354" y2="-3" transform="matrix(-0.994071 -0.108733 -0.108733 0.994071 560.93 95.1403)" stroke="#FEED6F" stroke-width="6" stroke-linecap="round"/>
<line x1="3" y1="-3" x2="16.2354" y2="-3" transform="matrix(-0.998483 -0.0550551 -0.0550551 0.998483 531.798 78.5753)" stroke="#FEED6F" stroke-width="6" stroke-linecap="round"/>
<line x1="3.5" y1="-3.5" x2="15.7354" y2="-3.5" transform="matrix(-0.979833 -0.19982 -0.19982 0.979833 589.793 72.0163)" stroke="#F8CD17" stroke-width="7" stroke-linecap="round"/>
<line x1="3.5" y1="-3.5" x2="15.7354" y2="-3.5" transform="matrix(-0.979833 -0.19982 -0.19982 0.979833 522.756 85.8436)" stroke="#F8CD17" stroke-width="7" stroke-linecap="round"/>
<line x1="3.5" y1="-3.5" x2="15.7354" y2="-3.5" transform="matrix(-0.992533 0.121976 0.121976 0.992533 499.329 87.291)" stroke="#F8CD17" stroke-width="7" stroke-linecap="round"/>
<line x1="3.5" y1="-3.5" x2="15.7354" y2="-3.5" transform="matrix(-0.988381 -0.151996 -0.151996 0.988381 604.29 51.926)" stroke="#F8CD17" stroke-width="7" stroke-linecap="round"/>
<line x1="3.5" y1="-3.5" x2="15.7354" y2="-3.5" transform="matrix(-0.994071 -0.108733 -0.108733 0.994071 570.93 85.1403)" stroke="#F8CD17" stroke-width="7" stroke-linecap="round"/>
<line x1="3.5" y1="-3.5" x2="15.7354" y2="-3.5" transform="matrix(-0.998483 -0.0550551 -0.0550551 0.998483 541.798 68.5753)" stroke="#F8CD17" stroke-width="7" stroke-linecap="round"/>
<line x1="3.5" y1="-3.5" x2="15.7354" y2="-3.5" transform="matrix(-0.98277 -0.184834 -0.184834 0.98277 567.591 88.5872)" stroke="#E8A20E" stroke-width="7" stroke-linecap="round"/>
<line x1="3.5" y1="-3.5" x2="15.7354" y2="-3.5" transform="matrix(-0.98277 -0.184834 -0.184834 0.98277 516.983 86.3511)" stroke="#F9C120" stroke-width="7" stroke-linecap="round"/>
<line x1="3.5" y1="-3.5" x2="15.7354" y2="-3.5" transform="matrix(-0.954249 0.299013 0.299013 0.954249 597.64 47)" stroke="#F9C120" stroke-width="7" stroke-linecap="round"/>
<line x1="3.5" y1="-3.5" x2="15.7354" y2="-3.5" transform="matrix(-0.930708 0.365763 0.365763 0.930708 597.668 93.1686)" stroke="#E8A20E" stroke-width="7" stroke-linecap="round"/>
<line x1="3.5" y1="-3.5" x2="15.7354" y2="-3.5" transform="matrix(-0.952505 0.304523 0.304523 0.952505 607.213 70.3892)" stroke="#E8A20E" stroke-width="7" stroke-linecap="round"/>
<line x1="1.5" y1="-1.5" x2="4.89521" y2="-1.5" transform="matrix(0.917268 0.398272 0.381931 -0.924191 591.863 36.7523)" stroke="#FFF5AB" stroke-width="3" stroke-linecap="round"/>
<line x1="1.5" y1="-1.5" x2="4.87618" y2="-1.5" transform="matrix(0.958199 0.286101 0.255444 -0.966824 565.606 86.4246)" stroke="#FFF5AB" stroke-width="3" stroke-linecap="round"/>
<line x1="1.5" y1="-1.5" x2="4.88658" y2="-1.5" transform="matrix(0.94038 0.340125 0.316184 -0.948698 534.422 76.006)" stroke="#FFF5AB" stroke-width="3" stroke-linecap="round"/>
<line x1="2.5" y1="-2.5" x2="10.6529" y2="-2.5" transform="matrix(-0.996815 0.0797543 0.0797543 0.996815 560.811 71.4755)" stroke="#FAD26C" stroke-width="5" stroke-linecap="round"/>
<line x1="2.5" y1="-2.5" x2="10.6529" y2="-2.5" transform="matrix(-0.948736 0.316069 0.316069 0.948736 549.495 52.9214)" stroke="#FAD26C" stroke-width="5" stroke-linecap="round"/>
<line x1="1.5" y1="-1.5" x2="4.828" y2="-1.5" transform="matrix(0.974061 -0.226284 -0.322474 -0.946578 525.685 72.4319)" stroke="#FEED6F" stroke-width="3" stroke-linecap="round"/>
<line x1="2.5" y1="-2.5" x2="10.6529" y2="-2.5" transform="matrix(-0.974261 -0.225424 -0.225424 0.974261 566.756 90.4825)" stroke="#FAD26C" stroke-width="5" stroke-linecap="round"/>
<line x1="2.5" y1="-2.5" x2="10.6529" y2="-2.5" transform="matrix(-0.988372 -0.152057 -0.152057 0.988372 538.849 104)" stroke="#FAD26C" stroke-width="5" stroke-linecap="round"/>
</g>
<defs>
<linearGradient id="paint0_linear" x1="100.383" y1="28" x2="100.383" y2="164.335" gradientUnits="userSpaceOnUse">
<stop stop-color="#F2AF03"/>
<stop offset="1" stop-color="#F9C120"/>
</linearGradient>
<linearGradient id="paint1_linear" x1="325.294" y1="40.8528" x2="325.294" y2="172.496" gradientUnits="userSpaceOnUse">
<stop stop-color="#F8D74B"/>
<stop offset="1" stop-color="#F7AB09"/>
</linearGradient>
<linearGradient id="paint2_linear" x1="548.383" y1="30.2226" x2="548.383" y2="161.557" gradientUnits="userSpaceOnUse">
<stop stop-color="#F2AF03"/>
<stop offset="1" stop-color="#F9C120"/>
</linearGradient>
<clipPath id="clip0">
<rect width="600" height="100" fill="white"/>
</clipPath>
</defs>
</svg>
