<svg width="125" height="18" viewBox="0 0 125 18" fill="none" xmlns="http://www.w3.org/2000/svg">
<circle cx="16.6001" cy="6.53297" r="4.53121" transform="rotate(45 16.6001 6.53297)" fill="#F33636"/>
<rect x="13.5645" y="3.16016" width="9.06242" height="11.9242" transform="rotate(45 13.5645 3.16016)" fill="#F33636"/>
<circle cx="6.4081" cy="6.40808" r="4.53121" transform="rotate(-45 6.4081 6.40808)" fill="#F33636"/>
<rect x="3.03516" y="9.4436" width="9.06242" height="11.9242" transform="rotate(-45 3.03516 9.4436)" fill="#F33636"/>
<circle cx="42.6001" cy="6.53297" r="4.53121" transform="rotate(45 42.6001 6.53297)" fill="#F33636"/>
<rect x="39.5645" y="3.16016" width="9.06242" height="11.9242" transform="rotate(45 39.5645 3.16016)" fill="#F33636"/>
<circle cx="32.4081" cy="6.40808" r="4.53121" transform="rotate(-45 32.4081 6.40808)" fill="#F33636"/>
<rect x="29.0352" y="9.4436" width="9.06242" height="11.9242" transform="rotate(-45 29.0352 9.4436)" fill="#F33636"/>
<circle cx="68.6001" cy="6.53297" r="4.53121" transform="rotate(45 68.6001 6.53297)" fill="#F33636"/>
<rect x="65.5645" y="3.16016" width="9.06242" height="11.9242" transform="rotate(45 65.5645 3.16016)" fill="#F33636"/>
<circle cx="58.4081" cy="6.40808" r="4.53121" transform="rotate(-45 58.4081 6.40808)" fill="#F33636"/>
<rect x="55.0352" y="9.4436" width="9.06242" height="11.9242" transform="rotate(-45 55.0352 9.4436)" fill="#F33636"/>
<circle cx="94.6001" cy="6.53297" r="4.53121" transform="rotate(45 94.6001 6.53297)" fill="#F33636"/>
<rect x="91.5645" y="3.16016" width="9.06242" height="11.9242" transform="rotate(45 91.5645 3.16016)" fill="#F33636"/>
<circle cx="84.4081" cy="6.40808" r="4.53121" transform="rotate(-45 84.4081 6.40808)" fill="#F33636"/>
<rect x="81.0352" y="9.4436" width="9.06242" height="11.9242" transform="rotate(-45 81.0352 9.4436)" fill="#F33636"/>
<circle cx="117.6" cy="6.53297" r="4.53121" transform="rotate(45 117.6 6.53297)" fill="#F33636"/>
<rect x="114.564" y="3.16016" width="9.06242" height="11.9242" transform="rotate(45 114.564 3.16016)" fill="#F33636"/>
<circle cx="107.408" cy="6.40808" r="4.53121" transform="rotate(-45 107.408 6.40808)" fill="#F33636"/>
<rect x="104.035" y="9.4436" width="9.06242" height="11.9242" transform="rotate(-45 104.035 9.4436)" fill="#F33636"/>
</svg>
