<svg width="391" height="57" viewBox="0 0 391 57" fill="none" xmlns="http://www.w3.org/2000/svg">
<path d="M385.57 15L384.24 12.93H383.57V15H382.44V9.42004H384.44C385.69 9.42004 386.51 9.88004 386.51 11.13C386.519 11.4666 386.415 11.7965 386.216 12.068C386.017 12.3394 385.734 12.5371 385.41 12.63V12.63L387 15H385.57ZM384.28 10.26H383.57V12.12H384.28C384.96 12.12 385.28 11.9 385.28 11.19C385.28 10.48 385 10.22 384.28 10.22V10.26Z" fill="white"/>
<path d="M378.43 12.45C378.43 13.6268 378.779 14.7772 379.432 15.7556C380.086 16.7341 381.016 17.4967 382.103 17.9471C383.19 18.3974 384.386 18.5153 385.54 18.2857C386.695 18.0561 387.755 17.4894 388.587 16.6573C389.419 15.8252 389.986 14.765 390.215 13.6108C390.445 12.4566 390.327 11.2603 389.877 10.173C389.426 9.08581 388.664 8.15655 387.685 7.50276C386.707 6.84896 385.556 6.5 384.38 6.5C382.806 6.51306 381.3 7.14413 380.187 8.25715C379.074 9.37017 378.443 10.876 378.43 12.45ZM379.59 12.45C379.59 11.5026 379.871 10.5765 380.397 9.78882C380.923 9.00111 381.671 8.38716 382.547 8.02462C383.422 7.66207 384.385 7.56722 385.314 7.75204C386.243 7.93686 387.097 8.39307 387.767 9.06296C388.437 9.73285 388.893 10.5863 389.078 11.5155C389.262 12.4447 389.168 13.4078 388.805 14.2831C388.443 15.1583 387.829 15.9064 387.041 16.4327C386.253 16.9591 385.327 17.24 384.38 17.24C383.11 17.2374 381.893 16.7318 380.996 15.8341C380.098 14.9364 379.592 13.7196 379.59 12.45V12.45Z" fill="white"/>
<path d="M246.41 11.9399C246.413 10.6792 246.915 9.47109 247.808 8.58058C248.7 7.69006 249.909 7.18994 251.17 7.18994C252.43 7.18994 253.638 7.69039 254.529 8.58118C255.42 9.47198 255.92 10.6802 255.92 11.9399V11.9399C255.92 13.1997 255.42 14.4079 254.529 15.2987C253.638 16.1895 252.43 16.6899 251.17 16.6899V16.6899C250.546 16.6913 249.927 16.5694 249.349 16.3312C248.772 16.0931 248.247 15.7434 247.805 15.3022C247.363 14.861 247.012 14.3369 246.773 13.76C246.533 13.1831 246.41 12.5646 246.41 11.9399V11.9399Z" fill="white"/>
<path d="M292.77 36.5699C292.77 35.3075 293.272 34.0968 294.164 33.2041C295.057 32.3114 296.268 31.8099 297.53 31.8099V31.8099C298.791 31.8126 299.999 32.3153 300.889 33.2076C301.78 34.1 302.28 35.3092 302.28 36.5699V36.5699C302.28 37.8297 301.78 39.0379 300.889 39.9287C299.998 40.8195 298.79 41.3199 297.53 41.3199V41.3199C296.269 41.3199 295.06 40.8198 294.168 39.9293C293.275 39.0388 292.773 37.8306 292.77 36.5699Z" fill="white"/>
<path d="M246.41 44.86C246.41 44.2354 246.533 43.6169 246.773 43.0399C247.012 42.463 247.363 41.9389 247.805 41.4977C248.247 41.0565 248.772 40.7068 249.349 40.4687C249.927 40.2306 250.546 40.1087 251.17 40.11V40.11C252.43 40.11 253.638 40.6104 254.529 41.5012C255.42 42.392 255.92 43.6002 255.92 44.86V44.86C255.92 46.1198 255.42 47.328 254.529 48.2188C253.638 49.1096 252.43 49.61 251.17 49.61V49.61C249.909 49.61 248.7 49.1099 247.808 48.2194C246.915 47.3288 246.413 46.1207 246.41 44.86V44.86Z" fill="white"/>
<path d="M246.41 33.88C246.411 33.2562 246.536 32.6388 246.776 32.063C247.015 31.4872 247.366 30.9643 247.808 30.5242C248.25 30.084 248.775 29.7353 249.352 29.4978C249.928 29.2603 250.546 29.1387 251.17 29.14V29.14C252.428 29.14 253.635 29.6391 254.525 30.5277C255.416 31.4164 255.918 32.622 255.92 33.88V33.88C255.92 35.1407 255.42 36.3499 254.53 37.2423C253.639 38.1347 252.431 38.6374 251.17 38.64V38.64C249.908 38.64 248.697 38.1385 247.804 37.2459C246.912 36.3532 246.41 35.1425 246.41 33.88V33.88Z" fill="white"/>
<path d="M246.41 22.92C246.41 21.6576 246.912 20.4469 247.804 19.5542C248.697 18.6615 249.908 18.16 251.17 18.16C252.431 18.1627 253.639 18.6654 254.53 19.5577C255.42 20.4501 255.92 21.6593 255.92 22.92V22.92C255.92 24.1798 255.42 25.388 254.529 26.2788C253.638 27.1696 252.43 27.67 251.17 27.67V27.67C249.909 27.67 248.7 27.1699 247.808 26.2794C246.915 25.3889 246.413 24.1807 246.41 22.92V22.92Z" fill="white"/>
<path d="M303 11.9399C303 10.6802 303.5 9.47198 304.391 8.58118C305.282 7.69039 306.49 7.18994 307.75 7.18994V7.18994C309.01 7.18994 310.218 7.69039 311.109 8.58118C312 9.47198 312.5 10.6802 312.5 11.9399V11.9399C312.501 12.5641 312.379 13.1824 312.141 13.7592C311.903 14.3361 311.553 14.8603 311.112 15.3016C310.67 15.743 310.146 16.0928 309.569 16.3311C308.992 16.5693 308.374 16.6913 307.75 16.6899V16.6899C306.49 16.6899 305.282 16.1895 304.391 15.2987C303.5 14.4079 303 13.1997 303 11.9399V11.9399Z" fill="white"/>
<path d="M303 44.86C303 43.6002 303.5 42.392 304.391 41.5012C305.282 40.6104 306.49 40.11 307.75 40.11V40.11C308.374 40.1087 308.992 40.2306 309.569 40.4689C310.146 40.7071 310.67 41.057 311.112 41.4983C311.553 41.9396 311.903 42.4638 312.141 43.0407C312.379 43.6176 312.501 44.2358 312.5 44.86V44.86C312.5 46.1198 312 47.328 311.109 48.2188C310.218 49.1096 309.01 49.61 307.75 49.61V49.61C306.49 49.61 305.282 49.1096 304.391 48.2188C303.5 47.328 303 46.1198 303 44.86V44.86Z" fill="white"/>
<path d="M303 33.88C303.003 32.622 303.504 31.4164 304.395 30.5277C305.285 29.6391 306.492 29.14 307.75 29.14V29.14C309.008 29.14 310.215 29.6391 311.105 30.5277C311.996 31.4164 312.497 32.622 312.5 33.88V33.88C312.501 34.5046 312.379 35.1234 312.141 35.7008C311.903 36.2783 311.554 36.8031 311.112 37.2452C310.671 37.6874 310.147 38.0382 309.57 38.2775C308.993 38.5168 308.375 38.64 307.75 38.64V38.64C306.489 38.6374 305.281 38.1347 304.391 37.2423C303.5 36.3499 303 35.1407 303 33.88V33.88Z" fill="white"/>
<path d="M303 22.92C303 21.6593 303.5 20.4501 304.391 19.5577C305.281 18.6654 306.489 18.1627 307.75 18.16V18.16C308.375 18.16 308.993 18.2832 309.57 18.5226C310.147 18.7619 310.671 19.1127 311.112 19.5548C311.554 19.9969 311.903 20.5218 312.141 21.0992C312.379 21.6767 312.501 22.2954 312.5 22.92V22.92C312.5 24.1798 312 25.388 311.109 26.2788C310.218 27.1696 309.01 27.67 307.75 27.67V27.67C306.49 27.67 305.282 27.1696 304.391 26.2788C303.5 25.388 303 24.1798 303 22.92V22.92Z" fill="white"/>
<path d="M267.72 12C267.72 10.7402 268.22 9.53205 269.111 8.64125C270.002 7.75046 271.21 7.25001 272.47 7.25001V7.25001C273.094 7.24869 273.712 7.37066 274.289 7.6089C274.866 7.84714 275.39 8.19697 275.831 8.63831C276.273 9.07966 276.623 9.60381 276.861 10.1807C277.099 10.7576 277.221 11.3759 277.22 12C277.22 13.2598 276.719 14.468 275.828 15.3588C274.938 16.2496 273.73 16.75 272.47 16.75V16.75C271.21 16.75 270.002 16.2496 269.111 15.3588C268.22 14.468 267.72 13.2598 267.72 12V12Z" fill="white"/>
<path d="M267.72 44.86C267.72 43.6002 268.22 42.392 269.111 41.5012C270.002 40.6104 271.21 40.11 272.47 40.11V40.11C273.73 40.11 274.938 40.6104 275.828 41.5012C276.719 42.392 277.22 43.6002 277.22 44.86V44.86C277.221 45.4846 277.099 46.1034 276.861 46.6808C276.623 47.2583 276.273 47.7831 275.832 48.2252C275.391 48.6673 274.867 49.0181 274.29 49.2575C273.713 49.4968 273.094 49.62 272.47 49.62V49.62C271.209 49.6173 270.001 49.1147 269.11 48.2223C268.22 47.3299 267.72 46.1207 267.72 44.86Z" fill="white"/>
<path d="M267.72 33.89C267.72 32.6302 268.22 31.4221 269.111 30.5313C270.002 29.6405 271.21 29.14 272.47 29.14V29.14C273.73 29.14 274.938 29.6405 275.828 30.5313C276.719 31.4221 277.22 32.6302 277.22 33.89V33.89C277.22 35.1498 276.719 36.358 275.828 37.2488C274.938 38.1396 273.73 38.64 272.47 38.64V38.64C271.21 38.64 270.002 38.1396 269.111 37.2488C268.22 36.358 267.72 35.1498 267.72 33.89V33.89Z" fill="white"/>
<path d="M267.72 22.92C267.72 21.6603 268.22 20.4521 269.111 19.5613C270.002 18.6705 271.21 18.17 272.47 18.17V18.17C273.73 18.17 274.938 18.6705 275.828 19.5613C276.719 20.4521 277.22 21.6603 277.22 22.92V22.92C277.221 23.5442 277.099 24.1625 276.861 24.7393C276.623 25.3162 276.273 25.8404 275.831 26.2817C275.39 26.7231 274.866 27.0729 274.289 27.3112C273.712 27.5494 273.094 27.6714 272.47 27.67V27.67C271.21 27.67 270.002 27.1696 269.111 26.2788C268.22 25.388 267.72 24.1798 267.72 22.92V22.92Z" fill="white"/>
<path d="M202.48 11.2601C202.479 10.6359 202.601 10.0176 202.839 9.44075C203.077 8.86385 203.427 8.3397 203.868 7.89836C204.31 7.45701 204.834 7.10718 205.411 6.86894C205.988 6.6307 206.606 6.50873 207.23 6.51005C207.855 6.50742 208.475 6.62834 209.054 6.86587C209.632 7.1034 210.158 7.45286 210.602 7.8942C211.045 8.33554 211.397 8.86007 211.637 9.43767C211.876 10.0153 212 10.6346 212 11.2601V11.2601C211.999 11.8847 211.874 12.5029 211.634 13.0794C211.393 13.6558 211.041 14.1791 210.598 14.6194C210.155 15.0597 209.63 15.4083 209.052 15.6452C208.474 15.8821 207.855 16.0027 207.23 16.0001V16.0001C205.97 16.0001 204.762 15.4996 203.871 14.6088C202.98 13.718 202.48 12.5098 202.48 11.2501V11.2601Z" fill="white"/>
<path d="M191.11 14.3199C191.109 13.6953 191.23 13.0766 191.469 12.4991C191.707 11.9217 192.056 11.3969 192.498 10.9547C192.939 10.5126 193.463 10.1618 194.04 9.92246C194.617 9.68313 195.235 9.55994 195.86 9.55994V9.55994C197.121 9.56259 198.329 10.0653 199.219 10.9576C200.11 11.85 200.61 13.0592 200.61 14.3199C200.61 15.5797 200.109 16.7879 199.219 17.6787C198.328 18.5695 197.12 19.0699 195.86 19.0699V19.0699C194.6 19.0699 193.392 18.5695 192.501 17.6787C191.61 16.7879 191.11 15.5797 191.11 14.3199V14.3199Z" fill="white"/>
<path d="M213.68 11.26C213.68 9.9993 214.18 8.79009 215.07 7.8977C215.961 7.00532 217.169 6.50265 218.43 6.5C219.69 6.50265 220.899 7.00532 221.789 7.8977C222.68 8.79009 223.18 9.9993 223.18 11.26C223.177 12.518 222.675 13.7237 221.785 14.6123C220.894 15.5009 219.688 16 218.43 16V16C217.17 16 215.962 15.4996 215.071 14.6088C214.18 13.718 213.68 12.5098 213.68 11.25V11.26Z" fill="white"/>
<path d="M224.42 14C224.423 12.7393 224.925 11.5311 225.818 10.6406C226.71 9.75012 227.919 9.25 229.18 9.25C230.44 9.25 231.648 9.75045 232.539 10.6412C233.429 11.532 233.93 12.7402 233.93 14C233.93 15.2598 233.429 16.468 232.539 17.3588C231.648 18.2496 230.44 18.75 229.18 18.75V18.75C228.555 18.7513 227.937 18.6294 227.359 18.3913C226.782 18.1532 226.257 17.8035 225.815 17.3623C225.373 16.9211 225.022 16.397 224.782 15.8201C224.543 15.2431 224.42 14.6246 224.42 14V14Z" fill="white"/>
<path d="M191.18 24.75C191.203 23.4937 191.724 22.2979 192.627 21.4245C193.531 20.5511 194.743 20.0713 196 20.09V20.09C197.259 20.1189 198.455 20.6455 199.327 21.5545C200.198 22.4635 200.674 23.6809 200.65 24.94V24.94C200.638 25.5647 200.503 26.1809 200.253 26.7534C200.003 27.3259 199.642 27.8434 199.192 28.2763C198.741 28.7091 198.21 29.0489 197.628 29.276C197.046 29.5032 196.424 29.6133 195.8 29.6V29.6C194.541 29.5711 193.345 29.0445 192.473 28.1355C191.601 27.2265 191.126 26.0091 191.15 24.75H191.18Z" fill="white"/>
<path d="M213.74 45.54C213.74 44.2803 214.24 43.0721 215.131 42.1813C216.022 41.2905 217.23 40.79 218.49 40.79V40.79C219.75 40.79 220.96 41.2902 221.852 42.1807C222.744 43.0712 223.247 44.2793 223.25 45.54C223.25 46.8025 222.748 48.0132 221.856 48.9059C220.963 49.7985 219.752 50.3 218.49 50.3V50.3C217.229 50.2974 216.021 49.7947 215.13 48.9023C214.24 48.0099 213.74 46.8007 213.74 45.54V45.54Z" fill="white"/>
<path d="M225.11 42.49C225.109 41.8654 225.23 41.2466 225.469 40.6692C225.707 40.0917 226.056 39.5669 226.498 39.1248C226.939 38.6826 227.463 38.3318 228.04 38.0925C228.617 37.8532 229.235 37.73 229.86 37.73V37.73C231.121 37.7326 232.329 38.2353 233.219 39.1277C234.11 40.0201 234.61 41.2293 234.61 42.49C234.61 43.7498 234.109 44.9579 233.219 45.8487C232.328 46.7395 231.12 47.24 229.86 47.24V47.24C228.6 47.24 227.392 46.7395 226.501 45.8487C225.61 44.9579 225.11 43.7498 225.11 42.49V42.49Z" fill="white"/>
<path d="M225 31.86C225.012 31.2354 225.147 30.6191 225.397 30.0467C225.647 29.4742 226.008 28.9567 226.458 28.5238C226.909 28.0909 227.44 27.7512 228.022 27.524C228.604 27.2969 229.225 27.1868 229.85 27.2V27.2C231.109 27.2289 232.305 27.7555 233.177 28.6646C234.048 29.5736 234.524 30.7909 234.5 32.05C234.488 32.6743 234.354 33.29 234.103 33.862C233.853 34.4339 233.492 34.9508 233.041 35.3828C232.591 35.8149 232.059 36.1537 231.477 36.3797C230.895 36.6058 230.274 36.7146 229.65 36.7V36.7C229.027 36.6883 228.412 36.5538 227.841 36.3041C227.269 36.0544 226.753 35.6944 226.321 35.2448C225.889 34.7952 225.55 34.2648 225.323 33.684C225.097 33.1032 224.987 32.4834 225 31.86V31.86Z" fill="white"/>
<path d="M213.74 29.41C213.752 28.7857 213.887 28.17 214.137 27.598C214.387 27.0261 214.748 26.5093 215.199 26.0772C215.65 25.6451 216.181 25.3063 216.763 25.0803C217.345 24.8542 217.966 24.7454 218.59 24.76V24.76C219.213 24.7717 219.828 24.9062 220.4 25.1559C220.971 25.4056 221.487 25.7656 221.919 26.2152C222.351 26.6648 222.69 27.1952 222.917 27.776C223.144 28.3568 223.253 28.9766 223.24 29.6C223.214 30.8607 222.688 32.0595 221.779 32.9332C220.87 33.8069 219.651 34.2841 218.39 34.26V34.26C217.131 34.2311 215.935 33.7045 215.063 32.7955C214.192 31.8864 213.716 30.6691 213.74 29.41V29.41Z" fill="white"/>
<path d="M202.46 27.38C202.489 26.121 203.015 24.9247 203.924 24.0532C204.833 23.1817 206.051 22.7059 207.31 22.73V22.73C207.938 22.7365 208.558 22.8675 209.134 23.1155C209.711 23.3635 210.232 23.7236 210.669 24.1747C211.105 24.6259 211.447 25.1593 211.676 25.7438C211.904 26.3284 212.015 26.9525 212 27.58V27.58C211.974 28.8381 211.449 30.0344 210.542 30.9062C209.634 31.778 208.418 32.2541 207.16 32.23V32.23C205.899 32.2037 204.7 31.6783 203.827 30.769C202.953 29.8596 202.476 28.6408 202.5 27.38H202.46Z" fill="white"/>
<path d="M202.54 45.55C202.54 44.2893 203.04 43.0801 203.931 42.1877C204.821 41.2954 206.029 40.7927 207.29 40.79C208.544 40.8032 209.742 41.3105 210.624 42.2018C211.505 43.093 212 44.2962 212 45.55V45.55C212 46.8098 211.5 48.018 210.609 48.9088C209.718 49.7996 208.51 50.3 207.25 50.3V50.3C205.99 50.3 204.782 49.7996 203.891 48.9088C203 48.018 202.5 46.8098 202.5 45.55H202.54Z" fill="white"/>
<path d="M191.79 42.8C191.79 41.5403 192.29 40.3321 193.181 39.4413C194.072 38.5505 195.28 38.05 196.54 38.05V38.05C197.801 38.05 199.01 38.5502 199.902 39.4407C200.795 40.3312 201.297 41.5394 201.3 42.8C201.3 43.4247 201.177 44.0432 200.938 44.6201C200.698 45.1971 200.347 45.7211 199.905 46.1623C199.463 46.6036 198.938 46.9532 198.361 47.1914C197.783 47.4295 197.165 47.5514 196.54 47.55V47.55C195.28 47.55 194.072 47.0496 193.181 46.1588C192.29 45.268 191.79 44.0598 191.79 42.8V42.8Z" fill="white"/>
<path d="M96.1797 11.9399C96.1823 10.6792 96.685 9.47109 97.5774 8.58058C98.4698 7.69006 99.679 7.18994 100.94 7.18994V7.18994C102.199 7.18994 103.408 7.69039 104.298 8.58118C105.189 9.47198 105.69 10.6802 105.69 11.9399V11.9399C105.69 13.2006 105.19 14.4099 104.299 15.3022C103.409 16.1946 102.2 16.6973 100.94 16.6999V16.6999C99.6773 16.6999 98.4665 16.1984 97.5739 15.3058C96.6812 14.4131 96.1797 13.2024 96.1797 11.9399Z" fill="white"/>
<path d="M86.9199 18.12C86.9199 16.8602 87.4204 15.652 88.3112 14.7612C89.202 13.8705 90.4101 13.37 91.6699 13.37V13.37C92.2941 13.3687 92.9123 13.4907 93.4892 13.7289C94.0661 13.9671 94.5903 14.317 95.0316 14.7583C95.473 15.1997 95.8228 15.7238 96.061 16.3007C96.2993 16.8776 96.4212 17.4959 96.4199 18.12V18.12C96.4199 19.3798 95.9195 20.588 95.0287 21.4788C94.1379 22.3696 92.9297 22.87 91.6699 22.87V22.87C90.4101 22.87 89.202 22.3696 88.3112 21.4788C87.4204 20.588 86.9199 19.3798 86.9199 18.12V18.12Z" fill="white"/>
<path d="M83.1499 28.4C83.1499 27.1402 83.6503 25.9321 84.5411 25.0413C85.4319 24.1505 86.6401 23.65 87.8999 23.65V23.65C89.1597 23.65 90.3679 24.1505 91.2587 25.0413C92.1495 25.9321 92.6499 27.1402 92.6499 28.4V28.4C92.6499 29.6598 92.1495 30.868 91.2587 31.7588C90.3679 32.6496 89.1597 33.15 87.8999 33.15V33.15C86.6401 33.15 85.4319 32.6496 84.5411 31.7588C83.6503 30.868 83.1499 29.6598 83.1499 28.4V28.4Z" fill="white"/>
<path d="M107.39 11.26C107.389 10.6354 107.511 10.0166 107.749 9.43918C107.987 8.86173 108.337 8.33691 108.778 7.89478C109.219 7.45264 109.743 7.10186 110.32 6.86253C110.897 6.62319 111.516 6.5 112.14 6.5V6.5C113.401 6.50265 114.609 7.00532 115.5 7.8977C116.39 8.79009 116.89 9.9993 116.89 11.26V11.26C116.887 12.518 116.386 13.7237 115.495 14.6123C114.605 15.5009 113.398 16 112.14 16V16C110.88 16 109.672 15.4996 108.781 14.6088C107.891 13.718 107.39 12.5098 107.39 11.25V11.26Z" fill="white"/>
<path d="M118.14 14C118.14 12.742 118.639 11.5353 119.528 10.6448C120.416 9.75427 121.622 9.25266 122.88 9.25001V9.25001C123.505 9.2487 124.124 9.37059 124.701 9.60871C125.278 9.84683 125.803 10.1965 126.245 10.6377C126.687 11.0789 127.038 11.603 127.278 12.18C127.517 12.7569 127.64 13.3754 127.64 14V14C127.64 14.6246 127.517 15.2431 127.278 15.8201C127.038 16.397 126.687 16.9211 126.245 17.3623C125.803 17.8035 125.278 18.1532 124.701 18.3913C124.124 18.6294 123.505 18.7513 122.88 18.75V18.75C121.622 18.7474 120.416 18.2457 119.528 17.3552C118.639 16.4647 118.14 15.2581 118.14 14V14Z" fill="white"/>
<path d="M96.1797 44.86C96.1797 43.5975 96.6812 42.3868 97.5739 41.4941C98.4665 40.6015 99.6773 40.1 100.94 40.1V40.1C102.2 40.1026 103.409 40.6053 104.299 41.4977C105.19 42.3901 105.69 43.5993 105.69 44.86V44.86C105.69 46.1198 105.189 47.3279 104.298 48.2187C103.408 49.1095 102.199 49.61 100.94 49.61V49.61C99.679 49.61 98.4698 49.1099 97.5774 48.2193C96.685 47.3288 96.1823 46.1207 96.1797 44.86V44.86Z" fill="white"/>
<path d="M86.9199 38.6801C86.9199 37.4203 87.4204 36.2121 88.3112 35.3213C89.202 34.4305 90.4101 33.9301 91.6699 33.9301V33.9301C92.9297 33.9301 94.1379 34.4305 95.0287 35.3213C95.9195 36.2121 96.4199 37.4203 96.4199 38.6801V38.6801C96.4212 39.3042 96.2993 39.9225 96.061 40.4994C95.8228 41.0763 95.473 41.6004 95.0316 42.0418C94.5903 42.4831 94.0661 42.8329 93.4892 43.0712C92.9123 43.3094 92.2941 43.4314 91.6699 43.4301V43.4301C90.4101 43.4301 89.202 42.9296 88.3112 42.0388C87.4204 41.148 86.9199 39.9398 86.9199 38.6801V38.6801Z" fill="white"/>
<path d="M107.39 45.54C107.39 44.2803 107.891 43.0721 108.781 42.1813C109.672 41.2905 110.88 40.79 112.14 40.79V40.79C113.4 40.79 114.608 41.2905 115.499 42.1813C116.39 43.0721 116.89 44.2803 116.89 45.54V45.54C116.89 46.8007 116.39 48.0099 115.5 48.9023C114.609 49.7947 113.401 50.2974 112.14 50.3V50.3C111.516 50.3 110.897 50.1768 110.32 49.9375C109.743 49.6982 109.219 49.3474 108.778 48.9053C108.337 48.4631 107.987 47.9383 107.749 47.3609C107.511 46.7834 107.389 46.1647 107.39 45.54V45.54Z" fill="white"/>
<path d="M118.14 42.7999C118.14 41.5419 118.639 40.3352 119.528 39.4447C120.416 38.5542 121.622 38.0526 122.88 38.0499V38.0499C123.505 38.0486 124.124 38.1705 124.701 38.4086C125.278 38.6468 125.803 38.9964 126.245 39.4376C126.687 39.8788 127.038 40.4029 127.278 40.9799C127.517 41.5568 127.64 42.1753 127.64 42.7999V42.7999C127.637 44.0606 127.135 45.2688 126.242 46.1593C125.35 47.0498 124.141 47.5499 122.88 47.5499V47.5499C121.622 47.5473 120.416 47.0457 119.528 46.1552C118.639 45.2647 118.14 44.058 118.14 42.7999V42.7999Z" fill="white"/>
<path d="M139.11 33.65C139.11 32.3902 139.61 31.1821 140.501 30.2913C141.392 29.4005 142.6 28.9 143.86 28.9V28.9C145.121 28.9 146.33 29.4001 147.222 30.2907C148.115 31.1812 148.617 32.3893 148.62 33.65C148.62 34.2746 148.497 34.8931 148.257 35.4701C148.018 36.047 147.667 36.5711 147.225 37.0123C146.783 37.4535 146.258 37.8032 145.681 38.0413C145.103 38.2794 144.484 38.4013 143.86 38.4V38.4C142.6 38.4 141.392 37.8996 140.501 37.0088C139.61 36.118 139.11 34.9098 139.11 33.65V33.65Z" fill="white"/>
<path d="M143.73 22.63C143.73 21.3702 144.23 20.1621 145.121 19.2713C146.012 18.3805 147.22 17.88 148.48 17.88C149.105 17.8787 149.723 18.0006 150.301 18.2387C150.878 18.4768 151.403 18.8265 151.845 19.2677C152.287 19.7089 152.638 20.233 152.877 20.81C153.117 21.3869 153.24 22.0054 153.24 22.63V22.63C153.237 23.8907 152.735 25.0989 151.842 25.9894C150.95 26.8799 149.741 27.38 148.48 27.38V27.38C147.22 27.38 146.012 26.8796 145.121 25.9888C144.23 25.098 143.73 23.8898 143.73 22.63Z" fill="white"/>
<path d="M149.56 11.9399C149.56 10.6802 150.061 9.47198 150.951 8.58118C151.842 7.69039 153.05 7.18994 154.31 7.18994V7.18994C155.57 7.18994 156.778 7.69039 157.669 8.58118C158.56 9.47198 159.06 10.6802 159.06 11.9399V11.9399C159.06 13.1997 158.56 14.4079 157.669 15.2987C156.778 16.1895 155.57 16.6899 154.31 16.6899V16.6899C153.05 16.6899 151.842 16.1895 150.951 15.2987C150.061 14.4079 149.56 13.1997 149.56 11.9399V11.9399Z" fill="white"/>
<path d="M160.05 12C160.05 10.7393 160.55 9.53008 161.44 8.63769C162.331 7.74531 163.539 7.24264 164.8 7.23999C166.061 7.24264 167.269 7.74531 168.159 8.63769C169.05 9.53008 169.55 10.7393 169.55 12C169.55 13.2598 169.049 14.4679 168.159 15.3587C167.268 16.2495 166.06 16.75 164.8 16.75V16.75C163.54 16.75 162.332 16.2495 161.441 15.3587C160.55 14.4679 160.05 13.2598 160.05 12V12Z" fill="white"/>
<path d="M149.57 33.65C149.57 32.3902 150.07 31.1821 150.961 30.2913C151.852 29.4005 153.06 28.9 154.32 28.9V28.9C155.581 28.9 156.79 29.4001 157.682 30.2907C158.574 31.1812 159.077 32.3893 159.08 33.65C159.08 34.2746 158.957 34.8931 158.717 35.4701C158.478 36.047 158.127 36.5711 157.685 37.0123C157.243 37.4535 156.718 37.8032 156.141 38.0413C155.563 38.2794 154.944 38.4013 154.32 38.4C153.06 38.4 151.852 37.8996 150.961 37.0088C150.07 36.118 149.57 34.9098 149.57 33.65Z" fill="white"/>
<path d="M160 33.65C160 32.3902 160.5 31.1821 161.391 30.2913C162.282 29.4005 163.49 28.9 164.75 28.9V28.9C166.01 28.9 167.218 29.4005 168.109 30.2913C169 31.1821 169.5 32.3902 169.5 33.65V33.65C169.5 34.9098 169 36.118 168.109 37.0088C167.218 37.8996 166.01 38.4 164.75 38.4V38.4C163.49 38.4 162.282 37.8996 161.391 37.0088C160.5 36.118 160 34.9098 160 33.65V33.65Z" fill="white"/>
<path d="M170.51 33.65C170.51 32.3902 171.01 31.1821 171.901 30.2913C172.792 29.4005 174 28.9 175.26 28.9V28.9C176.518 28.9027 177.724 29.4043 178.612 30.2948C179.501 31.1853 180 32.392 180 33.65V33.65C180 34.9098 179.5 36.118 178.609 37.0088C177.718 37.8996 176.51 38.4 175.25 38.4V38.4C173.99 38.4 172.782 37.8996 171.891 37.0088C171 36.118 170.5 34.9098 170.5 33.65H170.51Z" fill="white"/>
<path d="M174.27 44.86C174.27 43.6037 174.768 42.3985 175.654 41.5083C176.541 40.6181 177.744 40.1153 179 40.11V40.11C179.625 40.1087 180.243 40.2306 180.821 40.4687C181.398 40.7068 181.923 41.0565 182.365 41.4977C182.807 41.9389 183.158 42.463 183.397 43.0399C183.637 43.6169 183.76 44.2354 183.76 44.86V44.86C183.757 46.1207 183.255 47.3288 182.362 48.2194C181.47 49.1099 180.261 49.61 179 49.61V49.61C177.74 49.61 176.532 49.1096 175.641 48.2188C174.75 47.328 174.25 46.1198 174.25 44.86H174.27Z" fill="white"/>
<path d="M165.9 22.63C165.899 22.0059 166.021 21.3876 166.259 20.8107C166.497 20.2338 166.847 19.7097 167.288 19.2683C167.73 18.827 168.254 18.4771 168.831 18.2389C169.407 18.0007 170.026 17.8787 170.65 17.88V17.88C171.91 17.88 173.118 18.3805 174.009 19.2713C174.899 20.1621 175.4 21.3702 175.4 22.63V22.63C175.4 23.8898 174.899 25.098 174.009 25.9888C173.118 26.8796 171.91 27.38 170.65 27.38V27.38C169.39 27.38 168.182 26.8796 167.291 25.9888C166.4 25.098 165.9 23.8898 165.9 22.63V22.63Z" fill="white"/>
<path d="M135.35 44.86C135.35 43.6002 135.851 42.392 136.741 41.5012C137.632 40.6104 138.84 40.11 140.1 40.11V40.11C140.725 40.1087 141.343 40.2306 141.921 40.4687C142.498 40.7068 143.023 41.0565 143.465 41.4977C143.907 41.9389 144.258 42.463 144.498 43.0399C144.737 43.6169 144.86 44.2354 144.86 44.86V44.86C144.857 46.1207 144.355 47.3288 143.462 48.2194C142.57 49.1099 141.361 49.61 140.1 49.61V49.61C138.84 49.61 137.632 49.1096 136.741 48.2188C135.851 47.328 135.35 46.1198 135.35 44.86V44.86Z" fill="white"/>
<path d="M346.88 45.54C346.88 44.9154 347.003 44.2969 347.242 43.72C347.482 43.143 347.833 42.619 348.275 42.1778C348.717 41.7365 349.242 41.3869 349.819 41.1487C350.397 40.9106 351.015 40.7887 351.64 40.79V40.79C352.898 40.7927 354.104 41.2943 354.992 42.1848C355.881 43.0753 356.38 44.282 356.38 45.54V45.54C356.381 46.1638 356.26 46.7818 356.022 47.3586C355.785 47.9354 355.436 48.4597 354.996 48.9017C354.556 49.3437 354.033 49.6947 353.457 49.9347C352.881 50.1746 352.264 50.2987 351.64 50.3V50.3C351.014 50.3014 350.395 50.1791 349.817 49.9404C349.239 49.7017 348.713 49.3511 348.271 48.9088C347.829 48.4665 347.478 47.9413 347.24 47.3632C347.001 46.7851 346.879 46.1655 346.88 45.54V45.54Z" fill="white"/>
<path d="M357.44 39.46C357.44 38.2002 357.94 36.992 358.831 36.1012C359.722 35.2104 360.93 34.71 362.19 34.71V34.71C363.45 34.71 364.658 35.2104 365.549 36.1012C366.44 36.992 366.94 38.2002 366.94 39.46V39.46C366.94 40.7207 366.44 41.9299 365.549 42.8223C364.659 43.7146 363.451 44.2173 362.19 44.22V44.22C360.93 44.2147 359.723 43.7112 358.833 42.8194C357.944 41.9275 357.443 40.7199 357.44 39.46V39.46Z" fill="white"/>
<path d="M361.2 28.4C361.2 27.772 361.325 27.1503 361.566 26.5707C361.808 25.9911 362.163 25.4652 362.609 25.0235C363.055 24.5817 363.585 24.2329 364.167 23.9972C364.749 23.7614 365.372 23.6434 366 23.65V23.65C367.26 23.65 368.468 24.1505 369.359 25.0413C370.25 25.9321 370.75 27.1403 370.75 28.4V28.4C370.75 29.6598 370.25 30.868 369.359 31.7588C368.468 32.6496 367.26 33.15 366 33.15V33.15C364.74 33.15 363.532 32.6496 362.641 31.7588C361.751 30.868 361.25 29.6598 361.25 28.4H361.2Z" fill="white"/>
<path d="M334.94 45.54C334.94 44.2803 335.44 43.0721 336.331 42.1813C337.222 41.2905 338.43 40.79 339.69 40.79V40.79C340.95 40.79 342.158 41.2905 343.049 42.1813C343.94 43.0721 344.44 44.2803 344.44 45.54V45.54C344.44 46.8007 343.94 48.0099 343.049 48.9023C342.159 49.7947 340.951 50.2974 339.69 50.3V50.3C338.429 50.2974 337.221 49.7947 336.331 48.9023C335.44 48.0099 334.94 46.8007 334.94 45.54Z" fill="white"/>
<path d="M324.38 39.46C324.383 38.1993 324.885 36.9911 325.778 36.1006C326.67 35.2101 327.879 34.71 329.14 34.71V34.71C330.4 34.71 331.608 35.2104 332.499 36.1012C333.389 36.992 333.89 38.2002 333.89 39.46V39.46C333.89 40.7197 333.389 41.9279 332.499 42.8187C331.608 43.7095 330.4 44.21 329.14 44.21V44.21C327.879 44.21 326.67 43.7098 325.778 42.8193C324.885 41.9288 324.383 40.7207 324.38 39.46Z" fill="white"/>
<path d="M320.62 28.4C320.62 27.1402 321.121 25.9321 322.011 25.0413C322.902 24.1505 324.11 23.65 325.37 23.65V23.65C326.631 23.65 327.84 24.1501 328.732 25.0407C329.625 25.9312 330.127 27.1393 330.13 28.4V28.4C330.127 29.6607 329.625 30.8689 328.732 31.7594C327.84 32.6499 326.631 33.15 325.37 33.15V33.15C324.11 33.15 322.902 32.6496 322.011 31.7588C321.121 30.868 320.62 29.6598 320.62 28.4V28.4Z" fill="white"/>
<path d="M346.88 11.26C346.879 10.6345 347.001 10.015 347.24 9.43688C347.478 8.85877 347.829 8.33351 348.271 7.89124C348.713 7.44897 349.239 7.0984 349.817 6.85966C350.395 6.62091 351.014 6.49869 351.64 6.50001V6.50001C352.264 6.50132 352.881 6.62548 353.457 6.86541C354.033 7.10533 354.556 7.45631 354.996 7.89832C355.436 8.34033 355.785 8.8647 356.022 9.4415C356.26 10.0183 356.381 10.6362 356.38 11.26V11.26C356.377 12.5163 355.877 13.7204 354.989 14.6088C354.1 15.4971 352.896 15.9974 351.64 16V16C351.015 16.0013 350.397 15.8794 349.819 15.6413C349.242 15.4032 348.717 15.0535 348.275 14.6123C347.833 14.1711 347.482 13.647 347.242 13.0701C347.003 12.4931 346.88 11.8746 346.88 11.25V11.26Z" fill="white"/>
<path d="M357.44 17.34C357.44 16.0802 357.94 14.872 358.831 13.9812C359.722 13.0904 360.93 12.59 362.19 12.59V12.59C363.45 12.59 364.658 13.0904 365.549 13.9812C366.44 14.872 366.94 16.0802 366.94 17.34V17.34C366.94 18.5997 366.44 19.8079 365.549 20.6987C364.658 21.5895 363.45 22.09 362.19 22.09V22.09C360.93 22.09 359.722 21.5895 358.831 20.6987C357.94 19.8079 357.44 18.5997 357.44 17.34V17.34Z" fill="white"/>
<path d="M334.94 11.26C334.94 10.0002 335.44 8.79205 336.331 7.90125C337.222 7.01045 338.43 6.51001 339.69 6.51001V6.51001C340.95 6.51001 342.158 7.01045 343.049 7.90125C343.94 8.79205 344.44 10.0002 344.44 11.26V11.26C344.437 12.5181 343.936 13.7237 343.045 14.6123C342.155 15.5009 340.948 16 339.69 16C338.43 16 337.222 15.4996 336.331 14.6088C335.44 13.718 334.94 12.5098 334.94 11.25V11.26Z" fill="white"/>
<path d="M324.38 17.34C324.383 16.0793 324.885 14.8711 325.778 13.9806C326.67 13.0901 327.879 12.59 329.14 12.59V12.59C330.4 12.59 331.608 13.0904 332.499 13.9812C333.389 14.872 333.89 16.0802 333.89 17.34V17.34C333.89 18.5997 333.389 19.8079 332.499 20.6987C331.608 21.5895 330.4 22.09 329.14 22.09V22.09C327.879 22.09 326.67 21.5898 325.778 20.6993C324.885 19.8088 324.383 18.6007 324.38 17.34V17.34Z" fill="white"/>
<path d="M278 20.26C277.999 19.6359 278.121 19.0176 278.359 18.4407C278.597 17.8638 278.947 17.3397 279.388 16.8983C279.83 16.457 280.354 16.1072 280.931 15.8689C281.508 15.6307 282.126 15.5087 282.75 15.51V15.51C283.374 15.5087 283.992 15.6307 284.569 15.8689C285.146 16.1072 285.67 16.457 286.112 16.8983C286.553 17.3397 286.903 17.8638 287.141 18.4407C287.379 19.0176 287.501 19.6359 287.5 20.26V20.26C287.497 21.5129 287 22.714 286.116 23.6018C285.232 24.4895 284.033 24.9921 282.78 25V25C282.155 25.004 281.534 24.8844 280.955 24.648C280.376 24.4117 279.85 24.0634 279.405 23.623C278.961 23.1825 278.608 22.6588 278.367 22.0816C278.126 21.5045 278.001 20.8855 278 20.26V20.26Z" fill="white"/>
<path d="M285.33 28.39C285.33 27.1293 285.83 25.9201 286.721 25.0277C287.611 24.1353 288.819 23.6327 290.08 23.63V23.63C290.705 23.63 291.323 23.7532 291.9 23.9925C292.477 24.2319 293.001 24.5826 293.442 25.0248C293.884 25.4669 294.233 25.9917 294.471 26.5692C294.71 27.1466 294.831 27.7654 294.83 28.39V28.39C294.83 29.6498 294.33 30.858 293.439 31.7488C292.548 32.6396 291.34 33.14 290.08 33.14V33.14C288.82 33.14 287.612 32.6396 286.721 31.7488C285.831 30.858 285.33 29.6498 285.33 28.39V28.39Z" fill="white"/>
<path d="M52.7099 32.13L47.4499 2.53C47.3974 2.13589 47.2647 1.75673 47.0599 1.41592C46.8552 1.0751 46.5827 0.779857 46.2594 0.548407C45.9362 0.316957 45.5689 0.15421 45.1803 0.0702071C44.7917 -0.0137954 44.3899 -0.0172708 43.9999 0.0599955L12.9999 5.48C12.1226 5.63363 11.3093 6.04029 10.6599 6.65C10.6599 6.65 2.79993 14.1 1.65993 15.28C1.01122 15.9221 0.531199 16.7145 0.262533 17.5868C-0.00613359 18.459 -0.0551177 19.3842 0.119935 20.28L6.11993 54.18C6.18987 54.5771 6.33759 54.9564 6.55459 55.2962C6.7716 55.636 7.05361 55.9295 7.38443 56.16C7.71525 56.3904 8.08835 56.5533 8.48229 56.6391C8.87623 56.7249 9.28324 56.732 9.67994 56.66C10.9699 56.47 41.5199 51.1 43.1199 50.77C44.0782 50.5394 44.9719 50.0948 45.7339 49.4696C46.4959 48.8444 47.1065 48.0548 47.5199 47.16L52.1799 37C52.9999 35.08 53.0799 34.64 52.7099 32.13ZM36.0599 6.42C34.3796 7.4106 32.5086 8.03427 30.5699 8.25C28.4099 8.56 27.3499 8.25 28.2099 7.54C29.8886 6.55373 31.7555 5.93032 33.6899 5.71C35.8599 5.4 36.9199 5.72 36.0599 6.42ZM31.0599 5.12L24.1599 7.25H19.1599L26.0599 5.1L31.0599 5.12ZM12.5899 6.75L19.3999 5.55L17.3199 7.72L10.3999 8.84L12.5899 6.75ZM9.73993 53.13L8.40993 45.62L15.9199 44.29L17.2499 51.81L9.73993 53.13ZM15.7399 42.13L10.8299 36.29L13.4199 29.13L18.3399 34.98L15.7399 42.13ZM22.8199 30C21.971 30.1507 21.0964 30.0458 20.3072 29.6985C19.518 29.3512 18.8499 28.7771 18.3876 28.0493C17.9253 27.3215 17.6897 26.4727 17.7107 25.6108C17.7318 24.7488 18.0085 23.9125 18.5058 23.2081C19.0031 22.5038 19.6985 21.9631 20.5037 21.6547C21.3089 21.3463 22.1876 21.2842 23.0282 21.4762C23.8687 21.6682 24.6333 22.1057 25.2247 22.7331C25.8162 23.3605 26.2078 24.1496 26.3499 25C26.5361 26.13 26.2703 27.2879 25.6097 28.2235C24.9492 29.1591 23.9471 29.7972 22.8199 30ZM32.5699 24.81L26.6799 17.81L35.6799 16.22L32.5699 24.81ZM35.7899 10.31L29.0799 10.44L37.7299 7.8L35.7899 10.31ZM46.5399 5.91L46.8899 13.74L44.7699 8.39999L46.5399 5.91ZM44.1699 12.71C44.5999 12.03 45.2699 13.23 45.6399 15.37C46.0099 17.51 45.9699 19.8 45.5299 20.47C45.0899 21.14 44.4399 19.95 44.0599 17.81C43.6799 15.67 43.7299 13.35 44.1699 12.68V12.71ZM44.1699 21.5L45.9999 26.53L46.3499 33.92L44.5099 28.92L44.1699 21.5ZM46.4499 45.22L45.1399 38L46.4999 35.3L47.7499 42.36L46.4499 45.22Z" fill="#FDB913"/>
</svg>
