<?xml version="1.0" encoding="iso-8859-1"?>
<!-- Generator: Adobe Illustrator 19.0.0, SVG Export Plug-In . SVG Version: 6.00 Build 0)  -->
<svg version="1.1" id="Layer_1" xmlns="http://www.w3.org/2000/svg" xmlns:xlink="http://www.w3.org/1999/xlink" x="0px" y="0px"
	 viewBox="0 0 512 512" style="enable-background:new 0 0 512 512;" xml:space="preserve">
<path style="fill:#F95428;" d="M414.688,501.772c0,0-89.453-281.351,76.041-439.87c-8.834-8.625-37.877-45.91-37.877-45.91
	l-84.091,42.246c0,0-125.794-97.245-270.229-15.745V16.648l-77.259,9.906l8.129,176.921l67.738,0.095
	c0,0-12.482-62.168,62.44-40.182c23.544,6.91,42.289,10.249,56.926,11.579c31.941,2.905,44.319-3.756,44.319-3.756
	s-9.77,5.891-24.005,18.419c-42.706,37.585-125.595,134.91-105.419,312.138C171.204,502.179,414.688,501.772,414.688,501.772z"/>
<path style="fill:#333333;" d="M222.486,512c-42.039,0-77.974-0.046-91.188-0.181c-5.071-0.052-9.308-3.874-9.882-8.912
	c-8.996-79.025,1.092-150.947,29.984-213.77c22.706-49.373,52.499-83.09,74.811-103.489c-3.304-0.113-6.839-0.33-10.616-0.673
	c-17.443-1.586-37.241-5.605-58.845-11.945c-20.901-6.134-35.938-5.72-43.485,1.197c-8.114,7.435-7.226,22.629-6.275,27.366
	c0.594,2.956-0.17,6.021-2.084,8.351c-1.908,2.327-4.761,3.675-7.769,3.675c-0.004,0-0.009,0-0.015,0l-67.738-0.096
	c-5.365-0.008-9.777-4.229-10.024-9.588L11.233,27.015c-0.24-5.227,3.571-9.764,8.761-10.428l77.259-9.906
	c2.859-0.367,5.748,0.516,7.916,2.424c2.168,1.908,3.41,4.656,3.41,7.544v9.217C180.476-9.162,246.597-2.406,290.565,10.139
	c39.61,11.301,67.923,28.766,79.101,36.397l78.673-39.524c4.284-2.153,9.492-0.978,12.439,2.804
	c7.962,10.222,30.126,38.213,36.97,44.895c1.95,1.903,3.043,4.515,3.029,7.238c-0.013,2.724-1.131,5.325-3.099,7.209
	c-36.492,34.955-63.086,79.125-79.04,131.287c-12.862,42.044-18.898,89.366-17.945,140.649
	c1.631,87.675,23.35,156.943,23.57,157.632c0.971,3.052,0.427,6.383-1.46,8.971c-1.889,2.587-4.897,4.117-8.1,4.124
	C413.085,511.823,305.813,512,222.486,512z M140.457,491.785c49.521,0.252,212.997,0.029,260.918-0.043
	c-6.557-24.636-19.497-81.477-20.776-150.276c-0.993-53.404,5.338-102.828,18.82-146.901
	c15.941-52.119,41.954-96.821,77.378-133.018c-8.372-9.673-20.05-24.339-26.783-32.887l-76.743,38.555
	c-3.456,1.735-7.597,1.336-10.657-1.029c-0.296-0.226-31.021-23.593-78.297-36.931C221.55,11.55,160.706,18.948,103.468,51.244
	c-3.11,1.755-6.92,1.727-10.006-0.074c-3.084-1.801-4.982-5.105-4.982-8.678V28.068l-56.745,7.276l7.264,158.095l47.338,0.067
	c0.125-10.016,2.515-24.17,13.349-34.097c13.202-12.098,34.305-14.003,62.721-5.662c20.354,5.973,38.861,9.746,55.006,11.215
	c26.138,2.377,37.546-2.14,38.752-2.66c4.737-2.772,10.636-1.107,13.474,3.611c2.862,4.753,1.123,11.042-3.627,13.907
	c-0.079,0.047-9.297,5.689-22.556,17.357c-21.188,18.647-51.19,51.194-73.799,100.359
	C143.396,354.64,133.586,419.952,140.457,491.785z"/>
<g>
	<path style="fill:#FFFFFF;" d="M371.749,478.388c-4.649,0-8.823-3.244-9.821-7.974c-6.22-29.44-13.838-75.602-14.819-128.323
		c-1.059-56.936,5.764-109.866,20.279-157.321c4.241-13.865,9.209-27.447,14.767-40.371c2.192-5.098,8.104-7.454,13.202-5.262
		c5.1,2.192,7.454,8.104,5.262,13.202c-5.27,12.253-9.983,25.142-14.011,38.31c-13.893,45.426-20.421,96.253-19.402,151.069
		c0.95,51.143,8.347,95.956,14.386,124.543c1.147,5.431-2.325,10.762-7.755,11.909C373.135,478.317,372.436,478.388,371.749,478.388
		z"/>
	<path style="fill:#FFFFFF;" d="M348.267,94.79c-2.148,0-4.31-0.685-6.139-2.1c-0.316-0.236-40.728-30.082-97.813-37.526
		c-5.503-0.718-9.383-5.761-8.665-11.264c0.718-5.503,5.767-9.383,11.264-8.665c62.905,8.203,107.079,41.224,107.507,41.555
		c4.391,3.394,5.199,9.706,1.805,14.097C354.244,93.448,351.271,94.79,348.267,94.79z"/>
	<path style="fill:#FFFFFF;" d="M450.295,71.407c-3.013,0-5.995-1.349-7.972-3.923l-6.699-8.709
		c-3.383-4.399-2.562-10.708,1.837-14.092c4.402-3.383,10.711-2.561,14.093,1.838l6.699,8.709
		c3.383,4.399,2.562,10.708-1.837,14.092C454.588,70.726,452.432,71.407,450.295,71.407z"/>
	<circle style="fill:#FFFFFF;" cx="214.126" cy="43.238" r="10.049"/>
</g>
<g>
</g>
<g>
</g>
<g>
</g>
<g>
</g>
<g>
</g>
<g>
</g>
<g>
</g>
<g>
</g>
<g>
</g>
<g>
</g>
<g>
</g>
<g>
</g>
<g>
</g>
<g>
</g>
<g>
</g>
</svg>
