<?xml version="1.0" encoding="iso-8859-1"?>
<!-- Generator: Adobe Illustrator 19.0.0, SVG Export Plug-In . SVG Version: 6.00 Build 0)  -->
<svg version="1.1" id="Layer_1" xmlns="http://www.w3.org/2000/svg" xmlns:xlink="http://www.w3.org/1999/xlink" x="0px" y="0px"
	 viewBox="0 0 512 512" style="enable-background:new 0 0 512 512;" xml:space="preserve">
<path style="fill:#F95428;" d="M51.015,132.344h409.959c0,113.208-91.766,204.985-204.974,204.985S51.015,245.551,51.015,132.344z
	 M384.498,206.63c10.24,0,18.546-8.306,18.546-18.546c0-10.252-18.546-25.739-18.546-25.739s-18.557,15.487-18.557,25.739
	C365.941,198.325,374.247,206.63,384.498,206.63z M318.795,279.098c10.24,0,18.546-8.306,18.546-18.546
	c0-10.252-18.546-25.739-18.546-25.739s-18.557,15.487-18.557,25.739C300.238,270.792,308.544,279.098,318.795,279.098z M256,206.63
	c10.24,0,18.546-8.306,18.546-18.546c0-10.252-18.546-25.739-18.546-25.739s-18.557,15.487-18.557,25.739
	C237.443,198.325,245.748,206.63,256,206.63z M193.205,279.098c10.24,0,18.546-8.306,18.546-18.546
	c0-10.252-18.546-25.739-18.546-25.739s-18.557,15.487-18.557,25.739C174.648,270.792,182.953,279.098,193.205,279.098z
	 M127.502,206.63c10.24,0,18.546-8.306,18.546-18.546c0-10.252-18.546-25.739-18.546-25.739s-18.557,15.487-18.557,25.739
	C108.945,198.325,117.25,206.63,127.502,206.63z"/>
<g>
	<path style="fill:#4D4D4D;" d="M211.75,260.552c0,10.24-8.306,18.546-18.546,18.546c-10.252,0-18.557-8.306-18.557-18.546
		c0-10.252,18.557-25.739,18.557-25.739S211.75,250.301,211.75,260.552z"/>
	<path style="fill:#4D4D4D;" d="M337.341,260.552c0,10.24-8.306,18.546-18.546,18.546c-10.252,0-18.557-8.306-18.557-18.546
		c0-10.252,18.557-25.739,18.557-25.739S337.341,250.301,337.341,260.552z"/>
	<path style="fill:#4D4D4D;" d="M403.044,188.085c0,10.24-8.306,18.546-18.546,18.546c-10.252,0-18.557-8.306-18.557-18.546
		c0-10.252,18.557-25.739,18.557-25.739S403.044,177.833,403.044,188.085z"/>
	<path style="fill:#4D4D4D;" d="M146.047,188.085c0,10.24-8.306,18.546-18.546,18.546c-10.252,0-18.557-8.306-18.557-18.546
		c0-10.252,18.557-25.739,18.557-25.739S146.047,177.833,146.047,188.085z"/>
	<path style="fill:#4D4D4D;" d="M274.546,188.085c0,10.24-8.306,18.546-18.546,18.546c-10.252,0-18.557-8.306-18.557-18.546
		c0-10.252,18.557-25.739,18.557-25.739S274.546,177.833,274.546,188.085z"/>
</g>
<path style="fill:#9AD14B;" d="M460.974,132.344h42.338c0,136.584-110.729,247.312-247.312,247.312
	c-136.595,0-247.312-110.729-247.312-247.312h42.327c0,113.208,91.778,204.985,204.985,204.985S460.974,245.551,460.974,132.344z"/>
<g>
	<path style="fill:#333333;" d="M503.312,123.656H8.688c-4.798,0-8.688,3.89-8.688,8.688c0,68.38,26.627,132.667,74.978,181.019
		c48.352,48.353,112.64,74.981,181.022,74.981c68.379,0,132.665-26.629,181.019-74.981S512,200.723,512,132.344
		C512,127.546,508.11,123.656,503.312,123.656z M452.083,141.032C447.52,245.254,361.32,328.641,256,328.641
		c-105.327,0-191.532-83.388-196.095-187.61L452.083,141.032L452.083,141.032z M256,370.968
		c-128.671,0-233.882-102.365-238.468-229.937h24.986C47.094,254.837,141.092,346.017,256,346.017
		c114.902,0,208.895-91.18,213.47-204.985h24.998C489.882,268.603,384.671,370.968,256,370.968z"/>
	<path style="fill:#333333;" d="M193.205,287.786c-15.023,0-27.245-12.216-27.245-27.233c0-13.284,16.593-28.165,21.678-32.41
		c3.225-2.691,7.912-2.69,11.135,0.001c5.082,4.244,21.664,19.125,21.664,32.408C220.438,275.57,208.221,287.786,193.205,287.786z
		 M193.2,246.637c-5.514,5.589-9.826,11.493-9.865,13.918c0,5.434,4.427,9.855,9.869,9.855c5.435,0,9.857-4.422,9.858-9.857
		C203.027,258.166,198.663,252.198,193.2,246.637z"/>
	<path style="fill:#333333;" d="M318.795,287.786c-15.023,0-27.245-12.216-27.245-27.233c0-13.284,16.592-28.165,21.678-32.41
		c3.225-2.691,7.912-2.69,11.135,0.001c5.083,4.244,21.665,19.125,21.665,32.408C346.029,275.57,333.811,287.786,318.795,287.786z
		 M318.793,246.633c-5.515,5.59-9.829,11.497-9.867,13.921c0,5.434,4.427,9.855,9.869,9.855c5.435,0,9.858-4.422,9.858-9.857
		C328.616,258.13,324.307,252.226,318.793,246.633z"/>
	<path style="fill:#333333;" d="M127.502,215.318c-15.023,0-27.245-12.216-27.245-27.233c0-13.284,16.593-28.165,21.678-32.41
		c3.225-2.691,7.913-2.69,11.135,0.001c5.083,4.244,21.665,19.125,21.665,32.408C154.735,203.101,142.518,215.318,127.502,215.318z
		 M127.5,174.166c-5.515,5.59-9.829,11.497-9.867,13.921c0,5.434,4.427,9.855,9.869,9.855c5.435,0,9.858-4.422,9.858-9.857
		C137.323,185.663,133.013,179.758,127.5,174.166z"/>
	<path style="fill:#333333;" d="M384.498,215.318c-15.023,0-27.245-12.216-27.245-27.233c0-13.284,16.592-28.165,21.678-32.41
		c3.225-2.691,7.912-2.691,11.135,0.002c5.082,4.244,21.664,19.125,21.664,32.408C411.731,203.101,399.515,215.318,384.498,215.318z
		 M384.493,174.169c-5.514,5.589-9.826,11.493-9.865,13.918c0,5.434,4.427,9.855,9.869,9.855c5.435,0,9.857-4.422,9.858-9.857
		C394.32,185.698,389.958,179.731,384.493,174.169z"/>
	<path style="fill:#333333;" d="M256,215.318c-15.023,0-27.245-12.216-27.245-27.233c0-13.284,16.593-28.165,21.678-32.41
		c3.225-2.691,7.912-2.691,11.135,0.002c5.082,4.244,21.664,19.125,21.664,32.408C283.233,203.101,271.016,215.318,256,215.318z
		 M255.995,174.169c-5.514,5.589-9.826,11.493-9.865,13.918c0,5.434,4.427,9.855,9.869,9.855c5.435,0,9.857-4.422,9.858-9.857
		C265.822,185.698,261.458,179.731,255.995,174.169z"/>
</g>
<circle style="fill:#FFFFFF;" cx="434.389" cy="154.955" r="8.688"/>
<g>
</g>
<g>
</g>
<g>
</g>
<g>
</g>
<g>
</g>
<g>
</g>
<g>
</g>
<g>
</g>
<g>
</g>
<g>
</g>
<g>
</g>
<g>
</g>
<g>
</g>
<g>
</g>
<g>
</g>
</svg>
