<?xml version="1.0" encoding="utf-8"?>
<!-- Generator: Adobe Illustrator 16.0.0, SVG Export Plug-In . SVG Version: 6.00 Build 0)  -->
<!DOCTYPE svg PUBLIC "-//W3C//DTD SVG 1.1//EN" "http://www.w3.org/Graphics/SVG/1.1/DTD/svg11.dtd">
<svg version="1.1" id="Isolation_Mode" xmlns="http://www.w3.org/2000/svg" xmlns:xlink="http://www.w3.org/1999/xlink" x="0px"
	 y="0px" width="1200px" height="67.75px" viewBox="0 0 1200 67.75" enable-background="new 0 0 1200 67.75" xml:space="preserve">
<g>
	<g>
		<path fill="#FFFFFF" d="M1046.432,44.617c-37.035,10.804-71.992,21.015-143.858,21.015c-71.853,0-106.81-10.211-143.829-21.015
			C719.785,33.253,679.502,21.5,600.12,21.5c-79.381,0-119.663,11.753-158.623,23.117c-37.021,10.804-71.977,21.015-143.812,21.015
			c-71.82,0-106.792-10.211-143.812-21.015C114.929,33.253,74.647,21.5-4.75,21.5v59.621V80.25l0,0h1209.5l0,0V21.501
			C1125.564,21.532,1085.354,33.269,1046.432,44.617z"/>
	</g>
</g>
</svg>
